<svg width="180" height="114" viewBox="0 0 180 114" fill="none" xmlns="http://www.w3.org/2000/svg">
<rect width="180" height="114" fill="white"/>
<g clip-path="url(#clip0)">
<path fill-rule="evenodd" clip-rule="evenodd" d="M67.5002 58H60.7002C60.2002 58 59.7002 58.4 59.7002 59C59.7002 59.5 60.1002 60 60.7002 60H67.4002C67.9002 60 68.4002 59.6 68.4002 59C68.4002 58.5 68.0002 58 67.5002 58Z" fill="#B26D28" stroke="#B26D28" stroke-width="0.3" stroke-miterlimit="10"/>
<path fill-rule="evenodd" clip-rule="evenodd" d="M74.2002 66.5H60.7002C60.2002 66.5 59.7002 66.9 59.7002 67.5C59.7002 68.1 60.1002 68.5 60.7002 68.5H74.2002C74.7002 68.5 75.2002 68.1 75.2002 67.5C75.2002 66.9 74.8002 66.5 74.2002 66.5Z" fill="#B26D28" stroke="#B26D28" stroke-width="0.3" stroke-miterlimit="10"/>
<path fill-rule="evenodd" clip-rule="evenodd" d="M111.4 61.4C101.6 61.4 93.5996 69.4 93.5996 79.2C93.5996 89 101.5 97 111.4 97C121.3 97 129.2 89 129.2 79.2C129.2 69.4 121.2 61.4 111.4 61.4ZM111.4 95.2C102.6 95.2 95.4996 88.1 95.4996 79.3C95.4996 70.5 102.6 63.4 111.4 63.4C120.2 63.4 127.3 70.5 127.3 79.3C127.3 88.1 120.2 95.2 111.4 95.2Z" fill="#B26D28" stroke="#B26D28" stroke-width="0.3" stroke-miterlimit="10"/>
<path fill-rule="evenodd" clip-rule="evenodd" d="M118.7 77C118.4 76.7 117.8 76.7 117.5 77L111.3 83.2L106.8 78.7C106.6 78.5 106.4 78.5 106.2 78.5C106 78.5 105.8 78.6 105.6 78.7C105.4 78.9 105.4 79.1 105.4 79.3C105.4 79.5 105.5 79.7 105.6 79.9L110.7 85C111 85.3 111.6 85.3 111.9 85L118.7 78.2C119 77.8 119 77.3 118.7 77Z" fill="#B26D28" stroke="#B26D28" stroke-width="0.3" stroke-miterlimit="10"/>
<path fill-rule="evenodd" clip-rule="evenodd" d="M115.4 31.2H60.0996C56.2996 31.2 53.0996 34.4 53.0996 38.3V69.5999C53.0996 73.5 56.1996 76.7 60.0996 76.7H84.2996C84.7996 76.7 85.0996 76.3 85.0996 75.9C85.0996 75.5 84.7996 75 84.3996 75H60.0996C57.1996 75 54.7996 72.5999 54.7996 69.5999V42.9H120.6V55.6C120.6 56.1 121 56.4 121.4 56.4C121.8 56.4 122.2 56 122.2 55.6V38.3C122.3 34.3 119.2 31.2 115.4 31.2ZM120.6 41.3H54.7996V38.3C54.7996 35.3 57.1996 32.9 60.0996 32.9H115.3C118.2 32.9 120.6 35.3 120.6 38.3V41.3Z" fill="#B26D28" stroke="#B26D28" stroke-width="0.3" stroke-miterlimit="10"/>
</g>
<g style="mix-blend-mode:multiply">
<circle cx="70" cy="43" r="43" fill="#F2E2D3"/>
</g>
<defs>
<clipPath id="clip0">
<rect width="76.3" height="66.2" fill="white" transform="translate(53 31)"/>
</clipPath>
</defs>
</svg>
