<svg width="180" height="114" viewBox="0 0 180 114" fill="none" xmlns="http://www.w3.org/2000/svg">
<rect width="180" height="114" fill="white"/>
<path d="M135 82H45C43.9 82 43 81.1 43 80V26C43 24.9 43.9 24 45 24H135C136.1 24 137 24.9 137 26V80C137 81.1 136.1 82 135 82ZM45 26V80H135V26H45Z" fill="#B26D28"/>
<path d="M90 38C89.4 38 89 37.6 89 37V15C89 14.4 89.4 14 90 14C90.6 14 91 14.4 91 15V37C91 37.6 90.6 38 90 38Z" fill="#B26D28"/>
<path d="M90 66C89.4 66 89 65.6 89 65V43C89 42.4 89.4 42 90 42C90.6 42 91 42.4 91 43V65C91 65.6 90.6 66 90 66Z" fill="#B26D28"/>
<path d="M90 94C89.4 94 89 93.6 89 93V71C89 70.4 89.4 70 90 70C90.6 70 91 70.4 91 71V93C91 93.6 90.6 94 90 94Z" fill="#B26D28"/>
<path d="M68 58C61.4 58 56 52.6 56 46C56 39.4 61.4 34 68 34C74.6 34 80 39.4 80 46C80 52.6 74.6 58 68 58ZM68 36C62.5 36 58 40.5 58 46C58 51.5 62.5 56 68 56C73.5 56 78 51.5 78 46C78 40.5 73.5 36 68 36Z" fill="#B26D28"/>
<path d="M124 32H102C100.3 32 99 33.3 99 35V57C99 58.7 100.3 60 102 60H124C125.7 60 127 58.7 127 57V35C127 33.3 125.7 32 124 32ZM125 57C125 57.6 124.6 58 124 58H102C101.4 58 101 57.6 101 57V35C101 34.4 101.4 34 102 34H124C124.6 34 125 34.4 125 35V57Z" fill="#B26D28"/>
<path d="M79 65H57C56.4 65 56 64.6 56 64C56 63.4 56.4 63 57 63H79C79.6 63 80 63.4 80 64C80 64.6 79.6 65 79 65Z" fill="#B26D28"/>
<path d="M124 65H102C101.4 65 101 64.6 101 64C101 63.4 101.4 63 102 63H124C124.6 63 125 63.4 125 64C125 64.6 124.6 65 124 65Z" fill="#B26D28"/>
<path d="M79 71H57C56.4 71 56 70.6 56 70C56 69.4 56.4 69 57 69H79C79.6 69 80 69.4 80 70C80 70.6 79.6 71 79 71Z" fill="#B26D28"/>
<path d="M124 71H102C101.4 71 101 70.6 101 70C101 69.4 101.4 69 102 69H124C124.6 69 125 69.4 125 70C125 70.6 124.6 71 124 71Z" fill="#B26D28"/>
<path d="M72 97C71.7 97 71.5 96.9 71.3 96.7L68 93.4L64.7 96.7C64.3 97.1 63.7 97.1 63.3 96.7C62.9 96.3 62.9 95.7 63.3 95.3L66.6 92L63.3 88.7C62.9 88.3 62.9 87.7 63.3 87.3C63.7 86.9 64.3 86.9 64.7 87.3L68 90.6L71.3 87.3C71.7 86.9 72.3 86.9 72.7 87.3C73.1 87.7 73.1 88.3 72.7 88.7L69.4 92L72.7 95.3C73.1 95.7 73.1 96.3 72.7 96.7C72.5 96.9 72.3 97 72 97Z" fill="#B26D28"/>
<path d="M114.5 97C114.2 97 114 96.8999 113.8 96.6999L109.3 92.1999C108.9 91.7999 108.9 91.2 109.3 90.8C109.7 90.4 110.3 90.4 110.7 90.8L114.5 94.6L120.8 89.1999C121.2 88.7999 121.9 88.9 122.2 89.3C122.6 89.7 122.5 90.2999 122.1 90.6999L115.1 96.6999C115 96.8999 114.7 97 114.5 97Z" fill="#B26D28"/>
<g style="mix-blend-mode:multiply">
<circle cx="70" cy="43" r="43" fill="#F2E2D3"/>
</g>
</svg>
