<svg width="180" height="114" viewBox="0 0 180 114" fill="none" xmlns="http://www.w3.org/2000/svg">
<rect width="180" height="114" fill="white"/>
<g clip-path="url(#clip0)">
<path d="M129.8 69.7H48V18.7C48 17.8 48.8 17 49.9 17H127.9C128.9 17 129.8 17.8 129.8 18.7V69.7ZM49.8 67.9H128V18.8H127.9H49.9C49.8 18.8 49.8 18.8 49.8 18.8V67.9Z" fill="#B26D28"/>
<path d="M122.9 63.8H55.9C54.9 63.8 54 63 54 61.9V24.9C54 23.9 54.8 23 55.9 23H122.9C123.9 23 124.8 23.8 124.8 24.9V61.9C124.8 62.9 123.9 63.8 122.9 63.8ZM55.9 24.8C55.8 24.8 55.8 24.9 55.8 24.9V61.9C55.8 62 55.9 62 55.9 62H122.9C123 62 123 61.9 123 61.9V24.9C123 24.8 122.9 24.8 122.9 24.8H55.9Z" fill="#B26D28"/>
<path d="M118 40.6H78.9C77.9 40.6 77 39.8 77 38.7V29.7C77 28.7 77.8 27.8 78.9 27.8H118C119 27.8 119.9 28.6 119.9 29.7V38.7C119.8 39.7 119 40.6 118 40.6ZM78.9 29.6C78.8 29.6 78.8 29.7 78.8 29.7V38.7C78.8 38.8 78.8 38.8 78.9 38.8H118C118.1 38.8 118.1 38.7 118.1 38.7V29.7C118.1 29.6 118.1 29.6 118 29.6H78.9Z" fill="#B26D28"/>
<path d="M71.9998 46H60.7998C59.6998 46 58.7998 45.1 58.7998 44V29.9C58.7998 28.8 59.6998 27.9 60.7998 27.9H71.9998C73.0998 27.9 73.9998 28.8 73.9998 29.9V44C73.9998 45.1 73.0998 46 71.9998 46ZM60.7998 29.6C60.5998 29.6 60.4998 29.7 60.4998 29.9V44C60.4998 44.2 60.5998 44.3 60.7998 44.3H71.9998C72.1998 44.3 72.2998 44.2 72.2998 44V29.9C72.2998 29.7 72.1998 29.6 71.9998 29.6H60.7998Z" fill="#B26D28"/>
<path d="M133.9 78.8H43.9C42.9 78.8 42 78 42 76.9V68H135.8V76.9C135.8 77.9 134.9 78.8 133.9 78.8ZM43.8 69.8V76.9C43.8 77 43.9 77 43.9 77H133.9C134 77 134 76.9 134 76.9V69.8H43.8Z" fill="#B26D28"/>
<path d="M82.4189 72.7167L79.3125 75.0751L86.0851 83.9959L89.1915 81.6375L82.4189 72.7167Z" fill="white"/>
<path d="M85.9 85.2L78 74.9L82.5 71.5L90.3 81.8L85.9 85.2ZM80.5 75.3L86.2 82.8L87.9 81.5L82.2 74L80.5 75.3Z" fill="#B26D28"/>
<path d="M70.7004 96.7L62.9004 86.4001L75.5004 76.8L83.3004 87.1L70.7004 96.7ZM65.3004 86.8001L71.0004 94.3001L80.8004 86.8001L75.1004 79.3L65.3004 86.8001Z" fill="#B26D28"/>
<path d="M80.5998 85.5L76.2998 79.9L80.7998 76.5L85.0998 82.1L80.5998 85.5ZM78.7998 80.2L80.9998 83L82.6998 81.7L80.3998 79L78.7998 80.2Z" fill="#B26D28"/>
<path fill-rule="evenodd" clip-rule="evenodd" d="M97.7002 83.1001C106 83.1001 112.7 76.4001 112.7 68.1001C112.7 59.8001 106 53.1001 97.7002 53.1001C89.4002 53.1001 82.7002 59.8001 82.7002 68.1001C82.7002 76.4001 89.4002 83.1001 97.7002 83.1001ZM97.6002 77.9001C103.2 77.9001 107.7 73.5001 107.7 68.2001C107.7 62.9001 103.2 58.5001 97.6002 58.5001C92.0002 58.5001 87.5002 62.9001 87.5002 68.2001C87.5002 73.5001 92.1002 77.9001 97.6002 77.9001Z" fill="white"/>
<path d="M97.6998 84C88.9998 84 81.7998 76.9 81.7998 68.1C81.7998 59.3 88.9998 52.3 97.6998 52.3C106.4 52.3 113.6 59.4001 113.6 68.2001C113.6 77 106.5 84 97.6998 84ZM97.6998 54C89.8998 54 83.5998 60.3 83.5998 68.1C83.5998 75.9 89.8998 82.2 97.6998 82.2C105.5 82.2 111.8 75.9 111.8 68.1C111.8 60.3 105.5 54 97.6998 54ZM97.5998 78.7001C91.4998 78.7001 86.5998 73.9 86.5998 68.1C86.5998 62.3 91.4998 57.5 97.5998 57.5C103.7 57.5 108.6 62.3 108.6 68.1C108.6 73.9 103.7 78.7001 97.5998 78.7001ZM97.5998 59.2001C92.4998 59.2001 88.3998 63.2 88.3998 68.1C88.3998 73 92.4998 77 97.5998 77C102.7 77 106.8 73 106.8 68.1C106.8 63.2 102.7 59.2001 97.5998 59.2001Z" fill="#B26D28"/>
</g>
<g style="mix-blend-mode:multiply">
<circle cx="70" cy="43" r="43" fill="#F2E2D3"/>
</g>
<defs>
<clipPath id="clip0">
<rect width="93.8" height="79.7" fill="white" transform="translate(42 17)"/>
</clipPath>
</defs>
</svg>
