<svg width="347" height="400" viewBox="0 0 347 400" fill="none" xmlns="http://www.w3.org/2000/svg">
<g clip-path="url(#clip0)">
<path d="M347 274.006C347 276.608 346.9 279.21 346.7 281.811C330.091 271.404 277.66 250.388 277.66 250.388C277.66 250.388 259.45 234.876 248.844 220.465C250.144 215.562 252.546 204.554 254.647 194.246C254.947 192.845 255.247 191.444 255.548 190.043C256.348 189.943 257.048 189.742 257.749 189.642C269.155 187.14 273.858 180.335 275.359 170.228C318.584 192.845 347 230.873 347 274.006Z" fill="#F2E6DC"/>
<path d="M320.685 273.305C321.886 274.206 341.397 289.217 342.297 292.119C343.198 294.921 335.393 321.041 330.691 328.646C330.591 328.847 330.39 329.047 330.29 329.247C315.582 352.264 291.968 371.378 262.852 383.888C277.16 367.676 284.564 341.056 284.564 341.056L275.559 309.132L296.171 304.228L300.473 281.011C295.871 268.201 285.164 259.294 285.164 259.294C282.863 256.192 280.362 253.19 277.66 250.388C277.66 250.388 330.09 271.403 346.7 281.811C346.6 283.112 346.5 284.513 346.3 285.814L320.685 273.305Z" fill="#8E867C"/>
<path d="M304.476 95.8718C317.283 99.7748 332.892 110.883 332.292 123.392C332.292 123.392 329.19 117.088 320.885 108.381C313.181 100.275 305.476 96.3722 304.476 95.8718Z" fill="#777069"/>
<path d="M314.882 147.711C313.481 148.411 268.355 169.427 181.905 169.427V132.9C210.722 132.9 237.337 128.697 253.947 121.791C269.856 115.186 277.46 109.082 277.56 106.78C277.66 104.478 266.954 102.577 266.954 102.577H266.754C266.154 97.9736 265.353 92.9698 264.553 87.866C264.453 87.2656 264.353 86.565 264.253 85.9646L266.654 85.8645C337.695 90.568 344.999 121.591 330.291 139.705C321.586 150.413 306.977 161.221 275.459 168.226C274.659 168.426 273.858 168.526 273.158 168.727C268.855 169.627 264.253 170.528 259.25 171.229C239.338 174.331 214.124 176.132 181.905 176.132V172.83C260.551 173.03 295.171 160.921 314.882 147.711ZM332.292 123.393C332.892 110.883 317.283 99.7749 304.476 95.872H304.376C304.376 95.872 304.376 95.872 304.476 95.872C305.376 96.3724 313.181 100.275 320.885 108.381C329.19 117.088 332.292 123.393 332.292 123.393Z" fill="#8E867C"/>
<path d="M292.469 300.525C295.871 288.416 297.672 280.21 297.672 280.21C297.672 280.21 292.869 269.802 285.064 259.294C285.064 259.294 295.771 268.201 300.373 281.011L296.171 304.228L275.559 309.032L284.564 340.956C284.564 340.956 277.16 367.676 262.852 383.788C260.45 384.789 257.949 385.789 255.447 386.79C265.453 375.482 274.358 355.567 281.362 335.952C281.262 335.652 269.956 307.531 269.956 307.531L276.559 305.529L292.469 300.525Z" fill="#EDE2D2"/>
<path d="M181.905 169.527C268.355 169.527 313.481 148.411 314.882 147.811C295.171 161.021 260.451 173.13 181.905 173.13V169.527Z" fill="#777069"/>
<path d="M266.954 102.677C266.954 102.677 277.761 104.478 277.56 106.88C277.46 109.182 269.856 115.286 253.947 121.891C237.337 128.797 210.722 133 181.905 133V129.497C247.743 129.497 267.555 109.382 267.555 109.382C267.355 107.28 267.154 105.079 266.854 102.777L266.954 102.677Z" fill="#777069"/>
<path d="M250.944 268.201L276.659 305.329L270.055 307.331C263.151 289.717 251.645 269.502 250.944 268.201Z" fill="#EDE2D2"/>
<path d="M275.259 170.128C273.858 180.235 269.055 187.04 257.648 189.542C257.648 189.542 266.353 182.837 268.355 180.235C273.057 174.231 273.057 168.927 273.057 168.927C273.858 168.726 274.658 168.626 275.359 168.426C275.459 169.027 275.359 169.627 275.259 170.128Z" fill="#777069"/>
<path d="M273.157 168.927C273.157 168.927 273.157 174.231 268.454 180.235C266.453 182.837 257.748 189.542 257.748 189.542C257.048 189.642 256.347 189.842 255.547 189.943C256.948 183.338 258.048 177.533 258.749 174.231C259.149 172.429 259.349 171.429 259.349 171.429C264.252 170.728 268.855 169.827 273.157 168.927Z" fill="#9B9183"/>
<path d="M191.511 95.6717C232.735 94.2706 256.648 84.063 263.352 80.8606C263.552 81.9614 263.752 83.1623 263.953 84.2631C256.548 88.7665 245.842 91.9689 232.835 94.4708C232.835 94.4708 246.543 97.4731 264.653 87.9659C265.553 93.0698 266.254 98.0735 266.854 102.677C267.154 104.979 267.355 107.18 267.555 109.282C267.555 109.282 247.843 129.397 181.905 129.397V95.8719C185.207 95.8719 188.409 95.8718 191.511 95.6717Z" fill="#8E867C"/>
<path d="M264.253 86.0645C264.353 86.665 264.453 87.3655 264.553 87.966C246.442 97.373 232.734 94.4708 232.734 94.4708C245.742 91.969 256.548 88.7666 263.852 84.2632C264.052 84.8636 264.153 85.4641 264.253 86.0645Z" fill="#777069"/>
<path d="M262.451 76.3572C262.751 77.8583 263.051 79.3594 263.252 80.8606C256.648 84.163 232.634 94.2706 191.41 95.6717C235.335 91.2684 251.545 82.3617 262.451 76.3572Z" fill="#777069"/>
<path d="M235.236 11.5085C235.736 12.0089 244.441 19.7147 246.442 27.7207C248.544 36.0269 254.347 64.7484 254.347 64.7484L250.845 25.6191C250.845 25.6191 247.943 18.2135 235.236 11.5085ZM253.447 22.5168C254.747 37.4279 258.95 57.543 262.452 76.3571C251.545 82.3616 235.236 91.1682 191.411 95.6716C188.309 95.7717 185.107 95.8718 181.905 95.8718V21.9163C211.522 21.9163 213.624 4.50325 213.624 4.50325C207.42 8.90655 200.816 12.8095 181.905 12.8095V10.5078C185.808 10.7079 191.711 10.6078 198.515 8.60633C206.319 6.3046 211.923 2.60182 215.224 0.0999462C220.728 -0.100204 227.632 0.099947 241.039 9.80723C246.943 14.0104 250.945 18.814 253.447 22.5168Z" fill="#8E867C"/>
<path d="M259.25 171.428C259.25 171.428 259.05 172.429 258.649 174.231C258.649 174.231 254.047 185.539 250.645 196.447C246.342 198.349 242.04 198.549 229.933 198.749C214.224 199.049 209.821 202.152 203.618 202.352C197.414 202.552 190.61 195.146 181.905 195.146V176.332C214.124 176.332 239.438 174.531 259.25 171.428Z" fill="#777069"/>
<path d="M258.649 174.231C258.049 177.533 256.848 183.438 255.447 189.942C255.147 191.344 254.847 192.745 254.547 194.146C253.146 195.046 251.845 195.847 250.645 196.347C254.147 185.639 258.649 174.231 258.649 174.231Z" fill="#8E867C"/>
<path d="M250.844 25.6191L254.346 64.7485C254.346 64.7485 248.543 36.0269 246.442 27.7207C244.341 19.7147 235.736 11.9088 235.235 11.5085C247.943 18.2136 250.844 25.6191 250.844 25.6191Z" fill="#777069"/>
<path d="M250.644 196.447C251.945 195.847 253.146 195.146 254.546 194.246C252.345 204.553 250.044 215.562 248.743 220.465C248.043 223.267 245.241 227.971 241.339 233.375C238.637 237.078 235.535 241.181 232.033 245.284C225.53 252.99 218.225 260.795 211.722 266.5C212.822 265.399 222.728 255.391 231.433 241.881C240.538 227.571 245.241 219.965 247.542 207.956C248.243 204.653 249.343 200.55 250.644 196.447Z" fill="#F9FBFC"/>
<path d="M195.113 276.307C189.91 277.508 184.507 277.708 181.905 277.708V250.588C188.909 250.588 197.214 245.484 197.814 245.184C197.414 245.184 192.611 245.784 181.905 245.784V238.179C196.013 238.179 209.421 236.277 209.421 236.277C202.217 236.177 190.71 233.175 188.909 233.275C187.108 233.375 181.905 236.878 181.905 236.878V221.766C187.809 221.766 190.41 219.465 191.611 217.263C199.015 215.662 199.816 210.758 199.816 210.758C198.515 212.459 196.914 213.76 192.611 213.56C192.611 213.56 188.709 218.964 181.905 218.964V194.946C190.61 194.946 197.414 202.352 203.618 202.152C209.821 201.952 214.224 198.849 229.933 198.549C242.04 198.349 246.442 198.149 250.645 196.247C249.344 200.35 248.143 204.453 247.543 207.756C245.242 219.765 240.639 227.371 231.434 241.681C222.829 255.191 212.823 265.199 211.722 266.3C211.622 266.3 211.622 266.4 211.622 266.4C207.42 270.103 203.718 272.905 200.816 274.206C199.115 275.206 197.114 275.807 195.113 276.307ZM200.516 210.958C206.519 212.459 213.624 222.467 214.624 230.273C214.724 231.774 214.724 232.675 214.724 232.675C214.724 231.874 214.724 231.073 214.624 230.273C214.424 227.371 213.924 222.267 212.523 218.264C210.822 213.36 202.917 211.459 200.516 210.958Z" fill="#EDE2D2"/>
<path d="M241.339 233.375C242.24 243.082 242.14 256.392 241.439 271.404C240.739 276.207 239.839 280.911 238.838 285.114C235.636 299.224 231.734 309.132 231.734 309.132C224.43 299.024 214.024 290.118 206.119 284.113C203.217 281.911 200.616 280.11 198.715 278.809C213.123 274.306 221.328 262.897 232.134 245.284C235.536 241.081 238.738 237.078 241.339 233.375Z" fill="#F9FBFC"/>
<path d="M231.733 309.032C231.733 309.032 235.636 299.124 238.838 285.014C238.537 287.616 227.831 370.178 218.226 396.898C215.024 397.398 211.822 397.898 208.62 398.299C208.62 398.299 204.418 355.867 203.017 339.855C201.616 323.843 194.012 303.327 194.012 303.327L201.016 290.118L203.017 287.716C203.017 287.816 220.627 298.624 231.733 309.032Z" fill="#F9FBFC"/>
<path d="M211.822 266.5C218.326 260.796 225.63 252.89 232.134 245.284C221.427 262.897 213.223 274.206 198.714 278.809C196.613 277.408 195.212 276.507 195.112 276.407C197.113 275.907 199.115 275.306 200.916 274.506C203.817 273.005 207.62 270.203 211.822 266.5C211.722 266.5 211.822 266.5 211.822 266.5Z" fill="#8E867C"/>
<path d="M212.523 218.364C213.923 222.367 214.424 227.371 214.624 230.373C213.623 222.467 206.519 212.559 200.516 211.058C202.917 211.459 210.822 213.36 212.523 218.364Z" fill="#8E867C"/>
<path d="M213.723 4.50342C213.723 4.50342 211.622 21.9165 182.005 21.9165V12.8096C200.916 12.8096 207.42 8.90672 213.723 4.50342Z" fill="#777069"/>
<path d="M209.421 236.277C209.421 236.277 196.013 238.179 181.905 238.179V236.878C181.905 236.878 187.108 233.475 188.909 233.275C190.71 233.175 202.217 236.177 209.421 236.277Z" fill="#8E867C"/>
<path d="M199.815 210.858C199.815 210.858 199.015 215.762 191.61 217.363C192.611 215.462 192.611 213.76 192.611 213.76C196.913 213.86 198.614 212.559 199.815 210.858Z" fill="#8E867C"/>
<path d="M195.113 276.307C195.313 276.407 196.614 277.308 198.715 278.709C193.912 280.21 188.409 281.011 181.905 281.011V277.808C184.407 277.808 189.81 277.508 195.113 276.307Z" fill="#8E867C"/>
<path d="M181.905 245.884C192.511 245.884 197.414 245.284 197.814 245.284C197.314 245.584 188.909 250.688 181.905 250.688V245.884Z" fill="#8E867C"/>
<path d="M191.611 217.363C190.41 219.565 187.709 221.866 181.905 221.866V219.164C188.709 219.164 192.611 213.76 192.611 213.76C192.611 213.76 192.711 215.462 191.611 217.363Z" fill="#8E867C"/>
<path d="M16.8096 274.006C16.8096 276.608 16.9096 279.21 17.1097 281.811C33.7193 271.404 86.1495 250.388 86.1495 250.388C86.1495 250.388 104.36 234.876 114.966 220.465C113.665 215.562 111.264 204.554 109.163 194.246C108.863 192.845 108.562 191.444 108.262 190.043C107.462 189.943 106.761 189.742 106.061 189.642C94.6544 187.14 89.9517 180.335 88.4509 170.228C45.226 192.845 16.8096 230.873 16.8096 274.006Z" fill="#F2E6DC"/>
<path d="M43.1244 273.305C41.9237 274.206 22.4124 289.217 21.5119 292.119C20.6114 294.921 28.4159 321.041 33.1186 328.646C33.2187 328.847 33.4188 329.047 33.5188 329.247C48.2273 352.264 71.8409 371.378 100.958 383.888C86.6495 367.676 79.2452 341.056 79.2452 341.056L88.2504 309.132L67.6385 304.228L63.336 281.011C67.9387 268.201 78.6448 259.294 78.6448 259.294C80.9462 256.192 83.4476 253.19 86.1492 250.388C86.1492 250.388 33.7189 271.403 17.1094 281.811C17.2094 283.112 17.3095 284.513 17.5096 285.814L43.1244 273.305Z" fill="#8E867C"/>
<path d="M59.3338 95.8718C46.5264 99.7748 30.9174 110.883 31.5178 123.392C31.5178 123.392 34.6196 117.088 42.9244 108.381C50.6288 100.275 58.4333 96.3722 59.3338 95.8718Z" fill="#777069"/>
<path d="M99.2577 87.9659C99.3577 87.3654 99.4578 86.6649 99.5578 86.0645H97.1564C26.1155 90.768 18.8113 121.791 33.5198 139.905C42.2248 150.613 56.8332 161.421 88.3514 168.426C89.1518 168.626 89.9523 168.726 90.6527 168.927C94.9552 169.827 99.5578 170.728 104.561 171.428C124.472 174.531 149.687 176.332 181.905 176.332V173.03C103.36 173.03 68.64 160.921 48.9286 147.711C50.3295 148.411 95.4555 169.427 181.905 169.427V132.9C153.089 132.9 126.473 128.696 109.864 121.791C93.9546 115.186 86.3502 109.082 86.2502 106.78C86.1501 104.478 96.8563 102.577 96.8563 102.577H97.0564C97.5567 98.0735 98.3571 93.1698 99.2577 87.9659ZM31.5186 123.392C30.9183 110.883 46.5273 99.7747 59.3346 95.8718H59.4347C59.4347 95.8718 59.4347 95.8718 59.3346 95.8718C58.4341 96.3722 50.6296 100.275 42.9252 108.381C34.6204 117.088 31.5186 123.392 31.5186 123.392Z" fill="#8E867C"/>
<path d="M71.3411 300.525C67.9391 288.416 66.1381 280.21 66.1381 280.21C66.1381 280.21 70.9408 269.802 78.7453 259.294C78.7453 259.294 68.0392 268.201 63.4365 281.011L67.739 304.228L88.3509 309.032L79.3457 340.956C79.3457 340.956 86.75 367.676 101.058 383.788C103.46 384.789 105.961 385.789 108.462 386.79C98.4567 375.482 89.5516 355.567 82.5475 335.952C82.6476 335.652 93.9541 307.531 93.9541 307.531L87.3503 305.529L71.3411 300.525Z" fill="#EDE2D2"/>
<path d="M181.904 169.527C95.4545 169.527 50.3285 148.411 48.9277 147.811C68.6391 161.021 103.359 173.13 181.904 173.13V169.527Z" fill="#777069"/>
<path d="M96.8559 102.677C96.8559 102.677 86.0497 104.478 86.2498 106.88C86.3499 109.182 93.9543 115.286 109.863 121.891C126.473 128.797 153.088 133 181.905 133V129.497C116.067 129.497 96.2556 109.382 96.2556 109.382C96.4557 107.28 96.6558 105.079 96.956 102.777L96.8559 102.677Z" fill="#777069"/>
<path d="M112.865 268.201L87.1504 305.329L93.7542 307.331C100.758 289.717 112.165 269.502 112.865 268.201Z" fill="#EDE2D2"/>
<path d="M88.5507 170.128C89.9515 180.235 94.7543 187.04 106.161 189.542C106.161 189.542 97.4558 182.837 95.4547 180.235C90.752 174.231 90.7519 168.927 90.7519 168.927C89.9515 168.726 89.151 168.626 88.4506 168.426C88.3506 169.027 88.4506 169.627 88.5507 170.128Z" fill="#777069"/>
<path d="M285.164 259.294C282.863 256.192 280.361 253.19 277.66 250.388C277.66 250.388 259.449 234.876 248.843 220.465C248.143 223.267 245.341 227.971 241.439 233.375C242.339 243.082 242.239 256.392 241.539 271.404C239.538 316.037 232.133 375.081 227.431 395.196C227.931 395.096 228.531 394.996 229.032 394.796C236.536 393.095 243.84 390.993 250.944 388.491C252.545 387.991 254.046 387.391 255.547 386.79C265.553 375.482 274.458 355.567 281.462 335.952C281.362 335.652 270.055 307.531 270.055 307.531C263.151 289.817 251.745 269.602 250.944 268.401L276.659 305.529L292.568 300.625C295.87 288.516 297.771 280.31 297.771 280.31C297.771 280.31 292.868 269.802 285.164 259.294Z" fill="#8E867C"/>
<path d="M122.47 233.375C118.568 227.971 115.766 223.267 115.066 220.465C104.46 234.876 86.2493 250.388 86.2493 250.388C83.5477 253.19 81.0463 256.292 78.745 259.294C70.9405 269.802 66.1377 280.21 66.1377 280.21C66.1377 280.21 68.0388 288.416 71.3407 300.525L87.2499 305.429L112.965 268.301C112.264 269.602 100.758 289.717 93.8537 307.431C93.8537 307.431 82.5472 335.552 82.4471 335.852C89.4511 355.467 98.3563 375.381 108.362 386.69C109.863 387.29 111.464 387.791 112.965 388.391C119.969 390.893 127.273 392.995 134.877 394.696C135.378 394.796 135.978 394.896 136.478 395.096C131.776 374.981 124.371 315.937 122.37 271.303C121.67 256.392 121.57 243.082 122.47 233.375Z" fill="#8E867C"/>
<path d="M90.6523 168.927C90.6523 168.927 90.6523 174.231 95.3551 180.235C97.3562 182.837 106.061 189.542 106.061 189.542C106.762 189.642 107.462 189.842 108.262 189.943C106.862 183.338 105.761 177.533 105.061 174.231C104.66 172.429 104.46 171.429 104.46 171.429C99.6575 170.728 94.9548 169.827 90.6523 168.927Z" fill="#9B9183"/>
<path d="M172.399 95.6717C131.176 94.2706 107.262 84.063 100.558 80.8606C100.358 81.9614 100.158 83.1623 99.9575 84.2631C107.362 88.7665 118.068 91.9689 131.075 94.4708C131.075 94.4708 117.368 97.4731 99.2571 87.9659C98.3566 93.0698 97.6562 98.0735 97.0559 102.677C96.7557 104.979 96.5556 107.18 96.3555 109.282C96.3555 109.282 116.067 129.397 182.005 129.397V95.8719C178.603 95.8719 175.401 95.8718 172.399 95.6717Z" fill="#8E867C"/>
<path d="M99.557 86.0645C99.457 86.665 99.3569 87.3655 99.2568 87.966C117.367 97.373 131.075 94.4708 131.075 94.4708C118.068 91.969 107.362 88.7666 99.9572 84.2632C99.7571 84.8636 99.6571 85.4641 99.557 86.0645Z" fill="#777069"/>
<path d="M101.358 76.3572C101.058 77.8583 100.758 79.3594 100.558 80.8606C107.161 84.163 131.175 94.2706 172.399 95.6717C128.574 91.2684 112.264 82.3617 101.358 76.3572Z" fill="#777069"/>
<path d="M128.574 11.5085C128.074 12.0089 119.369 19.7147 117.368 27.7207C115.266 36.0269 109.463 64.7484 109.463 64.7484L112.965 25.6191C112.965 25.6191 115.867 18.2135 128.574 11.5085ZM110.364 22.5168C109.063 37.4279 104.86 57.543 101.358 76.3571C112.265 82.3616 128.574 91.1682 172.399 95.6716C175.501 95.7717 178.703 95.8718 181.905 95.8718V21.9163C152.288 21.9163 150.187 4.50325 150.187 4.50325C156.39 8.90655 162.994 12.8095 181.905 12.8095V10.5078C178.003 10.7079 172.099 10.6078 165.295 8.60633C157.491 6.3046 151.888 2.60182 148.586 0.0999462C143.082 -0.100204 136.178 0.099947 122.771 9.80723C116.867 14.0104 112.965 18.814 110.364 22.5168Z" fill="#8E867C"/>
<path d="M104.561 171.428C104.561 171.428 104.761 172.429 105.161 174.231C105.161 174.231 109.764 185.539 113.166 196.447C117.468 198.349 121.77 198.549 133.877 198.749C149.586 199.049 153.989 202.152 160.193 202.352C166.396 202.552 173.2 195.146 181.905 195.146V176.332C149.687 176.332 124.472 174.531 104.561 171.428Z" fill="#777069"/>
<path d="M105.16 174.231C105.761 177.533 106.961 183.438 108.362 189.942C108.662 191.344 108.962 192.745 109.263 194.146C110.663 195.046 111.964 195.847 113.165 196.347C109.763 185.639 105.16 174.231 105.16 174.231Z" fill="#8E867C"/>
<path d="M112.965 25.6191L109.463 64.7485C109.463 64.7485 115.266 36.0269 117.367 27.7207C119.469 19.7147 128.074 11.9088 128.574 11.5085C115.867 18.2136 112.965 25.6191 112.965 25.6191Z" fill="#777069"/>
<path d="M113.165 196.447C111.864 195.847 110.664 195.146 109.263 194.246C111.464 204.553 113.765 215.562 115.066 220.465C115.766 223.267 118.568 227.971 122.47 233.375C125.172 237.078 128.274 241.181 131.776 245.284C138.279 252.99 145.584 260.795 152.087 266.5C150.987 265.399 141.081 255.391 132.376 241.881C123.271 227.571 118.568 219.965 116.267 207.956C115.566 204.653 114.466 200.55 113.165 196.447Z" fill="#F9FBFC"/>
<path d="M163.294 210.958C157.29 212.459 150.186 222.467 149.186 230.273C149.086 231.774 149.086 232.675 149.086 232.675C149.086 231.874 149.086 231.073 149.186 230.273C149.386 227.371 149.886 222.267 151.287 218.264C153.088 213.36 160.893 211.459 163.294 210.958ZM168.697 276.307C173.9 277.508 179.303 277.708 181.905 277.708V250.588C174.901 250.588 166.596 245.484 165.995 245.184C166.396 245.184 171.199 245.784 181.905 245.784V238.179C167.797 238.179 154.389 236.277 154.389 236.277C161.593 236.177 173.1 233.175 174.901 233.275C176.702 233.375 181.905 236.878 181.905 236.878V221.766C176.001 221.766 173.4 219.465 172.199 217.263C164.795 215.662 163.994 210.758 163.994 210.758C165.295 212.459 166.896 213.76 171.199 213.56C171.199 213.56 175.101 218.964 181.905 218.964V194.946C173.2 194.946 166.396 202.352 160.192 202.152C153.989 201.952 149.586 198.849 133.877 198.549C121.77 198.349 117.367 198.149 113.165 196.247C114.466 200.35 115.666 204.453 116.267 207.756C118.568 219.765 123.171 227.371 132.376 241.681C140.981 255.191 150.987 265.199 152.087 266.3C152.188 266.3 152.188 266.4 152.188 266.4C156.39 270.103 160.092 272.905 162.994 274.206C164.695 275.206 166.696 275.807 168.697 276.307Z" fill="#EDE2D2"/>
<path d="M122.471 233.375C121.57 243.082 121.67 256.392 122.371 271.404C123.071 276.207 123.972 280.911 124.972 285.114C128.174 299.224 132.076 309.132 132.076 309.132C139.38 299.024 149.786 290.118 157.691 284.113C160.593 281.911 163.194 280.11 165.095 278.809C150.687 274.306 142.482 262.897 131.676 245.284C128.274 241.081 125.072 237.078 122.471 233.375Z" fill="#F9FBFC"/>
<path d="M132.076 309.032C132.076 309.032 128.174 299.124 124.972 285.014C125.272 287.616 135.978 370.178 145.584 396.898C148.785 397.398 151.987 397.898 155.189 398.299C155.189 398.299 159.392 355.867 160.792 339.855C162.193 323.843 169.798 303.327 169.798 303.327L162.793 290.118L160.792 287.716C160.792 287.816 143.182 298.624 132.076 309.032Z" fill="#F9FBFC"/>
<path d="M151.987 266.5C145.484 260.796 138.18 252.89 131.676 245.284C142.382 262.897 150.587 274.206 165.095 278.809C167.196 277.408 168.597 276.507 168.697 276.407C166.696 275.907 164.695 275.306 162.894 274.506C159.992 273.005 156.19 270.203 151.987 266.5C152.088 266.5 152.088 266.5 151.987 266.5Z" fill="#C6BCB0"/>
<path d="M151.287 218.364C149.886 222.367 149.386 227.371 149.186 230.373C150.186 222.467 157.29 212.559 163.294 211.058C160.892 211.459 153.088 213.36 151.287 218.364Z" fill="#8E867C"/>
<path d="M150.187 4.50342C150.187 4.50342 152.288 21.9165 181.905 21.9165V12.8096C162.894 12.8096 156.39 8.90672 150.187 4.50342Z" fill="#777069"/>
<path d="M154.389 236.277C154.389 236.277 167.796 238.179 181.905 238.179V236.878C181.905 236.878 176.702 233.475 174.901 233.275C173.099 233.175 161.593 236.177 154.389 236.277Z" fill="#8E867C"/>
<path d="M238.837 285.014C238.537 287.616 227.831 370.178 218.226 396.898C221.327 396.397 224.329 395.797 227.331 395.096C232.034 374.981 239.438 315.937 241.439 271.303C240.739 276.207 239.838 280.811 238.837 285.014Z" fill="#8E867C"/>
<path d="M194.011 303.327L201.015 290.118L203.016 287.716C203.016 287.716 220.627 298.524 231.733 308.932C224.429 298.824 214.023 289.917 206.118 283.913C203.217 281.711 200.615 279.91 198.714 278.609C193.911 280.11 188.408 280.911 181.904 280.911V302.727V399.9C184.406 399.9 187.007 399.9 189.509 399.8C193.011 399.7 196.513 399.5 200.015 399.199C201.215 399.099 202.416 398.999 203.617 398.899C205.318 398.699 206.919 398.499 208.62 398.299C208.62 398.299 204.417 355.867 203.016 339.855C201.716 323.843 194.011 303.327 194.011 303.327Z" fill="#8E867C"/>
<path d="M122.37 271.303C124.371 315.937 131.776 374.981 136.478 395.096C139.48 395.797 142.582 396.397 145.583 396.898C135.978 370.178 125.272 287.616 124.972 285.014C123.971 280.811 123.071 276.207 122.37 271.303Z" fill="#8E867C"/>
<path d="M157.691 284.013C149.786 290.017 139.38 298.824 132.076 309.032C143.183 298.624 160.793 287.816 160.793 287.816L162.794 290.218L169.798 303.428C169.798 303.428 162.194 323.943 160.793 339.955C159.492 355.967 155.189 398.399 155.189 398.399C156.79 398.599 158.491 398.799 160.192 398.999C161.393 399.099 162.594 399.199 163.794 399.299C167.296 399.6 170.798 399.8 174.3 399.9C176.802 400 179.303 400 181.905 400V302.827V281.011C175.401 281.011 169.898 280.21 165.095 278.709C163.194 280.01 160.593 281.811 157.691 284.013Z" fill="#8E867C"/>
<path d="M163.994 210.858C163.994 210.858 164.795 215.762 172.199 217.363C171.198 215.462 171.198 213.76 171.198 213.76C166.896 213.86 165.295 212.559 163.994 210.858Z" fill="#8E867C"/>
<path d="M168.697 276.307C168.497 276.407 167.196 277.308 165.095 278.709C169.897 280.21 175.401 281.011 181.904 281.011V277.808C179.403 277.808 174 277.508 168.697 276.307Z" fill="#8E867C"/>
<path d="M181.905 245.884C171.299 245.884 166.396 245.284 165.996 245.284C166.496 245.584 174.901 250.688 181.905 250.688V245.884Z" fill="#8E867C"/>
<path d="M172.199 217.363C173.4 219.565 176.101 221.866 181.905 221.866V219.164C175.101 219.164 171.199 213.76 171.199 213.76C171.199 213.76 171.099 215.462 172.199 217.363Z" fill="#8E867C"/>
<path d="M156.29 237.278C159.792 238.879 158.792 241.781 165.796 241.781C172.8 241.781 180.104 240.68 180.104 240.68L197.114 238.779L207.62 236.677L207.22 236.477C207.22 236.477 194.913 238.179 181.905 238.179C168.898 238.179 154.689 236.277 154.689 236.277L156.29 237.278Z" fill="#8E867C"/>
<path d="M193.712 239.179C190.81 239.179 186.908 239.179 182.905 239.079C175.001 238.979 168.797 238.679 155.59 236.477H155.489H154.789L156.19 237.378C159.692 238.979 158.691 241.881 165.695 241.881C172.699 241.881 180.004 240.781 180.004 240.781L193.712 239.179Z" fill="#777069"/>
<path d="M186.608 226.67C188.809 224.368 193.112 225.169 197.614 227.27C202.117 229.372 211.122 232.675 210.722 233.675C210.522 234.176 208.32 233.775 207.92 233.775C205.819 233.675 203.818 233.375 201.817 233.075C199.415 232.775 197.014 232.474 194.712 231.974C192.811 231.674 190.71 231.374 188.909 230.673C187.708 230.173 185.207 228.171 186.608 226.67Z" fill="#8E867C"/>
<path d="M177.202 226.67C175.001 224.368 170.698 225.169 166.196 227.27C161.693 229.372 152.688 232.675 153.088 233.675C153.288 234.176 155.489 233.775 155.89 233.775C157.991 233.675 159.992 233.375 161.993 233.075C164.395 232.775 166.796 232.474 169.097 231.974C170.998 231.674 173.1 231.374 174.901 230.673C176.201 230.173 178.603 228.171 177.202 226.67Z" fill="#8E867C"/>
<path d="M168.698 240.68C175.502 241.281 201.216 238.279 209.421 236.277C209.421 236.277 202.317 239.279 191.611 239.88C181.005 240.48 167.297 243.683 167.297 243.683L168.698 240.68Z" fill="#777069"/>
<path d="M154.389 236.277C154.389 236.277 156.99 238.679 160.392 241.181L161.793 240.18L155.589 236.477L154.389 236.277Z" fill="#777069"/>
<path d="M174.701 249.487C181.005 248.887 195.013 247.285 195.413 248.386C195.713 249.587 187.008 253.19 182.205 253.19C177.303 253.19 174.701 249.487 174.701 249.487Z" fill="#8E867C"/>
<path d="M205.418 236.077C206.218 235.677 209.32 235.777 209.921 236.277C210.521 236.778 213.423 240.18 211.622 240.38C210.821 240.48 205.418 236.077 205.418 236.077Z" fill="#777069"/>
<path d="M158.491 236.077C157.691 235.677 154.589 235.777 153.989 236.277C153.388 236.778 150.487 240.18 152.288 240.38C152.988 240.48 158.491 236.077 158.491 236.077Z" fill="#777069"/>
<path d="M168.897 241.881C168.097 244.083 145.784 263.498 140.181 268.902C138.78 270.303 137.879 271.103 137.879 271.103C137.779 271.103 133.577 271.103 130.775 267.2C127.873 263.297 129.675 261.296 129.675 261.296L131.175 260.195L162.894 236.477C166.196 235.376 169.798 239.179 168.897 241.881Z" fill="#8E867C"/>
<path d="M140.18 269.002C138.78 270.403 137.879 271.203 137.879 271.203C137.779 271.203 133.577 271.203 130.775 267.3C128.073 263.598 129.474 261.696 129.674 261.396L131.175 260.295C134.377 259.495 139.88 265.699 140.18 269.002Z" fill="#F9FBFC"/>
<path d="M137.879 271.203C137.779 271.203 133.577 271.203 130.775 267.3C128.073 263.598 129.474 261.696 129.674 261.396C130.675 260.696 133.977 262.397 135.578 264.799C137.279 267.1 138.68 270.002 137.879 271.203Z" fill="#F2E6DC"/>
<path d="M168.698 240.68L140.081 264.598C140.081 264.598 140.882 265.799 140.681 267.1L168.597 242.282L169.498 240.68H168.698Z" fill="#6D655D"/>
<path d="M134.678 259.295L162.694 238.179L137.379 260.596L134.678 259.295Z" fill="#F9FBFC"/>
<path d="M113.265 249.887C108.463 245.984 104.56 240.681 103.56 234.476C102.459 227.471 105.261 220.565 106.762 213.66C108.262 206.755 108.062 198.449 102.559 193.945C96.0554 188.541 84.849 191.143 79.3458 184.739C75.5436 180.235 76.344 173.43 78.5453 167.926C80.7466 162.422 83.9484 157.118 84.2486 151.213C84.6488 143.908 80.3464 136.903 74.443 132.499C68.6396 128.096 61.4355 125.694 54.3314 123.893C48.9282 122.492 43.225 121.191 38.8224 117.788C37.6217 116.888 36.6212 115.787 35.7206 114.586C37.0214 117.888 39.1226 120.791 41.624 123.192C44.3256 125.894 47.4274 128.096 50.9294 129.697C54.7316 131.599 58.934 132.7 62.8363 134.501C66.7385 136.302 70.4407 138.904 72.3417 142.707C74.6431 147.31 73.9427 153.015 71.9415 157.818C72.2417 154.016 70.0404 150.413 67.1387 148.011C60.7351 142.707 50.6292 139.905 42.5246 138.404C38.9225 137.703 35.2203 137.303 31.9184 135.602C28.7166 133.9 26.015 130.398 26.5153 126.795C24.8143 133.8 26.2152 141.306 29.417 147.811C31.5182 152.014 34.2198 155.917 37.3216 159.42C40.3233 162.822 42.9248 164.523 46.727 166.625C53.5309 170.428 61.8357 173.03 65.6379 180.435C67.3389 183.838 67.8391 187.841 70.1405 190.843C72.5419 193.945 76.244 195.347 79.9461 196.848C82.4476 197.648 84.849 198.749 86.8501 200.45C84.849 198.849 82.3475 197.848 79.9461 196.848C75.2434 195.447 70.0404 195.246 65.0375 195.246C56.7327 195.347 47.7276 195.547 41.0237 190.643C34.9202 186.14 32.4187 178.734 29.5171 171.529C27.1157 167.526 23.5136 164.223 19.1111 162.822C13.2077 160.921 6.10356 162.822 2.60154 167.926C0.200158 171.328 -0.300131 175.732 -0.200073 179.835C-0.100015 184.138 0.600388 188.541 2.60154 192.344C5.60327 197.748 11.0064 201.351 16.9098 203.252C28.2163 207.055 42.4245 207.456 54.2313 207.055C57.3331 206.955 60.5349 206.755 63.6367 206.655C70.1405 206.455 77.7449 206.455 83.4482 209.857C91.6529 214.761 88.2509 226.27 88.451 234.176C88.5511 239.58 89.3515 245.184 92.5534 249.687C98.6569 258.194 110.063 262.797 120.269 263.498C123.871 263.698 127.974 262.897 128.974 259.094C123.571 256.392 117.968 253.79 113.265 249.887Z" fill="#D3D3D3"/>
<path d="M71.4411 213.06C71.8413 213.16 72.2415 213.16 72.6418 213.26C74.843 213.66 77.0443 214.361 78.5452 215.962C80.8465 218.264 81.2467 221.466 81.4468 224.568C81.6469 228.071 81.6469 231.774 83.448 234.776C82.9477 233.975 81.8471 233.275 81.2467 232.474C80.5463 231.474 80.1461 230.273 79.6458 229.172C78.7453 226.87 78.1449 224.468 76.9442 222.267C73.9425 216.963 67.1386 216.562 61.6354 217.563C57.0328 218.464 52.4301 219.965 47.8274 221.166C42.9246 222.367 37.8217 223.067 32.7187 223.367C30.3174 223.568 27.7159 223.568 25.7147 222.267C24.0137 221.166 22.9131 219.264 22.9131 217.263C22.9131 212.86 25.5146 212.459 28.9165 213.06C34.7199 214.161 40.6233 213.96 46.5267 213.76C50.8292 213.66 55.1317 213.46 59.3341 213.16C63.4365 212.86 67.4388 212.359 71.4411 213.06Z" fill="#D3D3D3"/>
</g>
<defs>
<clipPath id="clip0">
<rect width="347" height="400" fill="white"/>
</clipPath>
</defs>
</svg>
