<svg width="24" height="26" viewBox="0 0 24 26" fill="none" xmlns="http://www.w3.org/2000/svg">
<g clip-path="url(#clip0)">
<path d="M12 0C5.38322 0 0 5.66327 0 12.6243C0 19.5853 5.38322 25.2486 12 25.2486C18.6168 25.2486 24 19.5853 24 12.6243C24 5.66327 18.6168 0 12 0ZM12 23.25C6.43059 23.25 1.89975 18.4831 1.89975 12.6243C1.89975 6.76548 6.43059 1.99858 12 1.99858C17.5691 1.99858 22.1003 6.76582 22.1003 12.6246C22.1003 18.4834 17.5691 23.25 12 23.25Z" fill="white"/>
<path d="M12.0001 14.8643C8.62529 14.8643 5.46761 16.6446 3.10938 19.877L4.6165 21.0935C6.60709 18.3654 9.22937 16.8628 12.0001 16.8628C14.7709 16.8628 17.3932 18.3654 19.3835 21.0935L20.8906 19.877C18.5324 16.6446 15.375 14.8643 12.0001 14.8643Z" fill="white"/>
<path d="M11.9999 4.53003C9.27628 4.53003 7.06055 6.87602 7.06055 9.75959C7.06055 12.6432 9.27628 14.9892 11.9999 14.9892C14.7234 14.9892 16.9392 12.6432 16.9392 9.75964C16.9392 6.87607 14.7234 4.53003 11.9999 4.53003ZM11.9999 12.9906C10.324 12.9906 8.9603 11.5413 8.9603 9.75959C8.9603 7.97784 10.324 6.52856 11.9999 6.52856C13.6757 6.52856 15.0394 7.97818 15.0394 9.75959C15.0394 11.541 13.6757 12.9906 11.9999 12.9906Z" fill="white"/>
</g>
<defs>
<clipPath id="clip0">
<rect width="24" height="25.2486" fill="white"/>
</clipPath>
</defs>
</svg>
