<svg width="16" height="16" viewBox="0 0 16 16" fill="none" xmlns="http://www.w3.org/2000/svg">
<g clip-path="url(#clip0)">
<path d="M13.3814 0H1.33814C0.60025 0 0 0.600432 0 1.33854V2.8117C0 3.37389 0.21869 3.90242 0.616308 4.2994L5.07269 8.75406C5.25009 8.93151 5.35255 9.17857 5.35255 9.43022V15.4888C5.35255 15.7129 5.48254 15.9164 5.6867 16.0097C5.76317 16.0457 5.84498 16.0625 5.92604 16.0625C6.06062 16.0625 6.19367 16.0151 6.29919 15.9241L8.44097 14.0876C8.90817 13.6883 9.1758 13.1055 9.1758 12.4905V9.44628C9.1758 9.18852 9.28209 8.93687 9.4679 8.75789L14.0764 4.3101C14.4848 3.91619 14.7187 3.36395 14.7187 2.7964V1.33854C14.7195 0.600432 14.1193 0 13.3814 0V0Z" fill="#F2E2D3"/>
</g>
<defs>
<clipPath id="clip0">
<rect width="16" height="16" fill="white"/>
</clipPath>
</defs>
</svg>
