<svg width="24" height="24" viewBox="0 0 24 24" fill="none" xmlns="http://www.w3.org/2000/svg">
<path d="M17.1605 15.1045H16.0776L15.6939 14.7344C17.1969 12.9832 17.963 10.7179 17.8313 8.41389C17.6997 6.10992 16.6805 3.94655 14.9878 2.378C13.2951 0.809447 11.0605 -0.0422888 8.75317 0.00161689C6.44585 0.0455226 4.24528 0.981654 2.61347 2.61347C0.981654 4.24528 0.0455226 6.44585 0.00161689 8.75317C-0.0422888 11.0605 0.809447 13.2951 2.378 14.9878C3.94655 16.6805 6.10992 17.6997 8.41389 17.8313C10.7179 17.963 12.9832 17.1969 14.7344 15.6939L15.1045 16.0776V17.1605L21.9577 24L24 21.9577L17.1605 15.1045ZM8.93656 15.1045C7.71666 15.1045 6.52415 14.7427 5.50984 14.065C4.49553 13.3873 3.70497 12.424 3.23814 11.2969C2.7713 10.1699 2.64916 8.92971 2.88715 7.73325C3.12514 6.53679 3.71258 5.43778 4.57518 4.57518C5.43778 3.71258 6.53679 3.12514 7.73325 2.88715C8.92971 2.64916 10.1699 2.7713 11.2969 3.23814C12.424 3.70497 13.3873 4.49553 14.065 5.50984C14.7427 6.52415 15.1045 7.71666 15.1045 8.93656C15.1056 9.74685 14.9468 10.5494 14.6372 11.2982C14.3276 12.047 13.8733 12.7274 13.3004 13.3004C12.7274 13.8733 12.047 14.3276 11.2982 14.6372C10.5494 14.9468 9.74685 15.1056 8.93656 15.1045Z" fill="#FCF5EF"/>
</svg>
