<svg width="407" height="1138" viewBox="0 0 407 1138" fill="none" xmlns="http://www.w3.org/2000/svg">
<g opacity="0.2" clip-path="url(#clip0_4411_2246)">
<path d="M303.048 527.073C285.429 534.12 271.333 548.917 260.057 563.715C248.781 580.626 243.143 598.947 241.029 618.677C238.914 636.998 239.619 656.728 241.733 675.049C242.438 684.209 244.552 693.369 247.371 701.825C249.486 709.576 253.714 715.213 258.648 721.555C259.352 722.26 260.057 721.555 259.352 720.851C255.829 714.509 253.714 706.053 252.305 698.302C250.19 689.846 249.486 680.686 248.781 672.23C248.076 655.319 248.781 637.702 250.895 620.791C253.009 601.766 259.352 584.854 269.219 568.647C279.086 553.145 293.181 541.871 305.162 528.483C305.867 527.778 305.162 526.369 303.048 527.073Z" fill="#F2E2D3"/>
<path d="M293.181 561.601C281.2 565.124 272.743 581.331 267.81 591.901C260.762 605.993 258.648 620.086 259.353 635.588C259.353 636.293 260.058 636.293 260.058 635.588C260.762 622.2 266.4 608.107 272.039 596.128C274.858 590.491 278.381 584.854 281.905 579.217C285.429 574.284 291.067 569.352 294.591 563.715C296 563.01 294.591 560.896 293.181 561.601Z" fill="#F2E2D3"/>
<path d="M501.086 401.647C511.657 392.487 521.524 382.622 531.391 372.757C533.505 369.938 536.324 367.824 538.438 365.005L539.848 362.891C540.553 362.187 541.258 361.482 541.962 360.778L545.486 355.845C547.6 352.322 550.419 348.799 552.534 345.275L556.058 339.638L559.581 334.001C565.219 324.841 570.857 314.976 575.086 304.406C577.2 299.474 580.019 293.836 581.429 288.199C583.543 282.562 584.953 276.925 586.362 271.992C587.772 266.355 589.181 260.718 589.886 255.081C590.591 249.444 591.296 243.807 591.296 238.874C591.296 233.237 591.296 228.304 590.591 223.372C590.591 220.553 589.886 218.439 589.181 215.621C588.477 212.802 587.772 210.688 587.067 208.574C585.658 204.347 584.248 200.119 581.429 196.596C580.019 194.482 579.315 192.368 577.905 190.958C576.496 188.844 575.086 187.435 573.677 186.026C567.334 179.684 559.581 175.456 551.829 176.161C544.781 176.865 538.438 179.684 532.8 184.617C532.096 185.321 531.391 186.026 530.686 186.73C530.686 181.093 529.981 174.752 528.572 169.819C527.867 164.182 525.753 159.954 525.048 156.431C523.638 152.203 522.229 147.27 520.115 143.043C518 138.815 515.886 134.587 513.067 131.064C505.315 121.199 496.153 112.038 489.105 101.469C482.058 90.1943 478.534 76.806 484.172 64.1224C488.4 54.2574 496.153 44.3924 506.724 41.5738C519.41 38.0506 527.162 42.9831 536.324 51.4389C537.029 52.1435 537.734 52.8481 538.438 53.5528L539.143 55.6667C539.848 57.7806 542.667 57.7806 544.077 55.6667C544.781 55.6667 544.781 54.9621 545.486 54.2574C546.191 53.5528 545.486 52.8481 544.781 52.8481C548.305 39.4599 543.372 28.1856 534.915 19.7299C526.458 11.2741 513.772 5.63699 501.791 2.81842C476.419 -2.81873 448.229 2.81842 429.2 22.5484C409.467 43.6878 402.419 71.8735 402.419 98.65C402.419 105.696 403.124 112.743 403.829 119.789C405.238 126.836 406.648 133.178 409.467 139.519C410.877 142.338 412.286 145.156 414.4 147.975C395.372 139.519 369.296 137.405 353.086 131.768C350.267 131.064 348.153 133.178 348.153 135.291C345.334 154.317 346.743 171.933 351.677 189.549C355.905 205.051 360.838 221.963 368.591 237.465L372.115 244.511C373.524 246.625 374.229 248.739 375.638 251.558L379.162 258.604C380.572 260.718 381.277 263.537 382.686 265.651L390.438 279.744C392.553 284.676 395.372 289.609 397.486 294.541C398.896 297.36 399.6 299.474 401.01 302.292C401.715 303.701 401.715 305.111 402.419 306.52C403.124 307.929 403.124 309.339 403.124 310.748C404.534 316.385 405.238 322.022 405.943 327.659C407.353 338.934 406.648 350.208 403.829 362.187C398.191 385.44 387.619 407.284 374.934 427.719C362.953 446.744 347.448 463.656 328.419 474.93C327.01 475.635 325.6 476.339 324.191 477.044L319.962 479.158L311.505 483.386C310.096 484.09 309.391 484.795 307.981 484.795C308.686 484.09 308.686 484.09 309.391 483.386C322.781 469.997 335.467 453.791 346.743 435.47C369.296 399.533 381.981 355.14 377.753 314.271C377.753 310.748 377.048 307.929 376.343 304.406C375.638 300.883 375.638 298.064 374.934 294.541C373.524 288.199 371.41 281.153 368.591 275.516C362.953 263.537 354.496 252.967 341.81 248.035C336.172 245.921 329.124 244.511 321.372 245.216C313.619 245.921 305.867 248.739 299.524 253.672C293.886 257.9 289.657 263.537 287.543 269.174C287.543 269.878 286.838 270.583 286.838 271.288C284.724 268.469 281.2 266.355 278.381 264.946C275.562 262.832 272.743 261.423 269.924 260.718C264.286 258.604 258.648 255.786 251.6 255.786C241.734 255.786 231.162 257.195 222 256.49C212.838 255.786 204.381 252.262 204.381 242.397C204.381 238.874 204.381 234.646 205.791 230.418C207.2 226.191 209.315 221.258 212.134 217.03C219.886 206.461 227.638 204.347 238.21 202.233C238.915 202.233 239.619 202.233 240.324 201.528C241.029 201.528 241.029 201.528 241.734 202.233C243.143 202.937 245.962 200.823 245.257 199.414C245.257 198.709 245.962 198.709 245.962 198.005C245.962 197.3 245.257 197.3 245.257 197.3C242.438 188.14 233.277 186.026 222.705 187.435C212.134 189.549 200.857 195.186 191.696 202.937C171.257 219.144 155.048 241.693 148 262.127C140.953 283.971 144.477 298.769 152.934 310.043C155.048 312.862 157.867 315.68 161.391 317.794C164.915 319.908 168.438 322.022 172.667 322.727C174.781 323.431 176.896 323.431 179.01 323.431C160.686 331.183 139.543 345.98 124.743 353.731C122.629 355.14 121.219 357.254 121.924 357.959C126.153 367.119 133.2 373.461 143.772 377.689C153.638 381.917 164.21 385.44 177.6 387.554C193.105 389.668 211.429 390.373 229.048 392.487C247.372 394.6 262.172 400.238 270.629 411.512C279.086 422.786 282.61 436.174 283.315 449.563C283.315 452.381 283.315 455.2 283.315 458.018C281.905 455.2 279.791 453.086 277.677 451.677C269.219 446.039 256.534 452.381 248.077 455.2C238.21 458.723 229.048 464.36 222.705 472.111C219.181 466.474 211.429 461.542 206.496 458.723C198.038 453.791 188.172 450.267 178.305 447.449C155.048 441.107 129.677 443.926 106.419 448.858C84.5718 452.381 63.4289 463.656 43.6956 477.748C33.8289 485.5 24.667 493.955 16.9146 504.525C13.3908 509.457 10.5718 515.095 8.45748 520.732C5.63843 527.074 1.40986 533.415 0.000335065 539.757C0.000335065 541.166 0.000335118 541.871 0.705097 542.576L0.000335065 543.28C-1.40919 544.69 0.705097 546.804 2.81938 546.099C13.3908 542.576 21.848 535.529 32.4194 531.301C43.6956 527.074 54.9718 527.074 66.9527 527.074C78.9337 527.074 90.9146 527.074 102.896 529.187C114.172 531.301 124.743 536.939 135.315 541.871C152.229 550.327 167.029 560.896 179.01 575.694C172.667 572.875 165.619 572.875 158.572 573.58C151.524 573.58 143.772 575.694 136.019 576.399C128.267 577.808 120.515 578.513 113.467 579.922C111.353 580.627 110.648 582.74 110.648 584.854C112.762 602.47 121.219 619.382 126.153 636.293C128.972 644.749 132.496 652.5 137.429 659.547C119.105 666.593 111.353 690.551 106.419 707.462C102.191 721.555 102.896 734.239 105.01 749.036C106.419 760.311 105.715 774.404 114.172 783.564C116.286 785.678 119.81 784.269 119.81 781.45C120.515 761.015 145.886 747.627 162.096 739.876C172.667 734.944 183.943 730.716 195.219 729.306C209.315 727.897 222 733.534 235.391 738.467C243.143 755.378 252.305 772.29 262.172 788.496C253.715 787.792 242.438 798.361 237.505 802.589C231.162 808.226 224.115 813.159 217.067 818.796C209.315 825.138 203.677 835.708 194.515 839.935C191.696 841.345 191.696 846.277 195.219 846.982C210.019 851.914 219.181 865.303 231.162 874.463C236.096 877.986 241.734 880.1 247.372 881.509C238.915 885.033 231.162 889.261 224.115 894.898C200.857 913.218 179.715 944.223 186.057 975.227C192.4 1005.53 220.591 1028.08 250.191 1033.71C267.105 1037.24 286.838 1037.24 302.343 1028.08C315.734 1020.32 324.896 1009.75 332.648 997.776C331.943 997.776 331.238 997.776 329.829 997.071H329.124C328.419 997.071 327.715 997.071 327.01 996.366C324.191 995.662 322.077 994.957 319.257 994.253C318.553 994.253 318.553 994.252 318.553 993.548C315.734 992.843 312.21 992.139 309.391 990.729C297.41 986.501 286.838 978.75 281.905 966.771C271.334 944.223 296 919.56 319.257 925.197C361.543 935.062 372.115 974.522 369.296 1013.28C367.181 1043.58 346.038 1065.42 320.667 1079.51C293.181 1095.02 260.762 1099.24 230.457 1092.2C219.181 1089.38 207.905 1085.86 198.038 1080.22C196.629 1079.51 195.219 1078.81 193.105 1077.4C193.105 1080.92 193.105 1083.74 193.105 1087.27C193.105 1087.27 193.105 1087.97 193.81 1087.97C195.924 1091.49 197.334 1095.72 198.038 1099.95C198.743 1100.65 200.153 1102.06 200.857 1102.77C220.591 1119.68 243.143 1132.36 269.924 1135.89C300.934 1140.11 334.057 1134.48 360.134 1116.86C379.867 1103.47 395.372 1083.74 405.943 1061.9C407.353 1066.13 409.467 1069.65 411.581 1073.17C417.924 1083.74 427.086 1092.2 437.657 1098.54C448.934 1106.29 461.619 1108.4 475.01 1110.52C489.81 1112.63 504.61 1119.68 519.41 1118.27C522.934 1118.27 524.343 1115.45 522.934 1112.63C504.61 1062.6 526.458 1009.05 517.296 958.316C514.477 944.927 509.543 931.539 501.791 919.56C503.905 917.446 506.019 914.628 507.429 913.218C511.658 907.581 514.477 901.944 517.296 895.602C521.524 885.737 524.343 875.872 526.457 866.007C527.162 860.37 527.162 854.733 528.572 849.8C529.981 845.573 531.391 841.345 532.096 837.117C533.505 831.48 532.8 826.547 528.572 823.024C525.753 820.91 522.229 820.205 519.41 819.501C515.181 818.092 510.248 816.682 506.019 815.273C497.562 812.454 488.4 811.75 479.238 812.454C477.124 812.454 475.01 813.159 472.896 813.159C470.781 813.159 468.667 813.159 466.553 813.159C465.848 813.159 465.143 813.864 464.438 813.864C463.734 813.864 463.029 813.864 462.324 813.864C461.619 811.045 461.619 807.522 460.915 804.703C456.686 781.45 448.229 759.606 444.705 737.057C444 734.239 440.477 732.125 438.362 734.239C419.334 746.218 398.896 755.378 379.162 765.243C364.362 772.29 351.677 783.564 343.219 796.952C338.286 804.703 336.172 812.454 334.762 820.91C334.762 818.091 334.762 815.978 334.762 813.159C334.762 804.703 334.762 796.248 335.467 787.087C336.877 777.222 341.81 768.062 348.153 760.311C353.086 753.969 360.134 749.036 365.067 742.695C365.772 742.695 366.477 742.695 366.477 741.99C366.477 741.285 367.181 741.285 367.181 740.581C367.181 740.581 367.181 740.581 367.181 739.876C367.886 727.897 314.324 703.939 299.524 718.737C294.591 687.028 294.591 653.909 304.457 623.61C310.096 606.698 318.553 590.491 330.534 577.808C341.81 565.829 356.61 557.373 372.819 563.715C385.505 568.648 394.667 585.559 395.372 598.947C396.077 612.335 389.734 623.61 379.867 631.361C367.181 642.635 348.153 646.863 331.238 646.863C327.01 646.863 324.896 650.386 325.6 653.909C324.191 655.319 324.191 657.433 325.6 658.842C343.924 683.505 370 706.053 402.419 706.053C434.134 706.758 463.029 684.209 479.943 658.842C496.857 633.475 500.381 601.766 489.81 573.58C479.943 546.099 458.8 524.255 434.838 508.753C415.81 496.069 393.257 487.613 370 485.5C391.848 474.93 412.991 463.656 434.838 450.267C457.391 437.584 479.943 420.672 501.086 401.647ZM288.248 508.753C285.429 509.457 283.315 509.457 280.496 510.162V509.457C281.905 507.344 283.315 505.23 285.429 503.82C286.838 503.116 287.543 502.411 288.953 501.706C288.953 503.82 288.953 506.639 289.657 508.753C288.953 508.048 288.248 508.048 288.248 508.753ZM284.724 481.272C284.724 480.567 284.724 480.567 284.724 481.272C285.429 481.976 285.429 483.386 286.134 484.09C286.838 487.613 287.543 491.137 288.248 495.365C279.086 502.411 268.515 508.048 257.943 510.867L257.238 510.162C256.534 508.753 257.238 507.344 257.943 505.934C258.648 504.525 260.057 503.116 261.467 501.706C262.877 500.297 264.991 499.592 266.4 498.183C267.81 496.774 269.924 496.069 270.629 494.66C272.038 493.251 274.153 491.841 275.562 490.432C276.972 489.023 279.086 487.613 280.496 486.204C281.2 485.5 281.905 484.795 282.61 484.09C283.315 482.681 284.019 481.976 284.724 481.272ZM293.181 436.879C291.067 425.605 287.543 413.626 279.791 404.466C271.334 395.305 260.057 388.259 244.553 385.44C226.229 382.622 207.2 381.917 191.696 379.803C178.305 377.689 166.324 374.87 155.753 370.643C145.181 366.415 137.429 360.778 132.496 353.731C144.477 347.389 156.457 339.638 168.438 334.001C182.534 326.955 194.515 324.136 207.905 322.727C210.019 322.727 210.724 317.09 210.724 317.09C209.315 314.976 205.791 314.271 202.267 314.271C198.743 314.271 194.515 314.976 190.991 314.976C186.057 314.976 181.829 314.271 177.6 312.862C174.077 311.452 170.553 309.339 168.438 306.52C159.277 297.36 152.229 284.676 157.162 266.355C159.277 257.195 163.505 248.035 169.848 238.874C176.191 229.714 183.943 220.553 193.105 212.802C201.562 205.756 212.134 198.005 222 196.596C226.229 195.891 230.457 196.596 233.277 197.3C231.162 198.005 229.753 198.005 227.638 199.414C220.591 203.642 213.543 209.279 209.315 216.326C204.381 224.077 201.562 231.828 200.153 238.874C199.448 245.921 200.153 251.558 203.677 256.49C207.905 262.127 215.657 264.946 225.524 264.946C233.981 264.946 244.553 264.241 253.01 265.651C257.238 266.355 260.762 267.765 264.286 269.174C267.81 270.583 271.334 272.697 274.153 274.811C276.972 276.925 278.381 279.039 279.791 281.857C281.2 284.676 282.61 287.495 284.019 289.609C284.724 291.018 288.248 291.018 289.657 288.904C291.067 286.79 292.477 285.381 293.181 283.267C293.886 282.562 293.886 281.857 294.591 281.153C296.705 275.516 296.705 269.878 301.638 264.241C307.277 257.195 315.734 253.672 323.486 253.672C327.715 253.672 331.238 253.672 334.762 255.081C338.286 255.786 341.105 257.195 343.924 259.309C349.562 262.832 353.791 267.765 357.315 273.402C358.724 276.22 360.838 279.039 362.248 281.857C363.658 284.676 365.067 288.199 365.772 291.018C370 303.701 370.705 317.794 370.705 331.183C370.705 370.643 356.61 410.807 335.467 443.221C324.896 459.428 312.915 474.225 300.229 486.204C299.524 486.909 298.115 487.613 297.41 488.318C296.705 486.204 296.705 483.386 296 481.272C296.705 480.567 297.41 479.862 298.115 479.158C299.524 477.044 301.638 474.93 303.048 472.816C305.867 468.588 307.981 463.656 310.096 458.723C314.324 448.858 316.438 438.288 317.848 427.719C319.962 407.284 317.143 386.145 310.096 367.119C303.048 348.094 292.477 330.478 277.677 316.385C269.924 309.339 262.172 302.997 253.01 298.769C244.553 294.541 235.391 289.609 224.819 288.904C224.115 288.904 222.705 290.313 223.41 290.313C227.638 292.427 232.572 294.541 236.8 296.655C241.734 298.769 245.962 300.883 250.191 303.701C257.943 308.634 265.696 314.271 272.743 321.317C286.134 335.41 297.41 351.617 303.753 369.938C310.8 388.963 313.619 409.398 312.21 429.833C311.505 434.061 311.505 438.993 310.8 443.221C310.096 447.449 309.391 452.381 307.981 456.609C307.277 458.723 306.572 460.837 305.867 462.951C305.162 465.065 303.753 467.179 303.048 469.293C301.638 471.407 300.934 473.521 299.524 474.93C298.819 476.339 297.41 477.044 296.705 477.748C296 474.225 295.296 470.702 293.886 467.179C294.591 458.018 294.591 447.449 293.181 436.879ZM136.724 533.415C126.153 528.483 114.877 522.846 103.6 520.732C90.9146 518.618 78.2289 518.618 65.5432 518.618C52.8575 518.618 41.5813 520.027 30.3051 524.255C25.3718 526.369 19.7337 528.483 14.0956 532.006C16.9146 526.369 19.0289 520.732 22.5527 515.799C28.8956 505.934 37.3527 497.478 46.5146 490.432C63.4289 474.93 84.5718 464.36 107.124 458.018C128.267 451.677 150.115 449.563 171.962 452.381C181.124 453.791 190.286 457.314 198.743 462.246C202.972 464.36 207.2 467.179 210.724 470.702C214.248 473.521 216.362 479.158 220.591 479.862C221.296 479.862 222 479.862 222.705 479.862H223.41C223.41 479.862 224.115 479.862 224.115 479.158C224.115 479.158 224.819 479.158 224.819 478.453C231.162 470.702 241.734 464.36 251.6 461.542C257.943 459.428 270.629 451.677 275.562 458.018C278.381 461.542 280.496 465.77 281.905 470.702C279.791 475.635 277.677 479.862 274.153 484.09C271.334 486.909 268.515 489.727 265.696 492.546C264.286 493.955 262.877 495.365 261.467 496.069C260.057 497.479 258.648 498.183 257.238 499.592C255.829 501.002 254.419 502.411 253.715 503.82C253.01 505.23 252.305 507.343 253.01 508.753C251.6 508.753 255.124 512.276 255.829 513.685C256.534 514.39 258.648 515.095 259.353 514.39C264.991 512.981 270.629 510.867 276.267 508.048C275.562 510.162 275.562 512.276 275.562 513.685C275.562 515.095 276.972 515.799 277.677 515.799C274.858 517.913 272.038 520.027 268.515 522.846C248.077 539.052 231.867 560.896 222 584.854C223.41 577.103 224.819 569.352 226.934 561.601C229.753 548.917 233.981 536.939 238.915 524.96C243.848 512.981 250.896 501.002 255.124 489.023C255.124 488.318 254.419 486.909 253.715 488.318C236.096 508.048 226.229 536.234 219.886 561.601C216.362 574.989 214.953 588.378 212.134 601.766C210.019 594.015 207.905 585.559 205.086 577.808C200.153 563.01 192.4 549.622 183.238 537.643C173.372 524.96 161.391 511.571 146.591 504.525C138.838 501.002 131.086 498.888 122.629 497.478C118.4 496.774 114.877 496.069 110.648 496.069C105.715 495.365 102.896 496.774 97.9622 497.478C97.9622 497.478 97.2575 498.183 97.9622 498.183C100.781 498.888 103.6 501.002 106.419 501.002C110.648 501.706 114.877 501.706 118.4 502.411C126.857 503.82 135.315 506.639 143.772 510.162C157.867 517.209 169.143 531.301 178.305 543.28C187.467 555.259 193.81 568.648 198.038 582.74C200.153 589.082 201.562 595.424 202.972 601.061C202.267 598.947 200.857 597.538 200.153 595.424C197.334 589.787 194.515 584.15 190.991 578.513C179.715 558.078 158.572 543.985 136.724 533.415ZM125.448 610.926C122.629 603.175 119.81 594.719 118.4 586.264C133.2 583.445 147.296 579.922 162.096 580.626C166.324 580.626 169.848 581.331 174.077 582.74C176.896 583.445 179.01 585.559 181.829 585.559H182.534C183.238 586.264 183.943 586.264 184.648 586.968C188.877 590.492 191.696 594.719 194.515 598.947C195.924 601.766 198.038 604.584 200.153 607.403C201.562 609.517 202.267 610.926 203.677 613.04C205.791 616.563 207.2 620.087 208.61 624.314C208.61 626.428 209.315 627.838 210.019 629.952C210.724 632.77 211.429 634.884 212.134 637.703C212.134 658.137 215.657 677.867 221.296 696.893C223.41 703.939 225.524 710.986 228.343 718.032C224.819 713.804 220.591 708.872 217.772 703.939C210.724 692.665 207.2 679.981 201.562 668.002C195.924 657.433 189.581 647.568 181.124 638.407C176.896 634.179 172.667 630.656 168.438 627.133C163.505 622.905 156.457 620.791 152.229 616.563C151.524 615.859 150.819 616.563 151.524 617.268C155.048 622.2 157.867 626.428 162.8 629.952C167.734 634.179 172.667 638.407 176.896 643.34C185.353 652.5 191.696 663.774 197.334 675.049C202.972 686.323 206.496 698.302 212.838 708.872C213.543 710.281 214.953 711.69 215.657 712.395C212.134 709.576 207.905 707.462 203.677 705.348C188.172 696.893 173.372 686.323 160.686 674.344C148.705 663.07 139.543 649.682 134.61 633.475C130.381 626.428 128.267 618.677 125.448 610.926ZM197.334 722.965C184.648 723.669 171.257 728.602 159.981 734.239C146.591 739.876 129.677 749.036 120.515 762.425C121.219 759.606 121.219 757.492 121.924 754.674C124.038 748.332 126.857 741.99 129.677 735.648C137.429 722.26 148.705 715.918 160.686 707.462C162.096 706.053 160.686 703.939 159.277 704.644C143.772 706.053 131.791 719.441 124.038 732.125C120.515 738.467 117.696 745.513 116.286 753.264C114.877 758.901 114.172 765.243 115.581 771.585C115.581 771.585 115.581 772.29 114.877 772.29C112.762 765.243 112.762 756.787 112.057 749.741C110.648 736.353 109.238 724.374 112.762 711.69C116.991 698.302 123.334 675.049 138.134 668.002C139.543 668.707 140.953 668.707 142.362 667.298C144.477 670.116 147.296 672.935 149.41 675.753C161.391 688.437 176.191 699.007 190.991 708.167C198.743 713.1 207.2 716.623 214.953 721.555C219.181 723.669 222.705 726.488 226.229 729.306C217.772 725.078 207.2 722.965 197.334 722.965ZM249.486 875.168C241.734 873.054 235.391 868.121 229.048 863.189C224.115 858.961 219.886 853.324 214.953 849.096C212.134 846.277 208.61 844.163 204.381 842.049C208.61 838.526 212.134 833.594 215.657 829.366C222 822.319 230.457 815.978 237.505 811.045C244.553 806.113 255.124 792.02 264.991 795.543C265.696 795.543 266.4 795.543 267.105 795.543C273.448 805.408 279.791 814.568 286.838 823.729C298.115 839.231 310.096 854.733 323.486 868.826C321.372 867.417 318.553 866.007 316.438 864.598C312.21 861.779 307.981 858.256 303.753 854.733C291.067 844.868 275.562 837.117 260.058 834.298C258.648 834.298 258.648 835.708 259.353 836.412C272.038 844.163 286.134 849.8 298.115 858.961C305.162 864.598 311.505 870.94 319.257 875.872C319.962 876.577 320.667 876.577 321.372 877.282C318.553 876.577 316.438 875.872 313.619 875.168C295.296 870.94 276.267 871.644 258.648 876.577C255.829 876.577 253.01 876.577 249.486 875.168ZM331.238 1113.34C303.048 1126.02 268.515 1128.13 239.619 1116.16C226.934 1110.52 214.953 1102.77 204.381 1094.31C207.2 1095.72 210.019 1097.13 212.838 1097.84C217.067 1099.24 222 1100.65 226.229 1101.36C226.934 1101.36 227.638 1101.36 227.638 1102.06C260.762 1109.11 296 1106.29 325.6 1089.38C358.019 1071.06 377.048 1044.99 382.686 1007.64C382.686 1006.23 382.686 1005.53 383.391 1004.12C388.324 962.544 349.562 907.581 303.048 913.218C288.953 915.332 275.562 927.311 272.038 941.404C269.219 954.792 273.448 968.181 281.905 978.75C290.362 989.32 303.048 998.48 316.438 1001.3C317.143 1001.3 317.848 1001.3 317.848 1001.3C302.343 1009.75 284.724 1009.05 269.219 999.185C260.762 993.548 253.715 986.501 248.781 978.046C244.553 969.59 244.553 961.134 243.143 951.974C243.143 950.565 241.029 950.565 240.324 951.974C237.505 961.134 241.734 973.113 245.962 981.569C250.896 990.729 258.648 999.185 267.81 1004.82C284.019 1014.69 304.458 1016.8 319.962 1006.23C319.258 1006.94 319.257 1007.64 318.553 1007.64C304.457 1022.44 287.543 1030.89 266.4 1029.48C248.781 1028.08 231.162 1021.73 217.772 1009.75C205.791 999.185 196.629 985.092 196.629 968.885C195.924 951.974 202.972 936.472 212.838 923.788C233.277 897.716 266.4 881.509 299.524 885.737C334.057 889.965 367.181 911.105 385.505 940.7C395.372 956.202 402.419 971.704 403.829 989.32C405.238 1006.94 401.01 1025.26 394.667 1041.46C381.981 1071.06 362.248 1099.95 331.238 1113.34ZM506.019 1050.62C506.019 1071.06 506.724 1092.2 513.067 1111.93C502.496 1111.93 491.219 1108.4 480.648 1106.29C467.962 1104.18 454.572 1102.06 443.296 1095.72C433.429 1090.08 424.972 1082.33 418.629 1073.17C413.696 1066.13 411.581 1059.08 410.172 1052.03C412.991 1045.69 415.105 1040.05 416.515 1033.71C421.448 1016.1 424.267 997.776 421.448 980.16C419.334 968.885 415.81 957.611 410.172 947.746C410.877 948.451 411.581 949.155 412.991 949.86C422.857 958.316 431.315 966.771 438.362 977.341C446.819 990.729 448.934 1006.94 452.457 1022.44C455.277 1037.94 459.505 1052.03 468.667 1064.72C469.372 1065.42 470.781 1064.72 470.077 1064.01C455.981 1033.01 460.915 995.662 442.591 966.067C436.248 954.792 427.791 946.337 417.924 937.881C415.105 935.062 410.172 930.13 404.534 927.311C414.4 922.379 423.562 916.037 431.315 908.991C436.953 904.058 441.886 898.421 446.115 892.079C453.162 892.079 461.619 896.307 467.258 900.535C475.01 905.467 482.058 912.514 488.4 920.265C501.791 937.176 508.134 959.02 509.543 980.16C509.543 1002.71 506.019 1026.67 506.019 1050.62ZM463.029 819.501C463.734 820.205 464.438 820.205 465.143 820.205C467.257 819.501 468.667 820.205 470.781 820.205C475.01 820.205 479.238 820.205 483.467 819.501C491.219 819.501 498.267 820.205 506.019 822.319C511.658 824.433 518 824.433 523.638 826.547C531.391 829.366 526.458 839.935 524.343 845.573C522.229 852.619 521.524 860.37 520.115 867.417C518 875.168 515.181 883.623 511.657 890.67C508.134 898.421 504.61 908.286 497.562 913.923C494.743 909.695 491.219 906.172 487.696 902.649C480.648 895.602 470.077 887.147 458.8 884.328C462.324 882.214 465.848 879.396 468.667 877.282C478.534 870.235 487.696 861.075 497.562 853.324C498.267 852.619 497.562 851.914 496.858 851.914C486.991 856.847 477.829 863.189 468.667 868.826C463.734 872.349 459.505 875.168 454.572 877.282C453.867 877.282 453.162 877.986 452.457 877.986C455.277 872.349 457.391 866.712 459.505 861.075C462.324 848.391 463.029 833.594 463.029 819.501C462.324 819.501 462.324 819.501 463.029 819.501ZM348.857 800.475C357.315 787.087 370.705 777.927 384.8 771.585C401.715 763.834 419.334 755.378 435.543 746.218C439.067 763.834 444.705 781.45 448.229 799.066C452.457 818.092 453.867 837.117 448.934 856.142C444.705 872.349 436.953 886.442 425.677 898.421C415.105 908.991 403.124 916.037 390.438 921.674C388.324 918.856 385.505 916.742 383.391 914.628C382.686 911.105 381.981 908.286 381.277 906.172C379.162 894.193 382.686 881.509 386.21 870.235C389.734 858.961 393.258 848.391 397.486 837.822C399.6 833.594 402.419 829.366 403.124 824.433C403.829 818.796 406.648 814.568 408.762 808.931C408.762 808.227 408.057 807.522 407.353 808.226C400.305 812.454 396.781 823.729 393.257 830.775C387.619 841.345 382.686 851.914 379.162 863.189C375.638 875.168 371.41 885.737 370.705 897.716C370.705 899.83 370.705 902.649 370.705 904.763C366.477 901.944 362.248 898.421 358.019 896.307C356.61 892.079 353.791 888.556 351.677 884.328C346.743 874.463 342.515 863.893 340.4 853.324C338.286 834.298 338.991 815.978 348.857 800.475ZM301.638 726.488C307.981 722.965 312.915 722.26 320.667 722.965C327.01 723.669 333.353 726.488 339.696 728.602C343.924 730.011 347.448 732.125 351.677 734.239C353.791 735.648 360.134 737.762 362.248 740.581C350.972 732.125 330.534 736.353 324.191 749.036C323.486 750.446 324.896 752.56 326.305 751.855C334.762 747.627 346.743 741.285 355.905 744.809C351.677 747.627 348.153 751.855 344.629 755.378C337.581 763.834 331.238 772.994 328.419 784.269C326.305 794.134 326.305 804.703 326.305 814.568V815.273C322.781 808.226 319.258 800.475 316.438 793.429C309.391 775.108 305.162 756.083 301.638 737.057C300.934 733.534 300.229 730.011 299.524 726.488C300.229 727.192 300.934 726.488 301.638 726.488ZM477.124 579.217C489.105 608.812 480.648 640.521 460.915 664.479C445.41 684.209 420.038 699.007 394.667 696.188C375.638 694.074 359.429 681.391 345.334 668.707C348.857 670.116 351.677 670.821 353.086 671.526C360.838 673.64 369.296 674.344 377.048 675.049C385.505 675.753 393.258 675.049 401.01 673.639C427.791 668.002 450.343 644.749 455.981 617.973C455.981 616.563 454.572 615.154 453.162 616.563C446.115 625.724 440.477 636.998 433.429 646.158C425.677 655.319 415.81 661.661 404.534 665.184C390.438 669.412 376.343 668.002 362.248 665.888C356.61 665.184 350.972 663.774 345.334 661.661C343.924 660.956 343.219 660.956 341.81 660.251C363.657 658.137 385.505 648.272 398.896 630.656C416.515 607.403 406.648 572.875 384.8 556.669C372.115 546.804 354.496 547.508 340.4 553.85C325.6 560.896 313.619 574.989 305.162 588.378C285.429 619.382 280.496 656.023 281.905 692.665C283.315 720.851 290.362 748.332 298.819 775.813C303.048 788.496 308.686 799.771 315.029 811.75C320.667 822.319 326.305 833.594 332.648 843.459C332.648 845.573 333.353 847.687 333.353 849.8C334.762 859.665 338.286 869.53 342.515 878.691C331.943 866.712 322.077 854.028 312.21 842.049C288.953 811.75 268.515 780.041 252.305 745.513C236.8 712.395 224.819 675.753 225.524 638.407C225.524 606.698 238.915 577.808 258.648 553.85C278.381 529.892 305.867 512.981 336.172 505.23C364.362 498.183 393.962 504.525 419.334 518.618C444 529.892 465.848 551.736 477.124 579.217ZM353.791 486.204H353.086C334.057 486.909 315.029 493.251 298.115 502.411C298.115 500.297 297.41 498.183 297.41 496.069C297.41 496.069 297.41 496.069 297.41 495.365C303.048 492.546 308.686 490.432 312.915 489.023C316.438 487.613 319.257 486.204 322.781 484.795C326.305 483.386 329.124 481.976 332.648 479.862C335.467 478.453 338.991 476.339 341.81 474.225C344.629 472.111 347.448 469.997 350.267 467.883C367.886 453.791 381.277 434.765 392.553 415.035C402.419 397.419 410.877 378.394 414.4 358.664C415.105 353.731 415.81 348.799 416.515 343.161C417.219 338.229 417.219 333.296 417.219 328.364C417.219 323.431 416.515 318.499 415.81 313.566C415.105 310.748 415.105 308.634 414.4 305.815C413.696 303.701 412.991 300.883 412.286 298.769C410.172 293.132 408.057 288.199 405.943 283.267C403.124 278.334 401.01 272.697 398.191 267.765L394.667 260.718L391.143 253.672C388.324 248.739 386.21 244.511 384.096 239.579C380.572 231.828 377.048 224.077 373.524 215.621C372.819 213.507 372.115 211.393 371.41 209.279C370.705 207.165 370 205.051 369.296 202.937C367.886 198.709 366.477 194.482 365.067 190.254C360.134 173.342 357.315 156.431 358.724 138.11C372.115 142.338 386.21 144.452 398.896 148.68C406.648 151.498 412.991 155.022 419.334 159.249C425.677 163.477 430.61 168.41 436.248 174.047C438.362 176.161 441.886 169.114 441.886 168.41C442.591 159.249 433.429 151.498 428.496 145.157C424.267 140.224 421.448 133.882 419.334 127.54C417.219 121.199 416.515 114.152 415.81 107.81C415.105 102.173 415.105 95.8314 415.105 89.4896C415.105 86.671 415.105 83.1478 415.81 80.3293C415.81 76.806 416.515 73.9875 417.219 71.1689C418.629 64.8271 420.038 58.4853 422.857 52.8481C424.972 47.211 428.496 41.5738 432.724 35.9367C447.524 16.9113 471.486 7.04628 495.448 10.5695C506.724 11.9788 519.41 15.502 527.162 23.9577C530.686 28.1856 533.505 32.4135 534.915 36.6413C532.8 36.6413 530.686 35.232 528.572 34.5274C520.819 31.7088 511.658 31.0042 503.905 33.8228C486.286 40.8692 474.305 58.4853 473.6 78.2153C473.6 90.8989 477.829 102.878 484.877 112.743C491.924 122.608 500.381 131.064 506.019 141.633C510.953 152.203 515.181 163.477 516.591 175.456C518 186.026 515.181 195.186 513.772 205.756C513.067 208.574 515.886 211.393 518.705 210.688C521.524 209.984 523.638 208.574 525.048 206.461C525.753 205.756 526.458 205.051 527.162 204.347C532.8 198.709 536.324 191.663 544.077 188.14C553.238 184.617 561.696 187.435 568.038 195.186C574.381 202.233 578.61 212.802 580.019 221.963C580.724 226.895 580.724 232.532 580.724 237.465C580.724 243.102 580.019 248.035 579.315 253.672C578.61 256.49 578.61 259.309 577.905 262.127C577.2 264.946 576.496 267.765 575.791 270.583C574.381 276.22 572.972 281.153 570.858 286.79C568.743 292.427 566.629 297.36 564.515 302.997C563.105 305.815 562.4 307.929 560.991 310.748C559.581 313.566 558.172 315.68 556.762 318.499C553.943 323.431 551.124 328.364 548.305 333.296C546.896 335.41 545.486 338.229 544.077 340.343C542.667 342.457 541.258 344.571 539.143 346.685C537.029 350.208 534.21 353.026 532.096 355.845C531.391 356.55 530.686 357.254 530.686 357.959L529.277 360.073L525.753 363.596C523.638 365.71 521.524 368.529 518.705 370.643C516.591 372.757 513.772 375.575 511.657 377.689C509.543 379.803 506.724 382.622 504.61 384.735C502.496 386.849 499.677 389.668 497.562 391.782C494.743 393.896 492.629 396.01 489.81 398.124L482.058 404.466C461.619 422.082 439.772 437.584 417.219 451.677C395.372 465.065 374.934 476.339 353.791 486.204Z" fill="#F2E2D3"/>
<path d="M489.81 237.465C489.81 233.237 489.81 229.009 489.81 224.782C489.81 220.554 489.105 216.326 488.4 212.098C487.696 203.642 486.286 195.891 484.172 187.435C483.467 185.321 483.467 183.912 482.762 181.798C482.058 179.684 482.058 178.275 481.353 176.161C480.648 172.638 479.239 169.115 477.829 164.887C475.715 157.84 472.191 150.794 468.667 144.452C467.962 143.747 466.553 143.747 466.553 145.157C468.667 152.908 470.781 159.954 472.896 167.705C474.305 171.229 475.01 175.456 476.419 178.98C477.124 182.503 478.534 186.731 478.534 190.959C479.239 194.482 479.943 198.71 480.648 202.233C481.353 205.756 481.353 209.984 482.058 213.507C482.058 217.03 482.762 221.258 482.762 224.782C482.762 229.009 482.762 232.533 482.762 236.76V243.102C482.762 245.216 482.762 247.33 482.058 249.444C482.058 253.672 481.353 257.9 480.648 261.423C480.648 265.651 479.239 269.879 478.534 273.402C477.829 277.63 477.124 281.858 476.419 285.381C475.715 289.609 474.305 293.132 472.896 297.36L471.486 303.702C470.781 305.816 470.077 307.93 469.372 309.339C467.962 313.567 466.553 317.09 465.143 321.318L463.029 326.955C462.324 329.069 461.619 330.478 460.915 332.592C447.524 362.187 430.61 391.077 410.877 417.149C406.648 422.786 401.715 429.128 397.486 434.765C395.372 437.584 392.553 440.403 390.438 443.221C387.619 446.04 385.505 448.858 382.686 451.677C379.867 454.495 377.048 456.609 374.934 459.428C372.115 461.542 369.296 464.36 366.477 466.474C363.658 468.588 360.838 470.702 357.315 472.816C355.905 473.521 354.496 474.93 352.381 475.635C350.972 476.339 348.858 477.044 347.448 477.749L342.515 482.681C346.038 481.272 350.267 479.158 353.791 477.749C357.315 475.635 360.838 473.521 364.362 471.407C365.772 469.998 367.886 469.293 369.296 467.884C370.705 466.474 372.819 465.065 374.229 464.36C377.753 461.542 380.572 459.428 384.096 456.609C396.781 446.04 408.058 433.356 418.629 420.673C439.067 395.305 455.981 366.415 468.667 336.82C469.372 334.706 470.077 333.297 471.486 331.183L473.6 324.841C475.01 320.613 476.419 316.385 478.534 312.862C479.239 310.748 479.943 308.634 480.648 306.52L482.762 300.178C484.172 295.951 484.877 291.723 486.286 287.495C487.696 271.288 489.81 254.377 489.81 237.465Z" fill="#F2E2D3"/>
</g>
<defs>
<clipPath id="clip0_4411_2246">
<rect width="592" height="1138" fill="white"/>
</clipPath>
</defs>
</svg>
