<svg width="16" height="16" viewBox="0 0 16 16" fill="none" xmlns="http://www.w3.org/2000/svg">
<g clip-path="url(#clip0)">
<path d="M8.13644 5.24136H9.79162V14.3448C9.79162 14.4972 9.91512 14.6207 10.0675 14.6207H12.8261C12.9784 14.6207 13.102 14.4972 13.102 14.3448V5.24136H14.7571C14.8594 5.2421 14.9535 5.18541 15.0006 5.09462C15.0478 5.00383 15.04 4.89427 14.9806 4.81102L11.6785 0.113084C11.6265 0.0415775 11.5435 -0.000732422 11.4551 -0.000732422C11.3667 -0.000732422 11.2836 0.0415775 11.2316 0.113084L10.3709 1.33239L8.4592 4.0386L7.913 4.81102C7.85354 4.89427 7.84578 5.00383 7.89293 5.09462C7.94007 5.18541 8.03414 5.2421 8.13644 5.24136Z" fill="#F2E2D3"/>
<path d="M1.56467 11.9608L3.47639 14.667L4.33708 15.8863C4.38907 15.9578 4.47213 16.0001 4.56053 16.0001C4.64893 16.0001 4.73199 15.9578 4.78398 15.8863L8.08604 11.1884C8.1455 11.1051 8.15326 10.9955 8.10612 10.9048C8.05897 10.814 7.9649 10.7573 7.8626 10.758H6.20743V1.65526C6.20743 1.5029 6.08392 1.37939 5.93156 1.37939H3.17295C3.02059 1.37939 2.89708 1.5029 2.89708 1.65526V10.758H1.24191C1.13961 10.7573 1.04554 10.814 0.998394 10.9048C0.951251 10.9955 0.959005 11.1051 1.01847 11.1884L1.56467 11.9608Z" fill="#F2E2D3"/>
</g>
<defs>
<clipPath id="clip0">
<rect width="16" height="16" fill="white"/>
</clipPath>
</defs>
</svg>
