<svg width="15" height="15" viewBox="0 0 15 15" fill="none" xmlns="http://www.w3.org/2000/svg">
<g clip-path="url(#clip0)">
<path d="M14.9608 5.75336C14.862 5.44962 14.5926 5.23459 14.2751 5.20586L9.94509 4.81275L8.23383 0.806343C8.10748 0.511996 7.82 0.322021 7.50002 0.322021C7.18004 0.322021 6.89244 0.511996 6.7669 0.806343L5.05563 4.81275L0.72489 5.20586C0.407425 5.23516 0.138599 5.4502 0.039263 5.75336C-0.0595012 6.05709 0.0317097 6.39023 0.271811 6.6008L3.54499 9.47091L2.57989 13.7215C2.50928 14.0341 2.63059 14.3573 2.88992 14.5447C3.02931 14.646 3.19308 14.6966 3.35742 14.6966C3.49864 14.6966 3.63998 14.6591 3.76621 14.5835L7.50002 12.351L11.2331 14.5835C11.507 14.7472 11.8514 14.7322 12.1101 14.5447C12.3694 14.3573 12.4908 14.0341 12.4201 13.7215L11.455 9.47091L14.7282 6.6008C14.9682 6.39023 15.0595 6.05777 14.9608 5.75336Z" fill="#F7C03D"/>
</g>
<defs>
<clipPath id="clip0">
<rect width="15" height="15" fill="white"/>
</clipPath>
</defs>
</svg>
