<svg width="16" height="15" viewBox="0 0 16 15" fill="none" xmlns="http://www.w3.org/2000/svg">
<g clip-path="url(#clip0)">
<path d="M15.4608 5.75336C15.362 5.44962 15.0926 5.23459 14.7751 5.20586L10.4451 4.81275L8.73383 0.806343C8.60748 0.511996 8.32 0.322021 8.00002 0.322021C7.68004 0.322021 7.39244 0.511996 7.2669 0.806343L5.55563 4.81275L1.22489 5.20586C0.907425 5.23516 0.638599 5.4502 0.539263 5.75336C0.440499 6.05709 0.53171 6.39023 0.771811 6.6008L4.04499 9.47091L3.07989 13.7215C3.00928 14.0341 3.13059 14.3573 3.38992 14.5447C3.52931 14.646 3.69308 14.6966 3.85742 14.6966C3.99864 14.6966 4.13998 14.6591 4.26621 14.5835L8.00002 12.351L11.7331 14.5835C12.007 14.7472 12.3514 14.7322 12.6101 14.5447C12.8694 14.3573 12.9908 14.0341 12.9201 13.7215L11.955 9.47091L15.2282 6.6008C15.4682 6.39023 15.5595 6.05777 15.4608 5.75336Z" fill="#E5E5E5"/>
</g>
<defs>
<clipPath id="clip0">
<rect width="15" height="15" fill="white" transform="translate(0.5)"/>
</clipPath>
</defs>
</svg>
