<svg width="511" height="853" viewBox="0 0 511 853" fill="none" xmlns="http://www.w3.org/2000/svg">
<path d="M334.334 817.666C319.721 820.319 305.108 821.645 290.495 820.319C275.883 818.993 261.27 816.34 246.657 811.035C240.014 808.383 233.372 805.73 226.73 801.752C218.759 797.773 212.117 793.795 205.475 789.816C217.431 799.099 232.044 808.383 246.657 813.688C259.941 818.993 274.554 821.645 289.167 822.971C303.78 824.297 317.064 824.297 331.677 821.645C346.29 818.993 359.575 812.362 374.188 807.057V805.73C360.903 808.383 347.619 815.014 334.334 817.666Z" fill="#F2E2D3"/>
<path d="M236.03 220.875C234.701 204.961 236.03 187.72 237.358 171.806C238.687 153.239 245.329 137.324 254.628 121.41C263.927 106.822 277.211 96.2121 289.168 82.95C290.496 81.6238 289.168 80.2976 287.839 80.2976C270.569 86.9286 257.285 101.517 246.657 116.105C236.03 132.02 230.716 149.26 228.059 169.153C226.731 186.394 226.731 204.961 228.059 223.528C229.387 232.811 230.716 240.768 233.373 248.726C236.03 256.683 240.015 261.988 244 267.293H245.329C241.343 260.662 240.015 252.704 238.687 246.073C236.03 238.116 236.03 228.833 236.03 220.875Z" fill="#F2E2D3"/>
<path d="M279.868 116.104C279.868 114.778 279.868 113.452 278.54 113.452C267.912 117.431 258.613 132.019 254.628 142.628C247.985 155.891 245.329 169.153 246.657 183.741H247.985C249.314 170.479 253.299 157.217 259.941 146.607C262.598 141.302 266.584 135.997 269.241 130.693C271.897 125.388 277.211 121.409 279.868 116.104Z" fill="#F2E2D3"/>
<path d="M493.748 361.452C489.763 360.126 485.778 358.8 480.464 357.474C472.493 354.821 463.194 353.495 455.223 354.821C452.567 354.821 451.238 354.821 448.581 356.148C447.253 356.148 444.596 356.148 443.267 356.148C441.939 356.148 441.939 356.148 441.939 357.474C440.611 357.474 440.611 357.474 439.282 357.474C439.282 354.821 437.954 350.843 437.954 348.19C433.968 325.645 425.998 305.752 422.012 283.206C422.012 280.554 418.027 279.228 415.37 280.554C396.772 291.164 376.845 300.447 358.247 311.057C343.634 317.688 331.678 328.297 323.707 341.559C319.722 348.19 317.065 356.148 315.737 364.105C315.737 361.452 315.737 358.8 315.737 357.474C315.737 349.517 315.737 341.559 317.065 332.276C318.394 322.992 323.707 313.709 329.021 307.078C334.335 300.447 340.977 296.468 346.291 289.837H347.619V288.511C348.948 276.575 297.138 254.03 282.525 268.618C278.54 238.115 277.212 206.286 287.839 177.11C293.153 161.195 301.124 145.281 313.08 133.345C323.707 121.409 338.32 113.452 354.262 120.083C366.218 125.388 375.517 141.302 375.517 153.238C376.845 166.5 370.203 177.11 360.904 185.067C348.948 195.677 330.35 199.655 314.408 199.655C310.423 199.655 309.094 203.634 309.094 206.286C307.766 207.613 307.766 208.939 309.094 211.591C326.364 235.463 351.605 256.682 382.159 256.682C412.713 256.682 440.611 235.463 456.552 211.591C472.493 187.719 476.479 157.217 465.851 129.366C456.552 102.842 436.625 81.623 412.713 67.0348C390.13 52.4465 362.232 43.1631 334.335 44.4893C315.737 45.8155 298.467 51.1203 281.197 60.4037C281.197 57.7513 281.197 56.4252 281.197 53.7727C279.869 48.4679 278.54 41.8369 278.54 36.5321C277.212 27.2487 273.226 13.9866 265.256 7.35553C257.285 2.05072 245.329 7.35553 237.358 11.3342C228.059 15.3127 218.76 20.6176 212.118 27.2487C209.461 21.9438 201.49 16.639 196.176 13.9866C188.206 8.68176 178.907 6.02936 169.608 3.37695C147.024 -1.92786 123.112 -0.601685 100.528 4.70312C77.9448 10.0079 56.6897 20.6176 38.0915 33.8796C28.7924 40.5107 19.4932 49.7941 12.851 59.0776C10.1941 64.3824 7.53723 69.6873 4.88034 74.9921C2.22345 80.2969 -1.76196 86.9279 -3.09039 93.5589C-3.09039 94.8851 -3.09033 96.2113 -1.7619 96.2113C-1.7619 96.2113 -1.7619 96.2113 -1.7619 97.5375C-3.09033 98.8637 -0.433441 101.516 0.894989 100.19C10.1941 96.2113 19.4932 89.5803 28.7923 85.6017C39.4199 81.623 50.0475 81.6231 62.0035 81.6231C73.9595 81.6231 84.587 81.623 96.5431 82.9493C107.171 85.6017 117.798 90.9065 127.097 94.8851C143.039 102.842 157.652 113.452 168.279 126.714C161.637 124.062 154.995 124.062 148.352 124.062C141.71 124.062 133.74 125.388 127.097 126.714C120.455 128.04 112.484 128.04 105.842 130.693C103.185 130.693 103.185 133.345 103.185 134.671C104.514 151.912 113.813 167.826 117.798 183.741C120.455 191.698 124.44 199.655 128.426 206.286C111.156 212.917 103.185 235.463 99.1999 251.377C95.2146 264.639 96.5431 276.575 97.8715 291.164C99.2 301.773 99.2 315.035 107.171 324.319C108.499 325.645 112.484 325.645 112.484 322.992C113.813 303.099 137.725 289.837 153.666 283.206C164.294 277.901 174.921 273.923 185.549 272.597C198.833 271.27 210.789 276.575 224.074 280.554C232.045 297.795 240.015 313.709 249.314 328.297C241.344 328.297 230.716 337.581 225.402 341.559C218.76 346.864 212.118 352.169 205.476 357.474C197.505 364.105 192.191 373.388 184.22 378.693C181.564 380.019 181.564 383.998 184.22 385.324C197.505 390.629 206.804 402.565 218.76 411.848C222.745 415.827 228.059 417.153 234.701 418.479C226.731 422.458 218.76 426.436 212.118 431.741C189.534 448.982 169.608 479.485 176.25 508.661C182.892 537.838 209.461 559.057 237.358 564.362C253.3 567.014 271.898 567.014 287.839 559.057C301.124 551.1 309.094 541.816 317.065 529.88C315.737 529.88 315.737 529.88 314.408 529.88C314.408 529.88 314.408 529.88 313.08 529.88C311.751 529.88 311.751 529.88 310.423 529.88C307.766 529.88 305.109 528.554 303.781 528.554H302.452C299.795 528.554 295.81 527.228 293.153 525.902C282.525 521.923 271.898 513.966 266.584 503.356C257.285 480.811 279.869 458.265 302.452 463.57C342.306 472.854 352.933 511.314 350.276 548.447C347.619 577.624 327.693 598.843 303.781 612.105C277.212 626.693 246.657 630.672 217.432 624.041C206.804 621.389 196.176 617.41 185.549 612.105C184.22 612.105 182.892 610.779 182.892 610.779C177.578 597.517 170.936 584.255 162.965 570.993C156.323 560.383 148.352 551.1 139.053 543.143C129.754 535.185 119.127 529.88 107.171 525.902C107.171 525.902 108.499 525.902 108.499 524.576C116.47 516.618 120.455 504.683 125.769 494.073C131.083 479.485 133.74 464.896 135.068 448.982C136.396 441.025 136.396 431.741 135.068 423.784C133.74 417.153 132.411 411.848 133.74 405.217C140.382 395.934 148.352 387.977 154.995 380.019C168.279 364.105 178.907 345.538 192.191 329.623C194.848 325.645 197.505 321.666 200.162 317.688C201.49 315.035 202.819 312.383 205.476 309.73C205.476 309.73 205.476 309.73 204.147 308.404C200.162 311.057 197.505 312.383 193.52 315.035C192.191 315.035 192.191 316.361 190.863 317.688C184.22 321.666 176.25 326.971 169.608 332.276C157.652 340.233 147.024 346.864 135.068 353.495C124.44 360.126 112.484 366.757 101.857 372.062C95.2146 373.388 87.244 372.062 80.6017 370.736C72.6311 369.41 63.3319 369.41 55.3613 370.736C40.7484 372.062 24.807 374.714 10.1941 380.019C-0.433472 383.998 -12.3895 389.303 -20.3602 397.26C-21.6886 398.586 -21.6886 398.586 -23.0171 399.912C-23.0171 399.912 -23.0171 399.912 -23.0171 398.586C-27.0024 385.324 -32.3162 374.714 -41.6153 364.105C-49.5859 354.821 -58.8851 346.864 -69.5127 340.233C-81.4687 332.276 -94.7531 325.645 -109.366 320.34C-109.366 319.014 -110.694 317.688 -110.694 317.688C-116.008 308.404 -119.994 296.468 -122.651 285.859C-129.293 256.682 -125.307 224.853 -110.694 199.655C-97.41 175.784 -76.1549 155.891 -46.9291 153.238C-9.7326 150.586 28.7924 161.195 38.0915 200.982C43.4052 223.527 19.4932 246.073 -1.7619 236.789C-12.3895 231.484 -20.3602 220.875 -24.3455 210.265C-25.674 207.613 -25.674 204.96 -27.0024 200.982C-27.0024 200.982 -27.0024 200.982 -27.0024 199.655C-28.3308 197.003 -28.3308 194.351 -28.3308 193.024C-28.3308 191.698 -28.3308 191.698 -28.3308 190.372C-28.3308 190.372 -28.3308 190.372 -28.3308 189.046C-28.3308 187.719 -28.3308 187.719 -28.3308 186.393C-40.2868 194.351 -50.9144 202.308 -57.5566 215.57C-65.5273 230.158 -66.8558 248.725 -62.8704 265.966C-57.5566 293.816 -36.3015 321.666 -7.07568 326.971C22.1501 333.602 52.7043 313.709 69.9742 291.164C89.9008 265.966 95.2146 235.463 88.5724 204.96C81.9301 173.131 60.675 143.955 35.4346 124.062C22.1501 113.452 4.88031 106.821 -11.061 104.169C-28.3308 101.516 -45.6006 104.169 -62.8704 108.147C-94.7531 117.431 -125.307 135.997 -143.906 162.522C-161.175 187.719 -166.489 219.548 -162.504 248.725C-159.847 272.597 -147.891 292.49 -133.278 309.73C-145.234 305.752 -158.518 301.773 -170.475 296.468C-187.744 288.511 -203.686 277.901 -215.642 263.313C-226.269 250.051 -234.24 234.137 -238.225 216.896C-244.867 190.372 -240.882 153.238 -208.999 146.607C-195.715 143.955 -182.431 147.933 -174.46 158.543C-163.832 169.153 -169.146 182.415 -179.774 191.698C-182.431 194.351 -179.774 198.329 -177.117 195.677C-174.46 194.351 -173.131 193.024 -170.475 191.698C-157.19 185.067 -151.876 170.479 -151.876 155.891C-151.876 138.65 -158.518 121.409 -170.475 109.473C-182.431 97.5375 -198.372 88.2541 -216.97 86.9279C-231.583 85.6017 -247.524 89.5803 -259.48 98.8637C-258.152 82.9493 -266.123 64.3824 -272.765 52.4465C-278.079 43.1631 -284.721 32.5535 -294.02 24.5962C-298.005 20.6176 -303.319 16.639 -308.633 12.6604C-311.29 10.008 -313.947 8.68176 -316.604 7.35553C-317.932 6.02936 -319.26 4.70312 -320.589 4.70312L-321.917 3.37695C-324.574 2.05072 -327.231 4.70312 -325.903 7.35553C-320.589 16.639 -313.947 24.5962 -311.29 33.8796C-305.976 55.0989 -315.275 84.2755 -324.574 102.842C-329.888 116.104 -336.53 128.04 -341.844 142.628C-364.428 202.308 -343.172 268.618 -300.662 317.688C-279.407 342.886 -248.853 357.474 -216.97 362.779C-208.999 364.105 -199.7 366.757 -189.073 369.41C-205.014 370.736 -222.284 373.388 -236.897 378.693C-252.838 383.998 -268.78 391.955 -282.064 405.217C-294.02 417.153 -303.319 433.068 -308.633 448.982C-317.932 479.485 -316.604 516.618 -303.319 545.795C-291.363 574.971 -268.779 596.191 -238.225 605.474C-210.328 613.431 -174.46 612.105 -154.533 589.56C-134.607 567.014 -133.278 532.533 -145.234 507.335C-151.876 492.747 -162.504 476.832 -178.445 470.201C-191.73 463.57 -205.014 463.57 -219.627 463.57C-219.627 464.896 -218.299 464.896 -218.299 466.223C-218.299 466.223 -218.299 466.223 -218.299 467.549C-218.299 467.549 -218.299 468.875 -216.97 468.875C-215.642 471.527 -215.642 472.854 -214.313 475.506V476.832C-212.985 479.485 -211.656 482.137 -211.656 486.116C-208.999 498.052 -208.999 509.987 -214.313 520.597C-226.269 541.816 -258.152 536.512 -267.451 515.292C-283.392 476.832 -258.152 446.33 -226.269 427.763C-201.029 413.174 -173.131 417.153 -147.891 429.089C-121.322 442.351 -98.7385 464.896 -86.7825 492.747C-82.7971 503.356 -78.8118 513.966 -77.4833 524.576C-77.4833 527.228 -76.1549 529.88 -76.1549 533.859C-77.4833 543.143 -81.4686 553.752 -88.1109 560.383L-89.4393 561.709C-97.41 563.036 -106.709 565.688 -113.351 570.993C-119.994 576.298 -126.636 582.929 -129.293 590.886C-133.278 598.843 -134.607 608.127 -135.935 616.084C-137.263 624.041 -141.249 633.324 -139.92 641.282C-139.92 643.934 -137.263 645.26 -134.607 643.934C-131.95 645.26 -127.964 643.934 -125.307 642.608C-119.994 641.282 -116.008 639.956 -112.023 638.629C-102.724 635.977 -94.7531 631.998 -86.7825 628.02C-78.8118 622.715 -72.1696 617.41 -66.8558 610.779C-64.1989 608.127 -62.8704 604.148 -62.8704 600.169C-61.542 597.517 -60.2135 594.865 -58.8851 593.538C-50.9144 588.234 -41.6153 584.255 -32.3162 581.603C-29.6592 581.603 -25.674 581.603 -23.0171 582.929C-12.3895 584.255 -0.433472 588.234 8.86566 592.212C36.763 604.148 59.3466 625.367 72.631 653.218C84.5871 678.415 88.5724 707.592 73.9595 731.464C55.3613 759.314 24.807 783.186 -13.718 767.271C-34.9731 757.988 -40.2868 726.159 -19.0317 714.223C-8.40411 707.592 4.88031 707.592 15.5079 711.571C18.1648 712.897 20.8217 712.897 24.807 714.223H26.1354C28.7923 715.549 31.4492 715.549 32.7777 716.875C34.1061 716.875 34.1061 716.875 34.1061 718.202C34.1061 718.202 34.1061 718.202 35.4346 718.202C36.763 718.202 36.763 719.528 38.0915 719.528C38.0915 704.94 38.0915 691.678 31.4492 678.415C24.807 662.501 8.86566 651.891 -5.74725 645.26C-32.3162 633.324 -66.8558 634.651 -88.1109 654.544C-110.694 674.437 -112.023 711.571 -104.052 738.095C-94.7531 768.597 -73.498 791.143 -44.2722 803.079C-15.0464 815.015 22.1501 816.341 52.7043 808.384C68.6457 804.405 84.587 793.795 96.5431 781.859C108.499 769.924 116.47 754.009 123.112 736.769C128.426 722.18 132.411 704.94 132.411 689.025C135.068 698.309 137.725 707.592 139.053 716.875C145.696 748.704 158.98 779.207 184.22 800.426C233.373 842.865 299.795 865.41 362.232 844.191C375.517 840.213 388.801 833.582 402.086 826.95C420.684 818.993 449.91 808.384 471.165 813.688C481.792 816.341 489.763 821.646 497.734 828.277C500.391 830.929 503.047 826.95 501.719 824.298L500.391 822.972C499.062 821.646 499.062 820.319 497.734 818.993C495.077 816.341 493.748 813.688 491.091 811.036C487.106 805.731 483.121 801.753 479.135 796.448C471.165 788.491 461.866 781.859 451.238 775.228C439.282 768.597 420.684 760.64 404.742 761.966C415.37 750.031 419.355 732.79 418.027 719.528C416.699 702.287 408.728 686.373 395.443 673.111C383.487 661.175 366.218 654.544 348.948 654.544C334.335 654.544 318.394 659.849 313.08 673.111C311.751 674.437 310.423 677.089 309.094 679.742C307.766 682.394 311.751 685.047 313.08 682.394C321.05 671.784 334.335 666.48 346.291 677.089C356.918 686.373 360.904 698.309 358.247 711.571C350.276 743.4 314.408 747.378 287.839 740.747C270.569 736.769 254.628 728.811 241.344 718.202C226.731 706.266 216.103 690.351 208.133 673.111C202.819 661.175 198.833 649.239 194.848 635.977C213.446 650.565 233.373 661.175 255.957 665.153C285.182 669.132 317.065 663.827 342.306 646.587C360.904 633.324 375.517 614.758 386.144 593.538C387.473 597.517 390.13 601.496 391.458 604.148C398.1 613.431 406.071 622.715 416.699 628.02C427.326 635.977 440.611 637.303 452.567 639.956C467.179 642.608 480.464 647.913 495.077 647.913C497.734 647.913 500.391 645.26 499.062 642.608C481.792 594.865 503.047 543.143 493.748 495.399C491.091 482.137 485.778 470.201 479.135 458.265C481.792 456.939 483.121 454.287 484.449 451.634C488.435 446.33 491.091 441.025 493.748 434.394C497.734 425.11 500.391 415.827 503.047 405.217C504.376 399.912 504.376 394.608 505.704 389.303C507.033 385.324 508.361 381.345 509.69 377.367C511.018 372.062 511.018 366.757 505.704 364.105C500.391 362.779 496.405 362.779 493.748 361.452ZM331.678 342.885C339.649 329.623 352.933 321.666 366.218 315.035C382.159 307.078 399.429 299.121 415.37 291.164C418.027 308.404 423.341 324.319 427.326 341.559C431.311 360.126 432.64 378.693 427.326 395.934C423.341 410.522 415.37 425.11 404.742 437.046C394.115 447.656 383.487 454.287 370.203 459.592C367.546 456.939 366.218 455.613 363.561 452.961C363.561 450.308 362.232 446.33 362.232 445.003C359.575 433.068 363.561 421.132 367.546 410.522C370.203 399.912 374.188 389.303 378.174 380.019C379.502 376.041 383.487 372.062 383.487 366.757C384.816 361.452 387.473 357.474 388.801 352.169C388.801 350.843 388.801 350.843 387.473 350.843C380.83 354.821 376.845 365.431 374.188 372.062C368.874 382.672 363.561 391.955 360.904 402.565C358.247 413.174 354.262 423.784 352.933 435.72C352.933 438.372 352.933 441.025 352.933 442.351C348.948 439.699 344.962 437.046 340.977 434.394C339.649 430.415 336.992 426.436 334.335 422.458C329.021 413.174 326.364 402.565 323.707 393.281C321.05 376.041 322.379 357.474 331.678 342.885ZM286.511 271.27C293.153 267.292 297.138 267.292 305.109 268.618C311.751 269.944 317.065 271.27 323.707 273.923C327.693 275.249 331.678 276.575 335.663 279.228C338.32 280.554 343.634 283.206 344.962 285.859C334.335 277.901 314.408 281.88 309.094 293.816C307.766 295.142 309.094 296.468 311.751 296.468C319.722 292.49 331.678 285.859 340.977 289.837C336.992 292.49 333.006 296.468 330.35 300.447C323.707 308.404 317.065 317.688 314.408 328.297C311.751 337.581 313.08 348.19 311.751 357.474C307.766 350.843 305.109 342.885 302.452 336.254C295.81 319.014 291.825 300.447 287.839 281.88C287.839 277.901 286.511 275.249 286.511 271.27C285.182 272.597 285.182 272.597 286.511 271.27ZM128.426 86.9279C117.798 81.623 107.171 76.3182 96.5431 74.9921C84.587 72.3397 72.631 73.6658 59.3466 73.6658C47.3906 73.6658 36.763 74.9921 24.807 78.9706C19.4932 80.2969 14.1794 82.9493 8.86566 86.9279C11.5226 81.623 14.1794 76.3182 16.8363 71.0134C22.1501 61.73 31.4492 53.7727 39.4199 47.1417C56.6897 32.5535 76.6164 21.9438 97.8715 16.639C117.798 11.3342 139.053 8.68176 160.308 11.3342C169.608 12.6603 177.578 16.639 185.549 20.6176C189.534 23.27 193.52 25.9224 197.505 28.5749C200.162 31.2273 202.819 36.532 206.804 37.8583C208.133 37.8583 208.133 37.8583 209.461 37.8583C210.789 37.8583 210.789 37.8583 212.118 36.5321C218.76 28.5748 228.059 23.27 237.358 20.6176C242.672 19.2914 255.957 11.3342 259.942 16.639C265.256 23.27 267.913 33.8797 269.241 41.8369C270.569 45.8156 270.569 49.7941 271.898 53.7727C273.226 57.7513 271.898 61.73 273.226 64.3824C266.584 68.361 259.942 73.6658 254.628 77.6444C234.701 93.5589 220.089 114.778 209.461 137.324C210.789 129.366 212.118 122.735 213.446 114.778C216.103 102.842 220.089 90.9065 225.402 80.2968C230.716 68.361 236.03 57.7513 241.344 45.8156C241.344 44.4893 240.015 44.4893 240.015 44.4893C222.745 63.0562 213.446 90.9065 206.804 114.778C204.147 128.04 201.49 139.976 198.833 153.238C196.176 145.281 194.848 138.65 192.191 130.693C188.206 116.104 180.235 104.169 170.936 92.2327C161.637 80.2969 149.681 67.0348 136.396 60.4037C129.754 56.4252 121.784 55.0989 113.813 53.7727C109.828 52.4465 105.842 52.4465 101.857 52.4465C97.8715 52.4465 93.8862 52.4465 89.9008 53.7727C92.5577 55.0989 95.2146 56.4252 97.8715 56.4252C101.857 56.4252 105.842 57.7513 109.828 57.7513C117.798 59.0776 125.769 61.73 133.74 65.7086C147.024 72.3397 157.652 85.6016 166.951 97.5375C174.921 108.147 181.564 121.409 185.549 134.671C186.877 139.976 188.206 146.607 190.863 151.912C189.534 150.586 189.534 147.933 188.206 146.607C185.549 141.302 182.892 135.997 178.907 130.693C168.279 110.8 148.352 97.5375 128.426 86.9279ZM117.798 161.195C115.141 153.238 112.484 145.281 111.156 137.324C124.44 134.671 139.053 132.019 153.666 132.019C157.652 132.019 161.637 132.019 164.294 133.345C166.951 134.671 169.608 135.997 172.264 135.997C173.593 135.997 173.593 137.324 174.921 137.324C178.907 141.302 181.564 145.281 184.22 149.26C185.549 151.912 186.877 154.564 189.534 155.891C190.863 158.543 192.191 159.869 193.52 162.522C196.176 165.174 197.505 169.153 198.833 173.131C198.833 174.457 198.833 175.784 200.162 177.11C201.49 179.762 201.49 182.415 202.819 185.067C202.819 204.96 206.804 223.527 210.789 242.094C212.118 248.725 214.775 255.356 217.432 261.987C213.446 258.008 210.789 254.03 206.804 248.725C200.162 238.115 197.505 226.179 190.863 214.244C185.549 203.634 178.907 194.351 170.936 186.393C166.951 182.415 162.965 178.436 158.98 175.784C153.666 171.805 147.024 169.153 143.039 165.174C143.039 165.174 141.71 165.174 141.71 166.5C145.696 170.479 148.352 174.457 152.338 178.436C157.652 182.415 161.637 186.393 165.622 191.698C173.593 200.982 180.235 211.591 185.549 222.201C190.863 232.81 193.52 244.746 200.162 254.03C201.49 255.356 201.49 256.682 202.819 258.008C198.833 255.356 194.848 252.704 190.863 251.377C176.25 243.42 161.637 232.81 149.681 222.201C137.725 211.591 129.754 198.329 124.44 183.741C121.784 175.784 120.455 169.153 117.798 161.195ZM149.681 279.228C137.725 284.532 120.455 293.816 112.484 305.752C112.484 303.099 113.813 300.447 113.813 299.121C115.141 292.49 117.798 287.185 121.784 280.554C128.426 268.618 140.382 261.987 151.009 254.03C152.338 252.704 151.009 251.377 149.681 251.377C135.068 252.704 123.112 265.966 116.47 277.901C112.484 284.532 111.156 291.164 108.499 297.795C107.171 303.099 105.842 309.73 107.171 315.035C107.171 315.035 107.171 315.035 107.171 316.361C104.514 309.73 105.842 301.773 104.514 295.142C103.185 281.88 101.857 271.27 104.514 258.008C108.499 244.746 115.141 223.527 128.426 216.896C129.754 218.222 131.083 216.896 132.411 216.896C135.068 219.548 136.396 222.201 139.053 224.853C151.009 236.789 164.294 247.399 178.907 255.356C186.877 259.335 194.848 263.313 201.49 268.618C205.476 271.27 209.461 273.923 212.118 276.575C202.819 272.597 193.52 269.944 184.22 271.27C173.593 268.618 161.637 273.923 149.681 279.228ZM213.446 185.067C213.446 154.564 226.731 126.714 245.329 104.169C263.927 81.623 290.496 64.3824 319.722 57.7513C346.291 51.1203 375.517 57.7513 399.429 71.0134C423.341 84.2755 444.596 105.495 455.223 130.693C467.179 158.543 457.88 189.046 439.282 212.917C424.669 231.484 400.757 246.073 375.517 243.42C356.918 242.094 342.306 228.832 327.693 216.896C330.35 218.222 334.335 219.548 335.663 219.548C342.306 222.201 351.605 222.201 358.247 222.201C366.218 223.527 374.188 222.201 382.159 220.875C407.399 215.57 429.983 193.024 435.297 167.826C435.297 166.5 433.968 165.174 432.64 166.5C425.998 175.784 420.684 186.393 414.042 194.351C407.399 203.634 396.772 208.939 386.144 212.917C372.86 216.896 359.575 215.57 346.291 214.244C340.977 212.917 335.663 211.591 330.35 210.265C329.021 210.265 327.693 208.939 327.693 208.939C348.948 207.613 368.874 198.329 382.159 181.089C399.429 158.543 390.13 125.388 368.874 110.8C356.918 101.516 339.649 101.516 326.364 108.147C311.751 114.778 301.124 128.04 293.153 141.302C274.555 170.479 269.241 206.286 270.569 240.768C271.898 268.618 278.54 293.816 286.511 320.34C290.496 332.276 295.81 342.885 302.452 354.821C307.766 365.431 313.08 376.041 319.722 385.324C319.722 386.65 319.722 389.303 319.722 390.629C321.05 399.912 323.707 409.196 329.021 418.479C318.394 406.543 309.094 394.608 299.795 382.672C277.212 353.495 257.285 322.992 242.672 289.837C224.074 256.682 213.446 220.875 213.446 185.067ZM236.03 414.501C228.059 413.174 222.745 407.87 216.103 402.565C210.789 398.586 206.804 393.281 202.819 389.303C200.162 386.65 196.176 383.998 193.52 382.672C197.505 378.693 200.162 374.714 204.147 370.736C209.461 364.105 217.432 357.474 225.402 353.495C232.045 348.19 242.672 334.928 251.971 338.907C253.3 338.907 253.3 338.907 254.628 338.907C259.942 348.19 266.584 357.474 273.226 366.757C283.854 382.672 297.138 397.26 309.094 410.522C306.438 409.196 303.781 407.87 301.124 406.543C297.138 403.891 293.153 399.912 289.168 397.26C277.212 387.977 262.599 380.019 246.657 377.367C245.329 377.367 245.329 378.693 246.657 378.693C258.613 386.65 271.898 391.955 283.854 399.912C290.496 405.217 297.138 411.848 303.781 415.827L305.109 417.153C302.452 417.153 301.124 415.827 298.467 415.827C281.197 411.848 262.599 411.848 245.329 417.153C242.672 415.827 240.015 415.827 236.03 414.501ZM127.097 466.223C125.769 472.854 124.44 479.485 123.112 486.116C120.455 495.399 116.47 503.356 112.484 511.314C109.828 515.292 108.499 520.597 104.514 523.249H103.185C80.6017 515.292 54.0328 513.966 30.1208 515.292H28.7923H30.1208C36.763 512.64 44.7337 509.987 51.3759 507.335C64.6604 503.356 79.2733 502.03 93.8862 500.704V499.378C79.2733 496.725 64.6604 498.052 51.3759 500.704C43.4052 502.03 35.4346 504.683 27.4639 507.335C26.1355 507.335 26.1355 507.335 24.807 508.661C30.1208 504.683 35.4346 502.03 40.7484 498.052C63.3319 482.137 81.9301 462.244 101.857 442.351C109.828 434.394 116.47 426.436 123.112 417.153C123.112 418.479 123.112 419.805 121.784 421.132C120.455 427.763 119.127 434.394 117.798 441.025C113.813 455.613 100.528 466.223 96.5431 480.811C96.5431 482.137 97.8715 482.137 97.8715 482.137C108.499 470.201 116.47 455.613 121.784 441.025C124.44 434.394 125.769 427.763 128.426 421.132C128.426 426.436 129.754 430.415 129.754 435.72C129.754 445.003 128.426 455.613 127.097 466.223ZM8.86566 519.271C8.86566 519.271 7.5372 520.597 8.86566 519.271C7.5372 519.271 8.86566 519.271 8.86566 519.271ZM-20.3602 399.912C-17.7032 395.934 -12.3895 394.608 -8.40411 391.955C-0.433441 387.976 8.86563 383.998 16.8363 381.345C23.4785 378.693 30.1208 378.693 36.763 377.367C47.3906 374.714 56.6897 373.388 67.3173 373.388C71.3026 373.388 76.6164 374.714 81.9302 374.714C75.2879 377.367 68.6457 378.693 62.0035 381.345C47.3906 386.65 32.7777 395.934 20.8217 405.217C19.4933 406.543 20.8217 407.87 22.1501 406.543C36.763 401.239 47.3906 389.303 62.0035 385.324C68.6457 383.998 75.2879 382.672 81.9302 381.345C75.2879 385.324 69.9742 389.303 63.3319 391.955C40.7483 406.543 22.1501 423.784 7.53723 445.003C2.22345 452.961 -3.09039 460.918 -7.07568 468.875C-4.41882 462.244 -3.09033 455.613 -1.7619 447.656C0.894989 433.068 2.22342 419.805 -0.433472 405.217H-1.7619C-3.09033 419.805 -3.09033 434.394 -8.40411 447.656C-11.061 454.287 -12.3895 460.918 -15.0464 467.549C-13.7179 446.33 -15.0464 425.11 -20.3602 405.217C-20.3602 405.217 -20.3601 405.217 -19.0317 405.217C-20.3601 403.891 -21.6886 402.565 -20.3602 399.912ZM-142.577 186.393C-129.293 155.891 -101.395 138.65 -72.1695 126.714C-56.2281 120.083 -38.9584 116.104 -21.6886 117.431C-4.41882 118.757 10.1941 125.388 24.807 134.671C52.7044 151.912 73.9595 183.741 77.9449 216.896C81.9302 248.725 67.3173 280.554 40.7484 300.447C28.7924 309.73 12.851 316.361 -3.09039 316.361C-19.0317 316.361 -32.3162 307.078 -42.9437 295.142C-54.8998 281.88 -60.2135 265.966 -61.542 248.725C-62.8704 228.832 -54.8998 211.591 -40.2869 198.329L-38.9584 197.003C-49.5859 211.591 -46.9291 231.484 -37.6299 247.399C-32.3162 256.682 -24.3455 263.313 -15.0464 268.618C-7.07568 272.597 4.88031 276.575 12.851 273.923C14.1794 273.923 14.1794 271.27 12.851 271.27C3.55185 269.944 -4.41876 269.944 -12.3895 265.966C-20.3601 261.987 -28.3308 254.03 -32.3162 246.073C-41.6153 231.484 -41.6153 214.244 -33.6446 199.655V200.982C-30.9877 214.244 -21.6886 226.179 -12.3895 234.137C-3.09033 242.094 10.1941 246.073 23.4785 243.42C36.763 240.768 48.719 227.506 50.0475 212.917C55.3612 167.826 2.22342 130.693 -37.6299 135.997C-38.9584 135.997 -40.2869 135.997 -40.2869 135.997C-76.1549 141.302 -101.395 158.543 -118.665 190.372C-134.606 218.222 -138.592 252.704 -130.621 284.532V285.859C-129.293 289.837 -129.293 293.816 -127.964 299.121C-126.636 301.773 -125.307 304.426 -123.979 307.078C-133.278 296.468 -139.92 285.859 -145.234 272.597C-157.19 247.399 -154.533 214.244 -142.577 186.393ZM-287.378 315.035C-316.604 284.532 -341.844 235.463 -339.187 193.024C-337.859 166.5 -331.216 141.302 -323.246 116.104C-320.589 104.169 -316.604 93.5589 -312.618 81.6231C-309.961 71.0134 -304.648 55.0989 -305.976 44.4893C-307.304 39.1844 -308.633 32.5535 -309.961 27.2487C-309.961 28.5748 -308.633 28.5748 -308.633 29.9011C-303.319 37.8583 -299.334 45.8156 -298.005 55.099C-294.02 72.3397 -296.677 90.9065 -296.677 108.147C-296.677 109.473 -294.02 109.473 -294.02 108.147C-287.378 90.9065 -287.378 69.6872 -292.692 51.1203C-295.348 40.5107 -300.662 31.2272 -305.976 23.27C-307.304 21.9438 -307.304 20.6176 -308.633 19.2914C-305.976 20.6176 -303.319 23.27 -301.991 24.5962C-294.02 32.5535 -287.378 40.5107 -282.064 49.7941C-274.093 64.3824 -264.794 84.2755 -267.451 102.842C-268.78 104.169 -268.78 104.169 -270.108 105.495C-274.093 112.126 -266.123 120.083 -260.809 113.452C-250.181 101.516 -235.568 92.2327 -218.299 92.2327C-203.686 92.2327 -187.744 97.5375 -177.117 108.147C-166.489 120.083 -159.847 135.997 -159.847 150.586C-159.847 155.891 -159.847 159.869 -161.175 163.848C-161.175 155.891 -165.161 147.933 -173.131 141.302C-190.401 126.714 -216.97 126.714 -235.568 141.302C-256.824 158.543 -260.809 185.067 -256.823 210.265C-252.838 238.115 -238.225 267.292 -215.642 284.532C-201.029 295.142 -185.087 303.099 -167.818 308.404C-149.219 313.709 -130.621 317.688 -113.351 324.319C-96.0816 332.276 -77.4833 340.233 -62.8704 352.169C-46.9291 364.105 -37.6299 380.019 -30.9877 398.586C-25.674 415.827 -23.0171 433.068 -23.0171 451.634C-23.0171 467.549 -23.0171 484.789 -29.6593 499.378C-32.3162 503.356 -34.9731 508.661 -37.6299 512.64V513.966C-42.9437 523.249 -50.9144 532.533 -60.2136 540.49C-62.8704 543.143 -65.5273 544.469 -68.1842 547.121C-41.6153 516.618 -42.9437 464.896 -57.5566 429.089C-81.4687 374.714 -133.278 342.885 -187.744 325.645C-205.014 320.34 -222.284 316.361 -238.225 305.752C-250.181 297.794 -260.809 285.859 -268.78 273.923C-283.392 251.377 -294.02 223.527 -291.363 197.003C-288.706 170.479 -272.765 149.26 -251.51 133.345C-242.211 126.714 -230.255 120.083 -218.299 118.757C-203.686 117.431 -191.73 124.062 -182.431 133.345C-179.774 134.671 -177.117 132.019 -179.774 130.693C-214.313 93.5589 -264.794 128.04 -286.049 161.195C-311.29 202.308 -296.677 255.356 -266.123 289.837C-255.495 301.773 -244.867 311.057 -230.255 317.688C-214.313 324.319 -195.715 328.297 -179.774 334.928C-146.563 346.864 -113.351 364.105 -90.7678 390.629C-69.5126 415.827 -56.2282 447.656 -56.2282 480.811C-56.2282 507.335 -65.5273 533.859 -84.1255 552.426C-81.4687 548.447 -80.1402 544.469 -78.8118 540.49C-77.4833 537.838 -74.8264 533.859 -73.498 531.207C-72.1696 527.228 -72.1696 521.923 -70.8411 517.945C-68.1842 506.009 -68.1842 494.073 -68.1842 482.137C-70.8411 452.961 -81.4686 425.11 -105.381 406.543C-117.337 394.608 -131.95 383.998 -147.891 378.693C-150.548 377.367 -151.876 377.367 -154.533 377.367C-162.504 373.388 -169.146 370.736 -173.131 369.41C-198.372 353.495 -263.466 338.907 -287.378 315.035ZM-78.8118 488.768V487.442C-92.0962 458.265 -113.351 431.741 -143.906 418.479C-177.117 403.891 -207.671 403.891 -239.554 419.805C-240.882 419.805 -240.882 421.132 -242.211 421.132C-276.75 441.025 -298.005 502.03 -267.451 533.859C-258.152 544.469 -240.882 548.447 -227.598 543.143C-215.642 537.838 -207.671 527.228 -203.686 515.292C-199.7 503.356 -199.7 487.442 -206.343 475.506C-206.343 475.506 -206.343 474.18 -207.671 474.18C-193.058 482.137 -182.431 495.399 -182.431 512.64C-182.431 521.923 -183.759 531.207 -187.744 540.49C-191.73 548.447 -198.372 553.752 -205.014 559.057C-206.343 560.383 -205.014 561.709 -203.686 561.709C-194.387 559.057 -187.744 548.447 -183.759 540.49C-179.774 531.207 -177.117 520.597 -178.445 511.314C-179.774 492.747 -189.073 476.832 -206.343 470.201C-205.014 470.201 -205.014 470.201 -203.686 470.201C-183.759 472.854 -167.818 480.811 -157.19 498.052C-147.891 512.64 -143.906 529.88 -145.234 547.121C-146.563 561.709 -153.205 577.624 -165.161 586.907C-178.445 596.191 -194.387 600.169 -208.999 600.169C-240.882 598.843 -271.436 582.929 -287.378 553.752C-303.319 524.576 -305.976 487.442 -292.692 456.939C-286.049 441.025 -278.079 426.436 -264.794 415.827C-251.51 405.217 -235.568 398.586 -219.627 393.281C-189.073 385.324 -155.862 383.998 -126.636 401.239C-100.067 415.827 -80.1402 442.351 -73.498 471.527C-70.8411 484.789 -69.5126 498.052 -70.8411 511.314C-70.8411 508.661 -72.1695 506.009 -72.1695 503.356C-74.8264 496.725 -77.4833 492.747 -78.8118 488.768ZM-70.8411 596.191C-74.8264 605.474 -84.1255 612.105 -92.0962 617.41C-100.067 622.715 -109.366 626.693 -117.337 630.672C-121.322 631.998 -126.636 634.651 -130.621 635.977C-130.621 635.977 -130.621 635.977 -131.95 635.977C-130.621 631.998 -129.293 628.02 -129.293 622.715C-127.964 614.758 -126.636 608.127 -123.979 600.169C-121.322 592.212 -116.008 585.581 -110.694 578.95C-105.381 572.319 -96.0816 569.667 -89.4393 565.688C-70.8411 563.036 -53.5713 548.447 -41.6153 535.185C-32.3162 524.576 -25.674 512.64 -21.6886 500.704C-19.0317 496.725 -16.3748 492.747 -12.3895 488.768C-5.74725 478.158 0.894989 467.549 8.86566 455.613C24.807 431.741 44.7337 413.174 67.3173 397.26C89.9009 381.345 113.813 369.41 137.725 357.474C149.681 350.843 161.637 344.212 172.264 337.581C172.264 336.255 173.593 334.928 174.921 334.928C168.279 341.559 160.308 346.864 153.666 353.495C144.367 362.779 133.74 372.062 123.112 381.345C100.528 401.239 77.9449 421.132 58.0182 442.351C56.6897 443.677 58.0181 445.003 59.3466 443.677C81.9302 425.11 104.514 405.217 127.097 385.324C137.725 376.041 148.352 365.431 158.98 356.148C164.294 350.843 169.608 346.864 174.921 341.559C172.264 345.538 170.936 349.517 168.279 353.495C147.024 381.345 123.112 414.501 99.1999 439.699C80.6017 460.918 60.675 479.485 38.0915 495.399C27.4639 503.356 15.5079 509.987 3.55185 516.618C-5.74725 521.923 -15.0464 525.902 -21.6886 533.859C-25.674 536.512 -29.6593 539.164 -33.6446 543.143C-46.9291 555.078 -58.8851 569.667 -64.1989 586.907C-66.8558 588.234 -69.5126 593.538 -70.8411 596.191ZM108.499 720.854C104.514 736.769 97.8715 754.009 85.9155 765.945C73.9595 779.207 60.675 787.164 43.4052 793.795C12.851 807.057 -24.3455 804.405 -53.5713 788.491C-81.4687 772.576 -98.7385 742.073 -100.067 710.244C-100.067 694.33 -97.41 678.415 -86.7825 666.48C-77.4833 654.544 -61.542 647.913 -46.9291 646.587C-29.6593 645.26 -12.3895 649.239 2.22342 658.522C19.4932 669.132 27.4639 685.046 30.1208 704.94C30.1208 706.266 30.1208 706.266 30.1208 707.592C23.4785 690.351 6.20877 681.068 -11.061 679.742C-21.6886 678.415 -32.3162 681.068 -40.2869 685.046C-48.2575 689.025 -58.8851 695.656 -61.542 704.94C-61.542 706.266 -60.2135 707.592 -58.8851 706.266C-52.2429 699.635 -48.2575 693.004 -40.2869 689.025C-32.3162 685.047 -21.6886 683.72 -12.3895 683.72C4.88034 685.047 19.4932 694.33 26.1354 708.918C26.1354 708.918 24.807 708.918 24.807 707.592C12.851 702.287 -1.7619 702.287 -15.0464 706.266C-27.0024 710.244 -38.9584 718.202 -42.9437 730.137C-48.2575 743.4 -44.2722 759.314 -33.6446 769.924C-0.433472 800.426 60.675 779.207 79.2733 744.726C79.2733 743.4 80.6017 743.4 80.6017 742.073C96.5431 710.244 96.5431 679.742 81.9302 646.587C68.6457 617.41 43.4052 594.865 12.851 581.603H11.5226C7.53723 580.276 3.55185 577.624 -0.433472 576.298C-3.09039 574.971 -5.74725 574.971 -8.40411 574.971C4.88034 573.645 18.1648 574.971 31.4492 577.624C60.675 584.255 87.2439 605.474 101.857 630.672C117.798 657.196 116.47 690.351 108.499 720.854ZM217.432 714.223C234.701 736.769 263.927 751.357 291.825 755.335C317.065 759.314 343.634 755.335 360.904 734.116C375.517 715.549 375.517 689.025 360.904 671.784C354.262 663.827 346.291 661.175 338.32 659.849C342.306 658.522 346.291 658.522 351.605 658.522C367.546 658.522 383.487 665.153 394.115 675.763C406.071 686.373 411.385 702.287 410.056 716.875C410.056 734.116 400.757 748.704 388.801 759.314C382.159 764.619 391.458 773.902 398.1 768.597C399.429 768.597 399.429 767.271 400.757 765.945C418.027 763.293 437.954 771.25 453.895 780.533C461.866 788.491 471.165 795.122 477.807 803.079C480.464 805.731 481.792 807.057 484.449 809.71C483.121 809.71 481.792 808.384 480.464 807.057C471.165 801.753 461.866 796.448 452.567 793.795C433.968 788.491 412.713 788.491 395.443 795.122C394.115 795.122 394.115 797.774 395.443 797.774C412.713 797.774 431.311 795.122 448.581 799.1C456.552 801.753 464.523 805.731 472.493 811.036C473.822 811.036 473.822 811.036 475.15 812.362C469.836 811.036 464.523 808.384 457.88 808.384C447.253 807.057 431.311 812.362 420.684 815.015C408.728 817.667 396.772 821.646 386.144 825.624C360.904 832.255 335.663 838.886 309.094 840.213C266.584 842.865 217.432 817.667 186.877 788.491C161.637 764.619 148.352 699.635 135.068 666.48C132.411 661.175 129.754 654.544 127.097 647.913C127.097 645.26 125.769 643.934 125.769 641.282C120.455 625.367 109.828 610.779 97.8715 598.843C79.2733 576.298 51.3759 565.688 22.1501 561.709C10.1941 560.383 -1.7619 561.709 -13.718 564.362C-17.7032 565.688 -23.017 565.688 -27.0024 567.014C-30.9877 568.34 -34.9731 569.667 -37.6299 572.319C-40.2869 573.645 -44.2722 574.971 -48.2575 577.624C-29.6592 559.057 -4.41882 549.774 23.4785 549.774C56.6897 549.774 88.5724 561.709 113.813 584.255C140.382 608.127 157.652 641.282 169.608 673.111C176.25 690.351 178.907 707.592 186.877 723.506C193.52 738.095 202.819 750.031 214.775 759.314C249.314 789.817 302.452 804.405 343.634 779.207C378.174 757.988 411.385 707.592 374.188 673.111C371.531 671.784 368.874 674.437 371.531 675.763C380.83 686.373 387.473 698.309 386.144 711.571C380.83 724.833 375.517 736.769 367.546 746.052C352.933 767.271 330.35 783.186 303.781 785.838C277.212 788.491 247.986 779.207 225.402 763.293C214.775 756.662 204.147 746.052 196.176 734.116C186.877 719.528 181.564 700.961 176.25 683.72C158.98 629.346 127.097 577.624 72.631 553.752C36.763 539.164 -15.0463 537.838 -45.6006 564.362C-42.9437 561.709 -41.6153 559.057 -38.9584 556.405C-28.3308 544.469 -15.0464 533.859 -0.433472 528.554C15.5079 521.923 34.1061 521.923 50.0475 521.923C67.3173 521.923 85.9155 524.576 103.185 529.88C121.784 536.512 136.396 545.795 149.681 561.709C161.637 576.298 170.936 594.865 177.578 612.105C184.22 629.346 188.206 649.239 193.52 666.48C198.833 683.72 206.804 699.635 217.432 714.223ZM314.408 642.608C286.511 654.544 254.628 657.196 226.731 645.26C214.775 639.956 202.819 631.998 192.191 624.041C194.848 625.367 197.505 626.693 200.162 628.02C204.147 629.346 208.133 630.672 213.446 630.672H214.775C246.657 637.303 279.869 634.651 309.094 618.736C340.977 601.496 358.247 576.298 363.561 540.49C363.561 539.164 363.561 537.838 363.561 537.838C368.874 498.052 331.678 445.003 286.511 450.308C273.226 451.634 259.942 463.57 255.957 476.832C253.3 488.768 257.285 502.03 265.256 512.64C273.226 523.249 285.182 531.207 298.467 533.859H299.795C285.182 541.816 267.913 541.816 253.3 532.533C245.329 527.228 238.687 520.597 233.373 512.64C229.388 504.683 229.388 496.725 228.059 487.442C228.059 486.116 225.402 486.116 225.402 487.442C222.745 496.725 226.731 507.335 230.716 515.292C236.03 524.576 242.672 532.533 251.971 537.838C267.913 547.121 286.511 549.774 302.452 539.164L301.124 540.49C287.839 555.078 270.569 563.036 250.643 561.709C233.373 560.383 216.103 553.752 204.147 543.143C193.52 532.533 184.22 519.271 182.892 503.356C182.892 487.442 188.206 472.854 198.833 459.592C218.76 434.394 249.314 419.805 282.525 422.458C315.737 426.436 347.619 446.33 364.889 475.506C374.188 490.094 380.83 504.683 382.159 521.923C383.487 539.164 379.502 556.405 372.86 572.319C363.561 601.496 344.962 629.346 314.408 642.608ZM481.792 582.929C481.792 602.822 481.792 622.715 488.435 641.282C477.807 641.282 467.179 638.629 457.88 635.977C445.924 633.325 432.64 631.998 422.012 625.367C412.713 620.062 404.743 612.105 398.1 604.148C392.786 597.517 391.458 590.886 390.13 584.255C392.786 578.95 394.115 572.319 396.772 567.014C400.757 549.774 403.414 531.207 400.757 513.966C399.429 503.356 395.443 492.747 390.13 482.137C391.458 483.463 391.458 483.463 392.786 484.789C402.086 492.747 410.056 500.704 416.699 511.314C424.669 524.576 427.326 539.164 429.983 553.752C432.64 568.34 436.625 581.603 445.924 594.865C445.924 596.191 447.253 594.865 447.253 593.538C433.968 563.036 437.954 528.554 420.684 499.378C414.042 488.768 406.071 480.811 396.772 471.527C394.115 468.875 388.801 464.896 383.487 460.918C392.786 456.939 402.086 450.308 408.728 443.677C414.042 438.372 418.027 433.067 422.012 427.763C428.655 427.763 436.625 431.741 443.267 435.72C451.238 441.025 457.88 447.656 463.194 454.287C476.479 470.201 481.792 491.421 483.121 512.64C485.778 536.512 481.792 559.057 481.792 582.929ZM499.062 386.65C496.405 393.281 496.405 401.239 495.077 407.87C493.748 415.827 489.763 423.784 487.106 430.415C483.121 438.372 480.464 446.33 473.822 452.961C469.836 447.656 467.179 445.003 464.523 441.025C457.88 434.394 447.253 426.436 436.625 423.784C440.611 421.132 443.267 418.479 445.924 417.153C455.223 410.522 464.523 401.239 473.822 394.608C473.822 394.608 473.822 393.281 472.493 393.281C463.194 397.26 453.895 403.891 445.924 409.196C441.939 411.848 436.625 414.501 432.64 417.153C432.64 417.153 431.311 417.153 429.983 418.479C432.64 413.174 435.297 407.87 436.625 402.565C440.611 389.303 441.939 374.714 440.611 361.452C440.611 361.452 440.611 361.452 441.939 361.452C440.611 361.452 441.939 361.452 441.939 361.452C443.267 361.452 445.924 361.452 447.253 361.452C451.238 361.452 455.223 361.452 459.209 361.452C467.179 361.452 473.822 361.452 481.792 364.105C487.106 365.431 493.748 366.757 499.062 368.083C505.704 370.736 500.391 381.345 499.062 386.65Z" fill="#F2E2D3"/>
</svg>
