<svg width="155" height="30" viewBox="0 0 155 30" fill="none" xmlns="http://www.w3.org/2000/svg">
<path d="M154.414 16.4142C155.195 15.6332 155.195 14.3668 154.414 13.5858L141.686 0.857861C140.905 0.0768119 139.639 0.076812 138.858 0.857861C138.077 1.63891 138.077 2.90524 138.858 3.68629L150.172 15L138.858 26.3137C138.077 27.0948 138.077 28.3611 138.858 29.1421C139.639 29.9232 140.905 29.9232 141.686 29.1421L154.414 16.4142ZM98 17L153 17L153 13L98 13L98 17Z" fill="#B26D28"/>
<circle cx="98" cy="15" r="2" fill="#B26D28"/>
<circle cx="90" cy="15" r="2" fill="#B26D28"/>
<circle cx="42" cy="15" r="2" fill="#B26D28"/>
<circle cx="82" cy="15" r="2" fill="#B26D28"/>
<circle cx="34" cy="15" r="2" fill="#B26D28"/>
<circle cx="74" cy="15" r="2" fill="#B26D28"/>
<circle cx="26" cy="15" r="2" fill="#B26D28"/>
<circle cx="66" cy="15" r="2" fill="#B26D28"/>
<circle cx="18" cy="15" r="2" fill="#B26D28"/>
<circle cx="58" cy="15" r="2" fill="#B26D28"/>
<circle cx="10" cy="15" r="2" fill="#B26D28"/>
<circle cx="50" cy="15" r="2" fill="#B26D28"/>
<circle cx="2" cy="15" r="2" fill="#B26D28"/>
</svg>
