<svg width="589" height="551" viewBox="0 0 589 551" fill="none" xmlns="http://www.w3.org/2000/svg">
<g opacity="0.2">
<path d="M111.799 55.6256C120.499 52.9916 129.299 51.1927 138.301 51.0639C147.302 50.935 156.404 51.6412 165.708 54.0175C169.955 55.2495 174.202 56.4814 178.55 58.5484C183.707 60.5278 188.054 62.5948 192.402 64.6617C184.415 59.6051 174.81 54.7237 165.507 52.3474C157.012 49.8835 147.91 49.1773 138.909 49.3062C129.907 49.435 121.816 50.3113 113.116 52.9452C104.416 55.5792 96.8276 60.6307 88.3291 64.9347L88.4297 65.7697C96.3202 63.2234 103.909 58.1719 111.799 55.6256Z" fill="#F2E2D3"/>
<path d="M544.159 355.095C548.377 363.678 551.809 372.346 552.884 381.269C554.745 390.107 555.034 399.115 554.537 408.209C553.943 416.491 551.777 424.944 550.396 433.311C550.396 433.311 550.396 433.311 551.182 433.226C553.25 423.962 556.988 415.339 556.601 405.52C557.196 397.238 556.121 388.314 554.26 379.476C552.4 370.638 549.753 361.885 545.633 354.114C541.414 345.531 535.625 337.119 528.459 330.499C528.459 330.499 527.673 330.584 528.459 330.499C531.402 335.111 534.248 338.911 537.094 342.712C540.038 347.324 542.098 351.209 544.159 355.095Z" fill="#F2E2D3"/>
<path d="M212.972 413.519C214.949 423.18 215.439 433.823 215.83 443.654C216.418 455.109 213.638 465.281 209.273 475.624C204.809 485.155 197.67 492.505 191.522 501.394C190.828 502.292 191.719 503.019 192.512 502.933C202.325 497.763 209.167 487.977 214.424 478.361C219.582 467.933 221.471 457.034 221.576 444.681C221.087 434.038 219.705 422.668 217.531 411.383C216.048 405.784 214.663 400.996 212.486 396.294C210.308 391.592 207.536 388.599 204.763 385.606L203.97 385.692C206.841 389.496 208.226 394.284 209.512 398.259C211.69 402.962 212.38 408.646 212.972 413.519Z" fill="#F2E2D3"/>
<path d="M194.387 480.499C194.486 481.312 194.586 482.125 195.383 482.04C201.46 478.917 205.948 469.374 207.545 462.613C210.538 454.054 211.139 445.752 209.251 436.893L208.454 436.979C208.649 445.195 207.251 453.583 204.059 460.515C202.862 463.939 200.868 467.448 199.671 470.871C198.474 474.294 195.584 477.076 194.387 480.499Z" fill="#F2E2D3"/>
<path d="M49.0351 343.843C51.5454 344.402 54.0558 344.961 57.3695 345.435C62.3902 346.553 68.1142 346.768 72.8347 345.437C74.4416 345.265 75.245 345.179 76.7518 344.191C77.5552 344.105 79.1621 343.933 79.9655 343.847C80.7689 343.761 80.7689 343.761 80.6689 342.945C81.4723 342.859 81.4723 342.859 82.2757 342.773C82.4758 344.406 83.5794 346.77 83.7795 348.404C87.8907 362.028 94.212 373.763 98.3232 387.387C98.5233 389.021 101.034 389.58 102.54 388.591C112.988 380.856 124.339 373.852 134.786 366.118C143.124 361.09 149.554 353.784 153.374 345.103C155.284 340.763 156.291 335.691 156.494 330.706C156.694 332.339 156.894 333.972 156.994 334.789C157.595 339.688 158.195 344.588 158.092 350.39C157.989 356.192 155.475 362.252 152.762 366.679C150.049 371.105 146.332 373.984 143.618 378.411L142.815 378.497L142.915 379.313C143.012 386.748 176.046 397.283 183.783 387.355C188.495 405.88 191.7 425.393 187.473 444.045C185.46 454.188 181.84 464.502 175.51 472.625C169.983 480.661 161.746 486.505 151.604 483.452C143.973 480.958 137.149 471.76 136.248 464.411C134.444 456.33 137.661 449.368 142.685 443.867C149.115 436.562 160.063 432.91 169.704 431.88C172.114 431.622 172.617 429.087 172.417 427.453C173.121 426.551 173.021 425.734 172.017 424.187C159.772 410.604 142.906 399.169 124.427 401.144C105.948 403.119 90.6771 417.987 82.8369 433.717C74.9967 449.446 74.8877 468.486 83.4162 484.948C91.0412 500.679 104.693 512.457 120.256 519.894C135.014 527.418 152.587 531.331 169.359 528.711C180.507 526.693 190.551 522.31 200.295 515.478C200.495 517.111 200.595 517.928 200.795 519.561C201.999 522.742 203.303 526.739 203.703 530.005C205.207 535.636 208.617 543.544 213.938 547.112C219.159 549.863 225.99 545.824 230.51 542.859C235.834 539.809 241.058 535.941 244.574 531.429C246.582 534.524 251.802 537.275 255.216 538.565C260.437 541.316 266.261 542.348 272.085 543.381C286.143 545.187 300.505 542.825 313.763 538.1C327.021 533.374 339.075 525.467 349.323 516.099C354.447 511.415 359.37 505.098 362.687 498.952C363.894 495.514 365.1 492.076 366.307 488.638C367.514 485.199 369.424 480.859 369.727 476.69C369.627 475.873 369.527 475.057 368.723 475.142C368.723 475.142 368.723 475.143 368.623 474.326C369.327 473.423 367.52 471.962 366.816 472.864C361.492 475.915 356.369 480.599 351.045 483.65C344.918 486.787 338.49 487.474 331.259 488.246C324.029 489.019 317.601 489.706 310.27 489.662C303.643 488.715 296.815 486.136 290.891 484.287C280.65 480.417 271.011 474.829 263.584 467.35C267.801 468.554 271.818 468.124 275.835 467.695C279.852 467.266 284.573 465.934 288.49 464.688C292.407 463.442 297.227 462.927 301.044 460.865C302.651 460.693 302.451 459.06 302.351 458.243C300.247 447.713 293.422 438.515 289.811 428.973C287.604 424.245 284.594 419.603 281.683 415.777C291.627 410.578 294.747 396.181 295.957 386.124C297.367 377.7 295.663 370.436 293.759 361.539C292.155 355.092 291.154 346.926 285.633 341.725C284.73 340.994 282.32 341.252 282.52 342.885C283.217 355.22 269.756 364.932 260.615 370.045C254.588 373.998 248.461 377.135 242.133 378.638C234.199 380.313 226.568 377.82 218.234 376.228C212.112 366.128 206.091 356.843 199.367 348.462C204.187 347.946 209.914 341.543 212.828 338.75C216.445 335.054 220.062 331.359 223.679 327.663C227.999 323.065 230.512 317.005 234.933 313.223C236.439 312.235 236.139 309.785 234.432 309.14C225.998 306.732 219.473 299.984 211.542 295.04C208.832 292.848 205.518 292.375 201.401 291.987C205.921 289.023 210.442 286.058 214.059 282.362C226.416 270.286 236.166 250.216 229.948 232.68C223.73 215.144 206.06 203.795 188.788 202.332C178.947 201.729 167.699 202.931 158.658 208.861C151.224 214.619 147.104 220.85 143.184 228.715C143.987 228.629 143.987 228.629 144.791 228.543C144.791 228.543 144.791 228.543 145.594 228.457C146.398 228.371 146.398 228.371 147.201 228.286C148.808 228.114 150.515 228.759 151.318 228.673L152.122 228.587C153.729 228.415 156.239 228.974 157.946 229.619C164.673 231.382 171.701 235.595 175.715 241.785C183.04 255.066 171.083 270.408 157.024 268.601C132.221 265.46 122.892 242.466 121.698 219.429C121.103 201.291 131.554 186.938 145.015 177.226C159.983 166.527 178.162 162.102 196.337 164.296C202.965 165.243 209.692 167.006 216.52 169.585C217.323 169.5 218.227 170.23 218.227 170.23C222.441 178.053 227.459 185.79 233.28 193.441C238.097 199.545 243.618 204.746 249.843 209.044C256.067 213.343 262.894 215.923 270.425 217.6C270.425 217.6 269.622 217.686 269.722 218.502C265.502 223.917 263.992 231.524 261.579 238.401C259.466 247.727 258.959 256.881 259.357 266.766C259.153 271.752 259.854 277.468 261.258 282.282C262.561 286.279 263.765 289.46 263.462 293.629C260.145 299.774 255.925 305.189 252.508 310.518C245.674 321.176 240.648 333.295 233.814 343.953C232.507 346.575 231.201 349.196 229.894 351.818C229.291 353.537 228.687 355.256 227.28 357.061C227.28 357.061 227.28 357.061 228.184 357.792C230.394 355.901 231.901 354.913 234.111 353.022C234.915 352.936 234.814 352.119 235.518 351.217C239.235 348.338 243.655 344.556 247.272 340.86C253.903 335.188 259.83 330.418 266.56 325.562C272.487 320.793 279.218 315.937 285.245 311.984C289.162 310.738 294.083 311.039 298.2 311.427C303.121 311.728 308.745 311.127 313.465 309.795C322.203 308.034 331.644 305.371 340.081 301.16C346.208 298.023 353.039 293.984 357.259 288.569C357.963 287.667 357.963 287.667 358.666 286.764C358.666 286.764 358.666 286.764 358.766 287.581C362.177 295.49 366.191 301.679 372.615 307.611C378.136 312.812 384.361 317.111 391.288 320.507C399.119 324.634 407.654 327.859 416.892 330.181C416.992 330.997 417.895 331.728 417.895 331.728C421.809 337.101 425.12 344.193 427.527 350.554C433.746 368.09 433.737 387.947 426.8 404.407C420.567 419.964 409.213 433.587 391.737 437.109C369.442 441.146 345.342 437.103 336.716 413.206C331.802 399.667 344.563 384.239 358.118 388.582C364.945 391.161 370.566 397.179 373.777 403.454C374.781 405.002 374.981 406.635 376.084 408.999C376.084 408.999 376.084 408.999 376.184 409.815C377.188 411.363 377.388 412.996 377.488 413.813C377.588 414.629 377.588 414.629 377.688 415.446C377.688 415.446 377.688 415.446 377.788 416.262C377.888 417.079 377.888 417.079 377.988 417.896C384.619 412.223 390.446 406.637 393.462 398.041C397.182 388.544 396.585 377.025 392.874 366.667C387.559 349.861 372.603 334.086 354.528 332.708C336.352 330.514 319.374 344.738 310.631 359.736C300.48 376.54 299.568 395.665 305.886 414.018C312.304 433.188 327.36 449.78 344.126 460.398C352.961 466.072 363.906 469.039 373.747 469.642C384.392 470.159 394.636 467.41 404.78 463.844C423.362 456.067 440.44 442.66 449.687 425.126C458.231 408.494 459.043 388.552 454.432 370.844C451.024 356.316 442.292 344.84 432.154 335.168C439.685 336.845 448.019 338.437 455.65 340.931C466.695 344.714 477.137 350.217 485.468 358.427C492.896 365.906 498.917 375.19 502.628 385.549C508.646 401.452 509.038 424.574 490.256 430.718C482.421 433.21 474.087 431.618 468.466 425.601C461.238 419.755 463.451 411.245 469.178 404.842C470.585 403.037 468.678 400.759 467.271 402.564C465.765 403.552 465.061 404.455 463.554 405.443C456.02 410.385 453.907 419.711 455.008 428.693C456.309 439.309 461.626 449.496 469.758 456.073C477.889 462.65 488.23 467.336 499.578 466.95C508.516 466.823 517.857 463.343 524.388 456.854C524.785 466.739 531.006 477.656 535.924 484.577C539.838 489.949 544.655 496.053 550.88 500.352C553.59 502.544 557.104 504.651 560.618 506.757C562.425 508.218 564.132 508.863 565.839 509.508C566.742 510.239 567.645 510.97 568.449 510.884L569.352 511.615C571.059 512.26 572.466 510.455 571.463 508.907C567.548 503.534 562.931 499.064 560.624 493.519C555.809 480.797 559.232 462.231 563.455 450.197C565.668 441.687 568.785 433.909 570.898 424.582C580.054 386.375 562.197 346.918 532.785 319.451C518.029 305.309 498.45 298.301 478.768 297.095C473.847 296.794 468.023 295.761 461.395 294.815C470.937 292.968 481.181 290.219 489.618 286.008C498.859 281.711 507.9 275.781 514.934 266.757C521.264 258.634 525.688 248.234 527.701 238.091C531.023 218.708 527.419 195.929 517.183 178.822C507.751 161.629 492.492 150.023 473.313 146.281C455.841 143.184 434.248 146.319 423.898 161.489C413.547 176.659 415.345 197.977 424.477 212.72C429.595 221.274 437.223 230.386 447.364 233.439C455.899 236.664 463.933 235.805 472.771 234.861C472.671 234.044 471.867 234.13 471.767 233.313C471.767 233.313 471.767 233.313 471.667 232.497C471.667 232.497 471.567 231.68 470.763 231.766C469.76 230.219 469.66 229.402 468.656 227.855L468.556 227.038C467.553 225.491 466.549 223.943 466.249 221.493C463.742 214.316 462.841 206.966 465.255 200.09C470.885 186.251 490.567 187.457 497.792 199.922C510.334 222.574 497.371 242.987 479.489 256.48C465.325 267.094 448.152 266.447 431.987 260.729C414.918 254.28 399.559 241.857 390.227 225.481C387.016 219.205 383.805 212.93 382.202 206.483C382.002 204.85 380.998 203.302 380.698 200.852C380.801 195.05 382.411 188.26 385.928 183.747L386.631 182.845C391.352 181.513 396.775 179.279 400.392 175.583C404.009 171.888 407.526 167.375 408.533 162.304C410.343 157.147 410.446 151.344 410.649 146.359C410.852 141.373 412.562 135.4 411.158 130.586C410.958 128.953 409.251 128.308 407.744 129.296C406.037 128.651 403.727 129.725 402.22 130.714C399.107 131.874 396.796 132.948 394.486 134.022C389.062 136.256 384.542 139.221 380.022 142.186C375.601 145.968 371.984 149.663 369.271 154.09C367.864 155.895 367.361 158.43 367.661 160.88C367.058 162.599 366.454 164.318 365.751 165.221C361.331 169.002 356.007 172.053 350.583 174.287C348.976 174.459 346.566 174.717 344.859 174.072C338.331 173.942 330.8 172.265 324.876 170.416C307.104 164.869 291.845 153.263 281.709 136.973C272.578 122.23 267.966 104.522 275.003 88.8785C284.15 70.5277 300.828 53.854 325.328 61.1636C338.883 65.5063 344.498 84.7615 332.543 93.4847C326.616 98.2546 318.582 99.1132 311.855 97.3502C310.148 96.7052 308.541 96.8769 306.03 96.3179L305.227 96.4038C303.52 95.7588 301.913 95.9306 301.01 95.1998C300.206 95.2856 300.206 95.2857 300.106 94.469C300.106 94.469 300.106 94.469 299.303 94.5549C298.499 94.6407 298.399 93.8241 297.596 93.91C298.697 102.893 299.697 111.059 304.715 118.796C309.932 128.166 320.374 133.668 329.712 136.807C346.681 142.44 367.47 139.391 378.824 125.768C390.981 112.059 388.983 89.1082 382.162 73.2911C374.237 55.1099 359.681 42.6012 341.105 37.1404C322.529 31.6797 299.933 33.267 282.055 40.1413C272.714 43.6214 263.873 51.1845 257.543 59.3067C251.212 67.4289 247.593 77.7434 244.876 88.7886C242.763 98.1148 241.653 108.988 242.854 118.788C240.547 113.243 238.24 107.699 236.736 102.068C230.317 82.8986 219.982 64.9751 203.116 53.5405C170.188 30.5855 128.315 20.9957 92.1553 38.0967C84.4212 41.405 76.8872 46.3466 69.3532 51.2882C58.7055 57.3899 41.8306 65.8115 28.5756 63.9187C21.9481 62.9724 16.7273 60.221 11.4065 56.6531C9.59954 55.1916 8.29284 57.8131 9.29637 59.3605L10.1999 60.0912C11.1033 60.822 11.2034 61.6386 12.1069 62.3694C13.9138 63.8309 14.9173 65.3783 16.7243 66.8398C19.5348 69.8487 22.2452 72.0409 25.0557 75.0498C30.4766 79.4344 36.6008 82.9165 43.5285 86.3127C51.2596 89.6231 63.1078 93.3208 72.6489 91.474C67.1219 99.5103 66.0123 110.384 67.8163 118.464C69.9204 128.994 75.9416 138.278 84.9763 145.586C93.1076 152.163 104.052 155.13 114.497 154.014C123.335 153.069 132.576 148.773 134.789 140.263C135.492 139.361 136.095 137.642 136.699 135.923C137.302 134.203 134.692 132.828 134.088 134.547C130.068 141.595 122.434 145.72 114.403 139.96C107.275 134.93 103.964 127.838 104.571 119.5C106.99 99.3866 128.382 94.6187 144.951 96.9847C155.696 98.3184 165.937 102.188 174.772 107.862C184.51 114.267 192.138 123.38 198.259 133.481C202.374 140.487 205.684 147.579 209.095 155.487C196.747 147.707 183.895 142.461 169.936 141.471C151.961 140.91 133.079 146.237 119.114 158.484C108.867 167.852 101.43 180.229 96.6035 193.982C95.4999 191.618 93.5929 189.34 92.5893 187.792C87.8718 182.505 82.3509 177.304 75.5233 174.725C68.4956 170.512 60.3613 170.554 52.9304 169.693C43.8926 169.004 35.4581 166.596 26.6204 167.541C25.0136 167.712 23.6068 169.517 24.6104 171.065C38.6568 199.347 29.704 232.568 38.9298 261.365C41.5372 269.36 45.6514 276.366 50.569 283.286C49.0622 284.274 48.4589 285.994 47.8555 287.713C45.8455 291.237 44.6388 294.675 43.5322 298.93C41.8223 304.903 40.9158 310.791 40.1094 317.496C39.7062 320.848 40.1064 324.115 39.7032 327.467C39.1999 330.003 38.6966 332.538 38.1934 335.074C37.7902 338.427 38.1904 341.693 41.6042 342.983C44.9179 343.456 47.3282 343.198 49.0351 343.843ZM148.454 344.802C144.634 353.483 137.2 359.241 129.666 364.183C120.625 370.113 110.781 376.128 101.74 382.058C98.8324 371.614 94.4181 362.158 90.7072 351.8C86.8962 340.625 84.692 329.278 86.605 318.319C87.9147 309.078 91.6347 299.58 97.1616 291.544C102.789 284.324 108.716 279.555 116.35 275.43C118.157 276.891 119.06 277.622 120.867 279.083C121.067 280.717 122.171 283.081 122.271 283.897C124.778 291.075 123.268 298.682 121.659 305.473C120.852 312.177 119.242 318.968 117.532 324.941C117.029 327.477 114.919 330.185 115.319 333.451C114.916 336.803 113.609 339.425 113.206 342.777C113.306 343.594 113.306 343.594 114.11 343.508C117.827 340.629 119.436 333.838 120.543 329.584C122.956 322.707 125.47 316.648 126.276 309.943C127.082 303.238 128.692 296.448 128.595 289.012C128.395 287.379 128.195 285.746 128.095 284.929C130.705 286.305 133.316 287.681 135.926 289.056C137.03 291.42 138.937 293.699 140.844 295.977C144.758 301.35 147.165 307.711 149.472 313.255C152.38 323.7 152.977 335.218 148.454 344.802ZM181.173 385.98C177.456 388.859 175.046 389.116 170.125 388.815C166.008 388.428 162.694 387.954 158.477 386.75C155.967 386.191 153.456 385.632 150.846 384.257C149.139 383.612 145.725 382.322 144.722 380.775C151.749 384.987 163.501 381.25 165.814 373.557C166.517 372.654 165.614 371.924 164.007 372.095C159.487 375.06 152.756 379.916 146.832 378.067C149.042 376.176 151.152 373.469 152.459 370.847C155.876 365.519 159.192 359.373 159.999 352.668C160.905 346.78 159.301 340.333 159.405 334.531C162.315 338.357 164.522 343.085 166.629 346.996C171.947 357.183 175.758 368.358 179.569 379.533C179.869 381.983 180.873 383.53 181.173 385.98C181.876 385.077 181.876 385.077 181.173 385.98ZM290.688 489.272C297.516 491.852 304.343 494.432 310.871 494.561C318.301 495.422 325.432 493.833 333.467 492.974C340.697 492.201 347.025 490.698 353.955 487.476C357.069 486.315 360.083 484.339 362.996 481.546C361.79 484.984 360.583 488.422 359.376 491.86C356.863 497.92 351.839 503.42 347.519 508.019C338.175 518.117 326.924 525.938 314.469 530.578C302.818 535.133 290.164 538.139 277.109 537.88C271.385 537.664 266.264 535.73 261.143 533.795C258.533 532.419 255.922 531.043 253.312 529.668C251.505 528.206 249.498 525.112 246.988 524.553C246.184 524.638 246.184 524.638 245.381 524.724C244.577 524.81 244.577 524.81 243.874 525.713C240.457 531.041 235.233 534.909 229.81 537.143C226.696 538.303 219.262 544.061 216.452 541.052C212.738 537.313 210.33 530.952 208.927 526.138C207.823 523.774 207.523 521.324 206.419 518.96C205.316 516.596 205.819 514.06 204.815 512.513C208.532 509.634 212.149 505.938 215.063 503.145C225.914 492.058 233.15 478.047 237.877 463.478C237.674 468.464 237.371 472.633 237.168 477.618C236.461 485.139 234.951 492.747 232.538 499.623C230.225 507.316 227.812 514.192 225.498 521.885C225.598 522.702 226.402 522.616 226.402 522.616C235.446 510.067 238.969 492.317 241.185 477.189C241.791 468.851 242.497 461.33 243.104 452.992C245.311 457.72 246.615 461.717 248.822 466.445C252.333 475.17 258.054 482.005 264.578 488.753C271.103 495.502 279.334 502.895 287.868 506.12C292.186 508.14 297.106 508.442 302.027 508.743C304.537 509.302 306.947 509.045 309.358 508.787C311.768 508.53 314.178 508.272 316.489 507.198C314.782 506.553 313.075 505.908 311.468 506.08C309.058 506.337 306.547 505.778 304.137 506.036C299.216 505.735 294.196 504.616 289.075 502.682C280.541 499.457 273.113 491.978 266.588 485.229C260.967 479.212 255.95 471.475 252.539 463.566C251.335 460.385 250.031 456.388 248.024 453.294C248.928 454.024 249.128 455.658 250.031 456.388C252.038 459.483 254.046 462.578 256.856 465.587C264.784 477.149 277.836 484.027 290.688 489.272ZM291.512 442.855C293.72 447.583 295.927 452.311 297.33 457.125C289.496 459.617 280.859 462.194 272.021 463.139C269.611 463.396 267.2 463.654 265.494 463.009C263.787 462.364 262.08 461.719 260.473 461.891C259.67 461.977 259.569 461.16 258.766 461.246C256.056 459.054 254.149 456.776 252.242 454.497C251.238 452.95 250.235 451.403 248.528 450.758C247.524 449.21 246.621 448.48 245.617 446.932C243.81 445.471 242.707 443.107 241.603 440.743C241.503 439.926 241.403 439.11 240.499 438.379C239.496 436.831 239.296 435.198 238.292 433.651C236.791 421.402 232.98 410.227 229.169 399.052C227.866 395.054 225.759 391.143 223.652 387.232C226.362 389.424 228.269 391.702 231.079 394.711C235.897 400.815 238.404 407.992 243.322 414.913C247.336 421.102 252.053 426.389 257.474 430.774C260.185 432.966 262.895 435.158 265.506 436.534C269.019 438.64 273.237 439.844 275.947 442.037C275.947 442.037 276.751 441.951 276.651 441.134C273.94 438.942 272.033 436.664 269.323 434.472C265.809 432.365 263.098 430.173 260.288 427.164C254.767 421.963 249.949 415.859 245.935 409.67C241.921 403.48 239.414 396.302 234.696 391.015C233.793 390.285 233.693 389.468 232.789 388.737C235.4 390.113 238.01 391.488 240.52 392.048C249.958 396.003 259.597 401.591 267.628 407.352C275.659 413.112 281.48 420.763 285.794 429.402C288.002 434.13 289.305 438.127 291.512 442.855ZM263.326 372.237C270.156 368.198 279.9 361.366 283.82 353.501C284.021 355.134 283.417 356.853 283.517 357.67C283.214 361.839 282.007 365.277 280.097 369.618C276.981 377.396 270.25 382.252 264.423 387.839C263.72 388.741 264.623 389.472 265.427 389.386C274.164 387.625 280.395 378.686 283.511 370.907C285.421 366.567 285.724 362.398 286.831 358.143C287.234 354.791 287.537 350.622 286.334 347.441C286.334 347.441 286.334 347.441 286.234 346.625C288.341 350.536 288.138 355.522 289.441 359.519C291.245 367.599 292.849 374.046 292.243 382.384C290.833 390.808 288.417 404.303 280.883 409.244C279.979 408.514 279.276 409.416 278.473 409.502C276.666 408.04 275.662 406.493 273.855 405.032C265.724 398.455 256.889 392.78 247.451 388.825C242.33 386.89 237.21 384.956 232.792 382.118C230.182 380.743 227.572 379.367 225.765 377.906C231.689 379.754 237.513 380.787 243.037 379.369C249.664 380.315 256.495 376.276 263.326 372.237ZM231.865 434.338C234.166 453.12 228.233 471.127 218.686 486.212C209.139 501.296 194.371 513.629 177.196 519.601C161.628 525.401 143.452 523.207 127.99 516.586C112.528 509.965 98.0719 498.273 89.7435 483.444C80.4116 467.068 83.7344 447.685 93.1814 431.784C100.618 419.407 113.979 408.879 129.445 408.881C140.793 408.496 150.631 415.717 160.369 422.122C158.662 421.478 156.152 420.918 155.348 421.004C151.131 419.8 145.507 420.401 141.49 420.831C136.569 420.529 131.849 421.861 127.128 423.193C112.263 428.09 100.306 443.432 98.9934 459.291C99.0935 460.108 99.997 460.839 100.7 459.936C104.017 453.791 106.43 446.914 109.847 441.585C113.164 435.44 119.191 431.486 125.318 428.35C133.053 425.041 141.187 425 149.321 424.958C152.635 425.431 155.949 425.904 159.262 426.377C160.066 426.291 160.969 427.022 160.969 427.022C148.215 429.212 136.863 436.216 130.13 447.691C121.386 462.689 129.512 482.504 143.467 490.113C151.398 495.057 161.843 493.94 169.377 488.999C177.714 483.971 183.141 475.118 186.961 466.437C196.008 447.27 196.52 424.878 193.115 403.732C190.211 386.669 184.293 371.582 177.471 355.765C174.16 348.673 170.146 342.484 165.229 335.563C161.215 329.374 157.2 323.184 152.483 317.897C152.383 317.081 152.183 315.448 152.083 314.631C150.579 309.001 148.272 303.456 144.358 298.083C151.685 304.746 158.21 311.494 164.734 318.243C180.594 334.749 194.946 352.243 206.285 371.714C220.035 390.927 229.163 412.289 231.865 434.338ZM200.898 294.523C205.818 294.825 209.432 297.748 213.849 300.585C217.363 302.691 220.174 305.7 222.884 307.893C224.691 309.354 227.302 310.73 229.008 311.375C226.898 314.082 225.592 316.704 223.481 319.411C220.768 323.837 216.448 328.436 211.927 331.401C208.31 335.096 202.884 343.949 196.959 342.1C196.156 342.186 196.156 342.186 195.353 342.272C191.439 336.899 186.721 331.612 182.004 326.325C174.376 317.213 165.241 309.088 157.009 301.695C158.716 302.34 160.423 302.985 162.13 303.63C164.74 305.005 167.451 307.198 170.061 308.573C177.992 313.517 187.43 317.472 197.272 318.075C198.075 317.989 197.975 317.173 197.172 317.259C189.34 313.132 180.906 310.724 173.075 306.597C168.657 303.759 164.14 300.106 159.823 298.085L158.919 297.354C160.526 297.183 161.43 297.913 163.037 297.742C173.781 299.075 185.029 297.873 195.073 293.491C196.78 294.136 198.387 293.964 200.898 294.523ZM262.876 255.635C263.18 251.466 263.483 247.297 263.786 243.128C264.692 237.241 266.502 232.083 268.312 226.926C269.619 224.304 270.022 220.952 272.232 219.061L273.036 218.976C287.294 222.416 303.463 221.515 317.825 219.153L318.628 219.067L317.825 219.153C314.008 221.216 309.387 223.364 305.57 225.427C297.836 228.735 289.098 230.496 280.361 232.257L280.461 233.074C289.499 233.762 298.236 232.001 306.07 229.51C310.791 228.178 315.411 226.03 320.032 223.881C320.835 223.795 320.835 223.795 321.538 222.893C318.625 225.686 315.611 227.663 312.698 230.456C300.24 241.715 290.493 255.166 279.942 268.703C275.722 274.118 272.305 279.447 268.989 285.592C268.889 284.776 268.789 283.959 269.492 283.057C269.795 278.888 270.098 274.719 270.401 270.55C271.711 261.31 278.945 253.918 280.255 244.678C280.155 243.861 279.351 243.947 279.351 243.947C273.824 251.983 270.104 261.481 267.991 270.807C266.885 275.062 266.581 279.231 265.475 283.486C265.075 280.22 263.971 277.855 263.571 274.589C262.87 268.873 262.873 262.254 262.876 255.635ZM330.379 215.33C330.379 215.33 331.083 214.427 330.379 215.33C331.183 215.244 330.379 215.33 330.379 215.33ZM357.059 286.936C355.753 289.558 352.639 290.718 350.429 292.609C345.908 295.573 340.585 298.624 335.964 300.773C332.147 302.835 328.13 303.264 324.213 304.51C317.986 306.83 312.462 308.248 306.034 308.935C303.624 309.192 300.31 308.719 297.096 309.063C300.913 307 304.831 305.754 308.648 303.692C317.085 299.481 325.222 292.82 331.753 286.331C332.456 285.429 331.553 284.698 330.849 285.6C322.412 289.811 316.885 297.848 308.347 301.242C304.43 302.488 300.513 303.734 296.596 304.979C300.313 302.1 303.227 299.307 307.044 297.245C319.601 286.802 329.549 274.984 336.786 260.974C339.399 255.731 342.012 250.488 343.822 245.331C342.716 249.586 342.413 253.755 342.209 258.74C341.703 267.894 341.9 276.146 344.608 284.958L345.411 284.872C345.114 275.803 344.013 266.82 346.227 258.311C347.333 254.056 347.636 249.887 348.743 245.632C349.54 258.784 351.945 271.764 356.659 283.67C356.659 283.67 356.659 283.67 355.856 283.756C356.759 284.486 357.663 285.217 357.059 286.936ZM447.083 410.512C441.35 430.153 425.778 442.572 409.004 451.81C399.863 456.923 389.718 460.489 379.174 460.789C368.629 461.088 359.291 457.95 349.753 453.178C331.581 444.365 316.325 426.14 311.413 405.982C306.601 386.641 313.038 366.098 327.606 352.131C334.136 345.642 343.277 340.529 352.918 339.499C362.559 338.469 371.294 343.326 378.622 349.989C386.853 357.383 391.267 366.838 393.371 377.369C395.676 389.532 392.156 400.663 384.319 409.774L383.615 410.676C388.942 401.006 385.834 388.929 379.01 379.731C375.096 374.358 369.775 370.79 363.751 368.124C358.63 366.19 351.099 364.512 346.479 366.661C345.675 366.747 345.875 368.38 346.679 368.294C352.403 368.51 357.223 367.994 362.344 369.929C367.465 371.864 372.886 376.248 375.896 380.891C382.621 389.272 383.921 399.888 380.201 409.386L380.101 408.57C377.494 400.575 370.969 393.827 364.745 389.528C358.521 385.229 350.187 383.638 342.352 386.13C334.518 388.621 328.288 397.56 328.585 406.629C328.773 434.737 363.712 454.168 387.414 448.326C388.218 448.24 389.021 448.154 389.021 448.154C410.313 442.57 424.278 430.323 432.321 409.608C439.861 391.429 439.67 369.939 432.448 350.856L432.348 350.039C431.244 347.675 430.944 345.225 429.741 342.045C428.737 340.497 427.734 338.95 426.73 337.402C433.154 343.334 437.972 349.438 442.186 357.261C451.318 372.004 452.213 392.591 447.083 410.512ZM524.951 321.943C544.928 338.836 563.895 367.42 565.489 393.723C566.687 410.141 564.571 426.086 561.651 442.117C560.945 449.638 559.335 456.428 557.825 464.035C557.019 470.74 555.006 480.883 556.61 487.33C557.813 490.511 559.117 494.508 560.321 497.688C560.221 496.872 559.417 496.958 559.317 496.141C555.503 491.585 552.492 486.943 550.989 481.312C547.278 470.954 547.484 459.349 546.183 448.733C546.083 447.917 544.476 448.089 544.576 448.905C541.86 459.95 543.461 473.016 548.075 484.105C550.482 490.467 554.396 495.839 558.211 500.396C559.114 501.126 559.214 501.943 560.118 502.674C558.411 502.029 556.604 500.567 555.7 499.837C550.279 495.452 545.662 490.982 541.748 485.609C535.827 477.141 528.702 465.493 528.908 453.889C529.611 452.986 529.611 452.986 530.315 452.084C532.225 447.743 526.804 443.359 524.09 447.785C518.564 455.821 510.426 462.482 499.982 463.598C491.144 464.543 481.103 462.306 473.875 456.46C466.547 449.798 461.329 440.428 460.229 431.445C459.828 428.178 459.528 425.729 460.032 423.193C460.632 428.092 463.643 432.735 468.963 436.303C480.508 444.169 496.577 442.452 506.724 432.267C518.278 420.278 518.688 403.688 514.376 388.43C509.865 371.539 498.826 354.517 483.867 345.361C474.229 339.772 463.988 335.903 453.143 333.753C441.495 331.688 429.947 330.44 419.002 327.473C407.957 323.69 396.109 319.992 386.371 313.587C375.829 307.268 369.005 298.069 363.587 287.066C359.072 276.793 356.165 266.349 354.764 254.917C353.563 245.117 352.263 234.501 355.179 225.089C356.486 222.468 357.693 219.029 358.999 216.408L358.899 215.591C361.413 209.532 365.533 203.3 370.556 197.8C371.963 195.995 373.47 195.006 374.877 193.201C361.109 213.701 365.815 245.463 377.354 266.567C395.918 298.503 429.653 314.753 463.894 321.849C474.739 323.999 485.483 325.333 495.925 330.836C503.756 334.963 511.084 341.625 516.805 348.46C527.343 361.398 535.872 377.86 536.266 394.364C536.66 410.868 528.62 424.964 516.966 436.137C511.842 440.821 505.111 445.677 497.981 447.266C489.243 449.027 481.512 445.717 475.188 440.601C473.481 439.956 472.074 441.761 473.781 442.406C497.471 463.039 525.4 438.545 535.754 416.756C547.917 389.81 535.077 358.089 513.997 338.832C506.669 332.169 499.542 327.14 490.204 324.001C480.062 320.948 468.514 319.701 458.373 316.648C437.387 311.445 416 302.975 400.341 288.102C385.585 273.96 375.15 255.22 372.649 234.805C370.648 218.472 374.27 201.539 384.118 188.905C382.811 191.526 382.308 194.062 381.804 196.598C381.201 198.317 379.894 200.938 379.291 202.657C378.788 205.193 379.188 208.459 378.685 210.995C377.978 218.516 378.879 225.866 379.779 233.215C383.587 251.009 392.116 267.471 407.978 277.358C416.109 283.935 425.748 289.524 435.789 291.76C437.496 292.405 438.299 292.319 439.906 292.147C445.027 294.082 449.244 295.286 451.754 295.845C468.22 304.013 508.688 308.789 524.951 321.943ZM385.706 228.446L385.807 229.262C396.042 246.369 410.898 261.328 430.377 267.519C451.563 274.356 470.042 272.381 488.124 260.521C488.927 260.435 488.827 259.619 489.63 259.533C509.019 245.051 517.271 206.114 496.391 188.489C489.967 182.558 479.222 181.224 471.588 185.349C464.757 189.388 460.737 196.436 459.227 204.043C457.718 211.65 458.918 221.449 463.836 228.37C463.836 228.37 463.936 229.186 464.739 229.1C455.301 225.145 447.873 217.666 446.573 207.05C445.872 201.334 445.975 195.531 447.685 189.558C449.495 184.4 453.112 180.705 456.729 177.009C457.432 176.106 456.529 175.376 455.726 175.462C450.302 177.696 447.085 184.658 445.275 189.815C443.565 195.789 442.759 202.494 444.262 208.124C446.467 219.471 453.291 228.669 464.236 231.636C463.433 231.722 463.433 231.722 462.629 231.808C450.378 231.462 440.136 227.593 432.408 217.664C425.684 209.282 421.973 198.924 421.475 188.222C421.178 179.153 423.995 168.925 430.525 162.436C437.859 155.861 447.2 152.381 456.038 151.436C475.42 150.192 495.099 158.017 506.942 174.952C518.784 191.888 523.192 214.581 517.459 234.222C514.643 244.45 510.923 253.948 503.689 261.34C496.455 268.731 487.314 273.844 478.073 278.141C460.195 285.015 440.209 287.978 421.233 279.251C404.064 271.986 390.012 256.941 383.793 239.405C381.186 231.41 379.382 223.33 379.185 215.078C379.385 216.711 380.389 218.259 380.589 219.892C382.696 223.803 384.603 226.082 385.706 228.446ZM372.782 162.815C374.492 156.841 379.615 152.157 384.036 148.376C388.456 144.594 393.78 141.543 398.3 138.578C400.61 137.504 403.624 135.527 405.934 134.453C405.934 134.453 405.934 134.453 406.738 134.367C406.234 136.903 405.731 139.439 406.131 142.705C405.928 147.691 405.625 151.86 404.619 156.931C403.612 162.002 400.899 166.429 398.185 170.855C395.472 175.282 390.048 177.516 386.331 180.395C375.283 183.23 365.939 193.329 359.709 202.268C354.885 209.402 351.768 217.181 350.259 224.788C348.952 227.409 347.645 230.031 345.535 232.738C342.318 239.7 339.102 246.663 335.182 254.527C327.342 270.256 316.691 282.977 304.233 294.236C291.776 305.495 278.214 314.389 264.653 323.284C257.923 328.14 251.192 332.996 245.265 337.766C245.365 338.582 244.662 339.485 243.858 339.571C247.375 335.058 251.795 331.277 255.312 326.764C260.236 320.447 265.963 314.044 271.69 307.641C283.847 293.932 296.005 280.224 306.455 265.87C307.159 264.967 306.255 264.237 305.552 265.139C293.294 278.031 281.137 291.74 268.98 305.449C263.253 311.852 257.626 319.072 251.899 325.475C249.085 329.085 246.171 331.878 243.358 335.488C244.665 332.866 245.168 330.33 246.475 327.709C257.228 309.186 269.189 287.226 281.749 270.165C291.397 255.897 302.047 243.176 314.505 231.918C320.332 226.331 327.062 221.475 333.793 216.62C339.017 212.752 344.341 209.701 347.757 204.372C349.968 202.482 352.178 200.591 354.288 197.883C361.422 189.675 367.552 179.92 369.465 168.961C370.972 167.972 372.178 164.534 372.782 162.815ZM254.914 97.6436C256.124 87.5867 258.84 76.5415 265.171 68.4193C271.401 59.4804 278.835 53.7222 288.779 48.5231C306.258 38.3823 328.954 37.6116 347.83 45.5222C365.902 53.5186 378.648 71.1846 381.853 90.6975C383.053 100.497 382.647 110.468 377.12 118.504C372.397 126.455 363.256 131.568 354.518 133.329C344.174 135.262 333.429 133.928 323.891 129.156C312.646 123.739 306.625 114.455 303.517 102.378C303.417 101.561 303.417 101.561 303.317 100.744C308.635 110.931 319.78 115.531 330.324 115.232C336.852 115.362 343.079 113.042 347.599 110.077C352.12 107.112 358.047 102.342 358.953 96.4537C358.853 95.6371 357.95 94.9063 357.247 95.8088C353.73 100.321 351.82 104.662 347.299 107.627C342.779 110.592 336.451 112.095 330.828 112.696C320.283 112.996 310.745 108.224 305.627 99.6702C305.627 99.6702 306.431 99.5843 306.531 100.401C314.162 102.895 322.999 101.95 330.733 98.642C337.664 95.4194 344.295 89.7471 345.805 82.14C348.018 73.6305 344.407 64.0887 337.179 58.2426C314.792 41.6068 279.435 58.6219 270.789 81.0558C270.889 81.8724 270.085 81.9583 270.185 82.7749C262.946 103.404 265.247 122.186 276.586 141.657C286.821 158.764 303.787 171.015 323.266 177.206L324.07 177.121C326.58 177.68 329.191 179.055 331.701 179.614C333.408 180.259 335.015 180.088 336.622 179.916C328.687 181.591 320.553 181.633 312.319 180.858C294.143 178.664 276.474 167.315 265.735 152.744C254.093 137.442 252.395 116.941 254.914 97.6436ZM189.534 108.767C177.388 96.0003 158.612 88.9064 141.44 88.2595C125.875 87.4409 110.107 91.6078 101.263 105.79C93.8261 118.167 95.8271 134.499 105.965 144.17C110.583 148.641 115.604 149.759 120.524 150.06C118.214 151.135 115.804 151.392 112.59 151.736C102.949 152.766 92.8075 149.713 85.5797 143.867C77.5484 138.107 73.1341 128.651 72.8369 119.582C71.5363 108.966 76.0597 99.3825 82.4901 92.077C86.107 88.3812 79.7827 83.2659 76.1657 86.9616C75.3623 87.0475 75.4624 87.8641 74.759 88.7666C64.5146 91.5159 51.8629 87.904 41.5214 83.218C36.1005 78.8334 29.9763 75.3513 25.3589 70.8809C23.5519 69.4194 22.6484 68.6886 20.8415 67.2271C21.6449 67.1413 22.5484 67.872 23.4519 68.6028C29.476 71.2683 35.5002 73.9337 41.3243 74.966C52.9725 77.0305 65.8273 75.6568 75.7715 70.4577C76.575 70.3718 76.3749 68.7386 75.5714 68.8244C65.1269 69.9405 54.0791 72.7757 43.3344 71.442C38.3137 70.3239 33.193 68.3892 27.9723 65.6378C27.1688 65.7237 27.1688 65.7237 26.2654 64.9929C29.5791 65.4661 32.9929 66.7559 37.01 66.3267C43.5375 66.4564 52.7784 62.1598 59.0057 59.8397C66.0364 57.4338 72.9671 54.2113 79.0943 51.0746C93.8592 45.3603 108.624 39.646 124.592 37.1123C150.102 32.7318 181.73 45.0709 202.41 61.0617C219.476 74.1295 232.412 113.285 242.948 132.842C244.955 135.937 247.062 139.848 249.169 143.759C249.369 145.393 250.273 146.123 250.473 147.756C254.887 157.212 262.415 165.508 270.547 172.085C283.495 184.766 301.168 189.496 319.143 190.057C326.474 190.101 333.605 188.511 340.636 186.105C342.946 185.031 346.16 184.688 348.47 183.614C350.78 182.539 353.09 181.465 354.497 179.66C356.004 178.672 358.314 177.598 360.524 175.707C350.677 188.342 336.112 195.689 319.24 197.492C299.155 199.638 278.972 194.349 262.006 182.098C244.137 169.116 231.191 149.817 221.559 130.991C216.241 120.804 213.333 110.36 207.312 101.076C202.194 92.5223 195.67 85.7737 187.739 80.8301C164.549 64.2802 131.311 58.7316 108.306 76.9087C89.0175 92.2067 72.7339 125.384 97.8312 144.212C99.5381 144.857 100.945 143.052 99.2379 142.407C92.8135 136.476 87.8959 129.555 87.6988 121.303C89.912 112.794 92.2252 105.101 96.3454 98.8694C103.582 84.8592 116.04 73.6004 131.908 70.2501C147.777 66.8998 166.152 70.7273 181.011 79.0671C187.939 82.4634 195.167 88.3094 200.888 95.1438C207.612 103.526 212.227 114.615 216.741 124.887C231.288 157.252 254.472 187.04 289.213 198.219C312.006 204.883 343.44 202.352 359.918 184.045C358.511 185.85 357.908 187.569 356.501 189.374C350.974 197.41 343.74 204.802 335.303 209.012C326.162 214.126 314.914 215.328 305.273 216.358C294.828 217.474 283.38 217.043 272.536 214.892C260.787 212.011 251.249 207.239 242.014 198.299C233.683 190.089 226.658 179.257 221.341 169.07C216.023 158.884 212.112 146.892 207.597 136.619C203.083 126.347 197.062 117.063 189.534 108.767ZM136.286 159.131C152.258 149.979 171.34 146.285 189.112 151.832C196.744 154.325 204.575 158.452 211.602 162.665C209.895 162.02 208.189 161.375 206.482 160.73C203.971 160.171 201.461 159.612 198.247 159.956L197.444 160.042C177.661 158.019 157.776 161.799 141.301 173.487C123.32 186.163 114.776 202.795 114.264 225.187C114.364 226.003 114.464 226.82 114.464 226.82C114.252 251.662 140.75 281.923 167.666 275.737C175.6 274.062 182.734 265.854 184.144 257.43C184.85 249.909 181.439 242 175.818 235.983C170.197 229.965 162.366 225.838 154.132 225.063L153.328 225.149C161.566 219.305 172.01 218.189 181.548 222.961C186.769 225.712 191.287 229.366 195.101 233.922C198.111 238.564 198.711 243.464 200.215 249.094C200.315 249.911 201.922 249.739 201.822 248.923C202.729 243.035 199.518 236.759 196.507 232.117C192.593 226.744 187.976 222.274 181.952 219.608C171.61 214.922 160.162 214.491 151.321 222.054L152.025 221.152C158.958 211.31 168.803 205.295 180.954 204.824C191.499 204.524 202.443 207.491 210.475 213.251C217.703 219.097 224.327 226.662 226.331 236.376C227.532 246.175 225.419 255.501 219.992 264.354C209.841 281.158 192.463 292.115 172.177 292.628C151.792 292.325 131.009 282.136 118.363 265.287C111.638 256.905 106.521 248.352 104.417 237.821C102.312 227.291 103.422 216.418 106.239 206.189C109.661 187.623 118.808 169.272 136.286 159.131ZM39.5572 206.696C38.0565 194.447 36.5557 182.198 31.1378 171.195C37.5652 170.508 44.1927 171.454 50.0168 172.486C57.4477 173.347 65.5821 173.305 72.5097 176.701C78.5339 179.367 83.9548 183.751 88.5722 188.222C92.2862 191.961 93.5899 195.959 94.8935 199.956C93.6869 203.394 93.3837 207.563 92.1771 211.001C91.0675 221.874 90.8614 233.479 93.7689 243.923C95.3727 250.37 98.5834 256.645 102.598 262.835C101.694 262.104 101.694 262.104 100.791 261.373C94.5663 257.075 89.1454 252.69 84.3279 246.587C78.5068 238.936 75.7994 230.124 73.092 221.313C70.3846 212.502 66.9738 204.594 60.3493 197.029C60.2492 196.212 59.5458 197.115 59.6459 197.931C69.9813 215.855 70.1724 237.344 82.8181 254.194C87.6356 260.297 93.0565 264.682 99.3808 269.797C101.188 271.259 104.702 273.365 108.216 275.471C102.892 278.522 97.768 283.206 94.2511 287.719C91.4376 291.329 89.4275 294.853 87.4175 298.377C83.4004 298.806 78.2796 296.871 73.9624 294.851C68.7416 292.099 64.2242 288.445 60.5102 284.706C51.2754 275.765 46.4608 263.043 44.0566 250.063C40.6488 235.535 41.3582 221.395 39.5572 206.696ZM43.9204 328.671C45.027 324.416 44.4267 319.517 44.7299 315.348C44.933 310.362 46.7429 305.205 47.8495 300.95C49.6595 295.793 50.666 290.722 54.1829 286.209C56.9934 289.218 58.8003 290.68 60.7073 292.958C65.2247 296.612 72.2524 300.824 78.88 301.771C76.6698 303.662 75.263 305.466 73.7562 306.455C68.6325 311.139 63.7089 317.456 58.5852 322.14C58.5852 322.14 58.6852 322.957 59.4887 322.871C64.8125 319.82 69.9362 315.136 74.3566 311.355C76.5667 309.464 79.5803 307.487 81.7905 305.596C81.7905 305.596 82.5939 305.51 83.2973 304.608C82.0907 308.046 80.884 311.484 80.4808 314.837C79.071 323.26 79.3682 332.329 81.1721 340.409C81.1721 340.409 81.1721 340.409 80.3687 340.495C81.1721 340.409 80.3687 340.495 80.3687 340.495C79.5653 340.581 77.9584 340.753 77.155 340.838C74.7447 341.096 72.3344 341.354 69.9242 341.611C65.1036 342.126 61.0865 342.555 56.0658 341.437C52.7521 340.964 48.6349 340.577 45.3211 340.104C41.1039 338.9 43.5172 332.023 43.9204 328.671Z" fill="#F2E2D3"/>
</g>
</svg>
