<svg width="760" height="456" viewBox="0 0 760 456" fill="none" xmlns="http://www.w3.org/2000/svg">
<path d="M405.538 219.569C402.499 230.98 394.318 240.842 385.917 248.968C376.188 257.263 365.133 262.2 352.917 265.08C341.585 267.848 329.148 268.992 317.484 269.156C311.68 269.455 305.765 268.886 300.237 267.827C295.207 267.145 291.337 264.993 286.97 262.463C286.472 262.085 286.859 261.595 287.357 261.972C291.613 263.634 297.086 264.26 302.061 264.507C307.534 265.133 313.338 264.834 318.7 264.591C329.368 263.672 340.368 261.829 350.816 259.175C362.59 256.351 372.705 251.093 382.102 243.722C391.057 236.407 397.026 226.828 404.488 218.38C404.875 217.89 405.814 218.211 405.538 219.569Z" fill="#F2E2D3"/>
<path d="M384.644 228.406C383.373 236.064 373.865 242.567 367.619 246.45C359.328 251.916 350.65 254.345 340.865 255.152C340.423 255.208 340.368 254.774 340.81 254.718C349.157 253.213 357.559 248.614 364.634 244.185C367.951 241.998 371.212 239.378 374.473 236.757C377.292 234.193 379.945 230.328 383.206 227.707C383.538 226.783 384.975 227.482 384.644 228.406Z" fill="#F2E2D3"/>
<path d="M468.712 87.6094C473.631 80.3681 479.048 73.5044 484.465 66.6406C486.068 65.1135 487.173 63.2088 488.776 61.6816L489.992 60.6447C490.379 60.1544 490.766 59.6641 491.153 59.1739L493.972 56.6098C496.017 55.0263 498.007 53.0088 500.052 51.4253L503.313 48.8048L506.574 46.1844C511.881 41.9804 517.629 37.7201 523.931 34.2711C526.86 32.5749 530.177 30.3883 533.604 29.0696C536.976 27.3169 540.403 25.9982 543.388 24.7358C546.815 23.4171 550.242 22.0983 553.725 21.2135C557.207 20.3286 560.69 19.4438 563.785 19.0492C567.323 18.5983 570.418 18.2036 573.569 18.243C575.338 18.0175 576.72 18.2823 578.544 18.4907C580.368 18.6992 581.75 18.964 583.132 19.2287C585.896 19.7583 588.66 20.2879 591.093 21.7417C592.53 22.4404 593.912 22.7052 594.907 23.4602C596.344 24.1589 597.339 24.914 598.334 25.669C602.812 29.0668 606.074 33.5015 606.24 38.3307C606.351 42.7261 605.08 46.8567 602.427 50.7225C602.04 51.2127 601.653 51.703 601.266 52.1933C604.804 51.7423 608.839 51.6689 612.045 52.1421C615.638 52.1251 618.457 53.0886 620.724 53.2406C623.488 53.7702 626.694 54.2434 629.513 55.2069C632.332 56.1704 635.152 57.1339 637.584 58.5876C644.383 62.5714 650.851 67.4793 658.038 70.9727C665.666 74.4099 674.345 75.5084 681.862 71.0225C687.722 67.63 693.304 62.0679 694.243 55.334C695.459 47.2419 691.755 42.8636 685.729 37.8993C685.232 37.5218 684.734 37.1443 684.237 36.7668L682.855 36.502C681.473 36.2372 681.252 34.5016 682.468 33.4647C682.412 33.0308 682.855 32.9744 683.242 32.4841C683.629 31.9939 684.126 32.3714 684.181 32.8053C692.307 29.5648 699.77 31.7002 705.74 36.2306C711.71 40.7609 716.244 48.1202 718.953 55.271C724.482 70.4404 723.156 88.2473 712.267 101.541C700.549 115.381 683.414 121.975 666.609 124.117C662.187 124.681 657.71 124.81 653.232 124.94C648.699 124.636 644.609 124.276 640.407 123.047C638.528 122.405 636.648 121.763 634.714 120.686C641.514 131.725 644.887 147.61 649.697 157.139C650.36 158.818 649.199 160.289 647.873 160.458C636.154 163.716 624.988 164.257 613.545 162.629C603.484 161.266 592.484 159.581 582.147 156.049L577.448 154.443C576.011 153.744 574.629 153.479 572.749 152.837L568.051 151.231C566.613 150.533 564.789 150.324 563.352 149.625L553.899 145.98C550.638 145.073 547.321 143.732 544.059 142.825C542.18 142.182 540.798 141.917 538.918 141.275C537.979 140.954 537.094 141.067 536.155 140.746C535.215 140.424 534.33 140.537 533.446 140.65C529.798 140.233 526.205 140.25 522.611 140.267C515.425 140.301 508.405 141.637 501.109 144.331C486.958 149.662 474.079 157.918 462.25 167.363C451.25 176.261 441.854 187.16 436.271 199.777C435.94 200.701 435.608 201.625 435.277 202.55L434.282 205.322L432.292 210.867C431.961 211.791 431.574 212.281 431.684 213.149C432.071 212.659 432.071 212.659 432.458 212.169C439.81 202.854 448.985 193.747 459.598 185.339C480.381 168.579 507.245 157.218 533.226 156.552C535.437 156.27 537.261 156.479 539.528 156.631C541.794 156.783 543.563 156.557 545.829 156.709C549.92 157.07 554.508 157.808 558.267 159.093C566.227 161.605 573.524 165.967 577.615 173.382C579.384 176.684 580.822 180.911 580.988 185.74C581.154 190.569 579.994 195.568 577.396 199.867C575.185 203.677 571.979 206.731 568.607 208.484C568.165 208.54 567.778 209.03 567.336 209.087C569.271 210.163 570.874 212.163 571.98 213.786C573.528 215.353 574.633 216.975 575.297 218.655C577.066 221.957 579.277 225.202 579.83 229.541C580.605 235.616 580.55 242.237 581.711 247.822C582.872 253.406 585.747 258.331 591.938 257.542C594.149 257.26 596.802 256.922 599.345 255.716C601.888 254.51 604.817 252.813 607.25 250.74C613.274 245.121 613.993 240.179 614.49 233.502C614.434 233.068 614.379 232.634 614.766 232.144C614.711 231.71 614.711 231.71 614.213 231.332C613.66 230.521 614.766 228.616 615.706 228.937C616.148 228.881 616.092 228.447 616.535 228.39C616.977 228.334 617.032 228.768 617.032 228.768C623.002 229.771 625.048 235.242 624.993 241.864C624.496 248.541 621.843 255.935 617.698 262.195C609.131 276.075 596.252 287.858 583.981 293.832C570.825 299.918 561.262 298.933 553.522 294.628C551.588 293.552 549.598 292.041 547.994 290.041C546.391 288.041 544.788 286.04 544.014 283.493C543.406 282.248 543.24 280.946 543.074 279.644C539.647 291.546 532.02 305.747 528.317 315.479C527.599 316.893 526.383 317.93 525.885 317.552C519.804 315.682 515.271 311.85 511.788 305.68C508.361 299.943 505.32 293.717 502.943 285.642C500.399 276.265 498.519 265.04 495.81 254.362C493.045 243.249 488.346 234.589 480.606 230.284C472.867 225.979 464.189 224.88 455.731 225.517C453.962 225.743 452.193 225.968 450.424 226.194C452.304 226.836 453.797 227.969 454.847 229.158C459.048 233.913 456.064 242.231 454.959 247.663C453.522 254.02 450.703 260.111 446.337 264.636C450.151 266.355 453.855 270.733 456.011 273.545C459.77 278.357 462.755 284.15 465.299 289.999C471.104 303.811 471.326 319.656 470.056 334.37C469.559 348.102 464.143 362.021 456.847 375.298C452.757 381.992 448.169 388.31 442.144 393.928C439.325 396.492 436.009 398.679 432.637 400.431C428.878 402.674 425.23 405.785 421.361 407.16C420.476 407.273 420.034 407.329 419.537 406.952L419.15 407.442C418.376 408.422 416.883 407.29 417.16 405.932C418.541 399.141 422.3 393.371 424.123 386.524C425.892 379.244 425.007 372.301 424.066 364.925C423.126 357.549 422.186 350.172 419.919 342.965C417.708 336.192 413.34 330.134 409.415 324.02C402.781 314.283 394.986 306.017 384.759 299.824C387.026 303.504 387.579 307.843 387.69 312.238C388.243 316.577 387.525 321.519 387.691 326.349C387.415 331.234 387.581 336.063 387.25 340.515C386.973 341.873 385.702 342.476 384.375 342.645C373.154 342.753 361.877 338.899 350.877 337.215C345.349 336.155 340.208 334.606 335.398 332.132C332.414 343.977 317.987 350.667 307.761 355.057C299.249 358.788 291.233 359.368 281.781 359.25C274.595 359.285 265.806 360.846 259.393 356.372C257.9 355.239 258.508 352.957 260.277 352.732C273.046 350.663 279.457 333.972 283.05 323.372C285.316 316.469 287.084 309.188 287.083 302.133C286.862 293.342 282.328 285.983 278.182 278.134C266.96 274.713 255.628 270.426 244.683 265.648C245.789 270.798 240.04 278.586 237.774 281.961C234.734 286.317 232.192 291.051 229.207 295.841C225.836 301.121 219.645 305.438 217.71 311.417C217.047 313.265 213.952 313.66 213.233 311.547C208.976 302.829 199.855 298.26 193.166 291.616C190.567 288.861 188.798 285.559 187.471 282.2C185.924 287.689 183.879 292.8 180.894 297.59C171.222 313.374 153.423 328.871 133.468 327.446C113.955 325.965 97.5914 310.413 91.7308 292.64C88.1923 282.508 86.6436 270.359 91.1758 260.081C94.9893 251.216 100.904 244.73 107.813 238.999C107.868 239.433 107.924 239.867 108.476 240.678L108.532 241.112C108.587 241.546 108.642 241.98 109.14 242.357C109.803 244.037 110.411 245.282 111.075 246.961C111.13 247.395 111.13 247.395 111.572 247.339C112.236 249.018 112.955 251.131 114.06 252.754C117.654 259.792 123.348 265.681 131.253 267.76C146.233 272.464 159.775 255.305 154.412 241.437C144.903 216.192 119.309 212.84 95.2081 217.676C76.3585 221.402 64.309 236.166 57.4557 252.914C49.8839 271.076 49.7747 291.374 56.5752 309.468C59.229 316.185 62.3249 322.845 66.637 328.469C67.1899 329.28 67.7428 330.092 68.7931 331.281C66.582 331.563 64.8131 331.788 62.602 332.07C62.602 332.07 62.1598 332.126 62.1045 331.692C59.7275 330.672 56.9635 330.143 54.2549 330.047C53.7573 329.67 52.7623 328.915 52.2648 328.537C40.1029 317.741 30.3732 304.871 26.0603 288.664C20.9735 269.911 21.9117 249.067 30.9208 231.603C37.7744 218.383 48.9398 207.259 61.8189 199.003C59.055 198.473 56.678 197.454 54.3009 196.434C47.1699 193.374 41.1443 188.41 36.3347 182.409C30.5854 176.086 28.2631 168.445 25.8856 160.37C23.3974 151.428 17.8139 142.879 17.5368 133.655C17.2603 131.485 18.9185 130.392 20.798 131.034C53.6336 138.314 85.5277 120.579 118.087 122.161C126.71 122.825 135.499 124.792 143.625 128.606C144.786 127.136 146.389 125.608 147.163 124.628C150.369 121.573 153.685 119.387 157.444 117.144C163.303 113.751 169.273 111.227 175.298 109.136C178.781 108.251 182.318 107.8 185.303 106.538C187.846 105.332 190.389 104.126 192.987 103.354C196.414 102.035 199.565 102.074 202.108 104.396C203.656 105.962 204.374 108.075 205.038 109.755C206.254 112.245 207.526 115.17 208.742 117.66C211.175 122.642 212.336 128.226 212.613 133.923C212.778 135.225 212.502 136.583 212.668 137.885C212.834 139.186 213 140.488 213.166 141.79C213.221 142.224 212.834 142.714 212.89 143.148C212.945 143.582 213 144.016 213.055 144.449C214.88 144.658 217.091 144.376 218.915 144.584C233.84 145.328 248.213 148.787 262.64 149.153C264.464 149.361 266.067 151.362 264.907 152.832C258.882 165.506 254.737 178.822 250.095 191.76C246.834 201.436 240.754 210.148 233.016 216.426C228.539 220.083 223.84 222.005 218.644 223.549C220.413 223.323 221.74 223.154 223.508 222.929C228.815 222.252 234.122 221.576 239.815 220.409C245.896 218.752 251.257 214.982 255.624 210.457C259.217 206.912 261.759 202.179 265.352 198.634C265.297 198.2 265.242 197.766 265.684 197.71C266.126 197.654 266.071 197.22 266.513 197.163C266.513 197.163 266.513 197.163 266.955 197.107C274.418 195.715 293.656 226.775 285.531 237.07C305.818 237.571 326.603 234.922 344.844 226.423C355.014 221.599 364.522 215.096 371.542 206.705C378.174 198.804 382.32 189.016 377.067 179.544C372.976 172.128 361.644 167.84 353.187 168.477C344.729 169.115 338.151 173.922 334.061 180.616C327.981 189.328 326.821 201.382 328.149 211.795C328.481 214.399 326.435 215.982 324.169 215.83C323.395 216.811 322.069 216.98 321.073 216.225C304.158 206.916 287.96 192.666 285.416 172.706C282.485 153.237 294.369 133.644 308.961 121.201C323.554 108.758 343.177 104.052 361.695 108.306C379.716 112.182 395.084 123.451 406.693 136.964C416.147 147.665 423.223 160.873 426.375 175.023C431.294 160.726 436.71 146.807 443.398 132.285C449.588 117.386 458.431 102.148 468.712 87.6094ZM418.198 227.215C417.977 229.007 418.142 230.309 417.921 232.101L418.364 232.044C419.58 231.007 420.796 229.97 421.514 228.556C421.846 227.632 422.233 227.142 422.564 226.217C421.238 226.387 419.469 226.612 418.087 226.347C418.584 226.725 418.64 227.159 418.198 227.215ZM435.721 227.186C436.163 227.13 436.163 227.13 435.721 227.186C435.223 226.809 434.339 226.921 433.841 226.544C431.575 226.392 429.308 226.24 426.6 226.144C422.896 232.348 420.188 239.308 419.249 246.042L419.747 246.419C420.686 246.74 421.515 246.194 422.345 245.647C423.174 245.101 423.948 244.12 424.721 243.139C425.495 242.159 425.772 240.801 426.545 239.82C427.319 238.84 427.595 237.482 428.425 236.935C429.198 235.955 429.917 234.54 430.691 233.56C431.465 232.579 432.183 231.165 432.957 230.184C433.344 229.694 433.731 229.204 434.118 228.713C434.947 228.167 435.334 227.676 435.721 227.186ZM462.917 218.428C470.158 218.828 477.952 220.039 484.31 224.079C490.722 228.553 496.029 234.932 499.015 244.252C502.222 255.308 504.157 266.967 506.701 276.344C509.078 284.419 511.787 291.57 515.27 297.74C518.753 303.91 522.899 308.232 527.709 310.706C530.749 302.822 534.673 294.826 537.27 286.999C540.586 277.757 541.415 270.155 541.249 261.798C541.083 260.497 544.565 259.612 544.565 259.612C546.002 260.31 546.721 262.424 546.998 264.593C547.274 266.763 547.164 269.422 547.44 271.592C547.827 274.629 548.602 277.176 549.818 279.667C550.979 281.724 552.582 283.724 554.517 284.8C560.985 289.708 569.498 293.032 580.608 288.53C586.191 286.495 591.608 283.159 596.859 278.521C602.11 273.883 607.251 268.377 611.396 262.117C615.155 256.346 619.189 249.218 619.3 243.03C619.41 240.371 618.636 237.824 617.972 236.144C617.696 237.502 617.807 238.37 617.088 239.785C614.988 244.462 612.003 249.252 607.913 252.419C603.436 256.076 598.793 258.432 594.481 259.863C590.114 260.861 586.521 260.878 583.149 259.103C579.279 256.951 576.902 252.403 576.128 246.329C575.464 241.122 575.077 234.557 573.529 229.463C572.754 226.916 571.594 224.859 570.433 222.802C569.272 220.746 567.668 218.745 566.12 217.179C564.573 215.612 563.135 214.913 561.256 214.271C559.376 213.629 557.497 212.987 556.06 212.288C555.12 211.967 554.843 209.797 556.059 208.76C557.275 207.723 558.049 206.743 559.321 206.14C559.707 205.65 560.15 205.593 560.537 205.103C563.908 203.35 567.446 202.899 570.597 199.411C574.576 195.376 576.124 189.888 575.516 185.115C575.184 182.511 574.907 180.342 573.746 178.285C573.027 176.172 571.922 174.549 570.374 172.983C567.72 169.793 564.293 167.584 560.479 165.866C558.599 165.223 556.664 164.147 554.785 163.505C552.905 162.863 550.584 162.277 548.759 162.068C540.468 160.479 531.568 161.173 523.166 162.244C498.401 165.401 474.301 177.292 455.618 192.901C446.277 200.706 437.93 209.266 431.408 218.035C431.021 218.525 430.69 219.449 430.303 219.94C431.685 220.204 433.454 219.979 434.836 220.244C435.223 219.753 435.61 219.263 435.996 218.773C437.212 217.736 438.373 216.265 439.589 215.228C442.021 213.155 444.951 211.458 447.881 209.762C453.74 206.369 460.207 204.222 466.73 202.509C479.388 199.572 492.876 199.617 505.369 202.434C517.862 205.251 529.747 210.35 539.753 218.335C544.784 222.544 549.372 226.81 552.744 232.112C556.061 236.981 559.876 242.227 561.148 248.679C561.203 249.113 560.429 250.093 560.374 249.66C558.715 247.225 557.002 244.357 555.343 241.923C553.629 239.055 551.971 236.62 549.87 234.242C546.166 229.864 542.02 225.542 537.045 221.767C527.149 214.65 516.093 209.004 504.098 206.565C491.605 203.748 478.559 203.647 465.846 206.149C463.248 206.921 460.152 207.316 457.554 208.088C454.956 208.86 451.916 209.689 449.373 210.895C448.102 211.498 446.83 212.101 445.559 212.704C444.288 213.307 443.072 214.343 441.8 214.946C440.584 215.983 439.313 216.586 438.539 217.567C437.71 218.114 437.378 219.038 436.991 219.528C439.258 219.68 441.524 219.832 443.846 220.418C449.54 219.251 456.173 218.406 462.917 218.428ZM414.611 322.476C418.536 328.59 422.959 335.082 425.17 341.855C427.493 349.496 428.488 357.306 429.484 365.116C430.479 372.927 430.48 379.982 428.711 387.262C427.772 390.469 426.888 394.109 425.119 397.862C428.436 395.675 431.807 393.923 434.626 391.359C440.32 386.664 444.963 380.781 448.666 374.577C457.067 362.923 462.041 349.061 464.251 334.669C466.572 321.144 466.184 307.524 462.701 294.299C461.097 288.771 458.167 283.412 454.408 278.6C452.75 276.166 450.649 273.788 448.161 271.9C446.116 269.956 442.412 269.105 441.638 266.558C441.583 266.124 441.527 265.69 441.472 265.257L441.417 264.823C441.417 264.823 441.362 264.389 441.804 264.332C441.804 264.332 441.748 263.898 442.191 263.842C446.557 259.317 449.708 252.301 450.702 246.001C451.531 241.927 455.4 233.497 451.033 230.967C448.601 229.513 445.781 228.549 442.575 228.076C439.646 229.772 437.158 231.412 434.781 233.92C433.234 235.881 431.686 237.842 430.138 239.803C429.365 240.784 428.591 241.764 428.259 242.689C427.485 243.669 427.154 244.593 426.38 245.574C425.606 246.554 424.832 247.535 424.003 248.081C423.174 248.628 421.903 249.231 420.963 248.91C421.074 249.778 418.586 247.89 417.646 247.569C417.149 247.191 416.54 245.946 416.927 245.456C417.369 241.872 418.254 238.232 419.58 234.535C418.309 235.138 416.982 235.307 416.098 235.42C415.213 235.532 414.66 234.721 414.605 234.287C413.5 236.192 412.394 238.097 410.902 240.492C402.335 254.371 389.898 266.098 375.637 274.089C380.391 272.601 385.144 271.114 389.843 269.192C397.582 266.442 404.767 262.88 411.898 258.884C419.029 254.889 425.993 249.592 433.179 246.03C433.621 245.974 434.561 246.295 433.732 246.841C422.733 259.267 405.818 267.596 390.396 273.531C382.27 276.771 373.979 278.71 365.798 281.517C370.828 282.198 376.301 282.824 381.386 283.939C391.06 285.793 400.071 289.495 408.307 294.177C417.042 299.237 426.384 305.542 431.968 314.091C434.787 318.582 436.722 323.185 438.27 328.279C439.044 330.826 439.763 332.94 440.095 335.543C440.924 338.524 440.261 340.372 440.206 343.466C440.206 343.466 439.819 343.956 439.764 343.522C439.1 341.843 437.553 340.277 437.331 338.541C436.557 335.994 436.225 333.391 435.507 331.277C433.959 326.183 431.526 321.202 428.651 316.277C423.123 308.163 413.394 302.348 405.157 297.665C396.92 292.983 388.02 290.149 378.844 288.673C374.698 287.878 370.607 287.518 366.959 287.101C368.341 287.366 369.336 288.121 370.718 288.386C374.477 289.67 378.236 290.955 382.05 292.674C395.76 297.981 406.263 309.871 414.611 322.476ZM366.852 335.619C371.937 336.735 377.465 337.794 382.883 337.985C383.49 328.648 384.595 319.688 382.991 310.633C382.659 308.029 381.941 305.916 380.724 303.425C380.061 301.746 378.568 300.614 378.347 298.878L378.292 298.444C377.794 298.067 377.739 297.633 377.241 297.255C374.698 294.934 371.824 293.536 368.949 292.139C367.07 291.496 365.135 290.42 363.2 289.344C361.763 288.645 360.823 288.324 359.386 287.625C357.009 286.606 354.687 286.02 351.923 285.49C350.597 285.659 349.657 285.338 348.275 285.073C346.451 284.865 345.069 284.6 343.245 284.392C330.42 286.026 317.762 285.435 305.379 283.486C300.791 282.748 296.203 282.01 291.56 280.838C294.489 282.669 297.917 284.878 301.234 286.219C308.862 289.656 317.099 290.811 325.059 293.324C332.135 295.95 338.823 299.065 345.236 303.539C348.221 305.805 350.764 308.126 353.307 310.448C356.347 313.147 358.227 317.317 361.212 319.582C361.71 319.959 361.323 320.45 360.825 320.072C357.453 318.297 354.579 316.9 351.981 314.144C348.94 311.445 345.9 308.746 342.472 306.537C336.06 302.063 328.486 299.06 320.968 296.491C313.45 293.922 305.656 292.71 298.525 289.651C297.585 289.33 296.59 288.575 296.093 288.197C298.138 290.141 299.797 292.575 301.455 295.01C307.979 303.879 315.773 312.145 324.287 318.997C332.302 325.472 341.424 330.041 351.982 331.782C356.736 333.822 361.766 334.504 366.852 335.619ZM290.898 300.324C291.451 308.191 289.406 316.829 286.753 324.223C284.266 332.918 279.845 344.064 272.162 350.776C273.875 350.116 275.202 349.947 276.916 349.288C280.73 347.479 284.488 345.236 288.247 342.993C296.041 337.149 299.136 329.699 303.502 321.647C304.276 320.666 305.713 321.365 305.382 322.289C305.714 331.947 298.252 340.395 290.901 346.182C287.197 348.859 282.996 351.158 278.243 352.646C274.815 353.965 270.891 354.906 266.8 354.546C266.8 354.546 266.358 354.602 266.413 355.036C271.001 355.774 276.308 355.098 280.785 354.968C289.298 354.765 296.927 354.674 304.61 351.49C312.68 347.816 326.776 342.05 330.037 332.375C329.484 331.563 329.373 330.696 330.147 329.715C328.212 328.639 326.222 327.129 324.287 326.052C315.387 319.691 307.592 311.424 300.682 303.045C296.978 298.667 294.103 293.742 290.399 289.364C288.741 286.929 286.695 284.985 284.65 283.041C287.967 287.91 290.123 294.249 290.898 300.324ZM191.285 280.391C193.22 284.995 196.814 288.505 200.407 292.016C203.448 294.715 207.317 296.867 210.358 299.566C212.348 301.077 213.951 303.077 215.609 305.511C217.489 302.626 220.308 300.062 222.684 297.554C226.609 293.085 229.925 287.371 232.468 282.638C235.01 277.904 243.025 270.268 240.039 264.476C239.984 264.042 239.929 263.608 239.873 263.174C233.185 260.058 226.938 256.886 220.636 253.279C210.022 247.577 199.353 241.441 189.458 234.324C190.508 235.513 191.614 237.136 192.664 238.325C194.765 240.703 197.308 243.025 199.851 245.346C207.038 252.367 213.119 261.293 216.105 270.613C216.215 271.481 215.331 271.594 214.833 271.216C208.973 264.026 204.329 255.799 197.64 249.156C193.549 245.267 189.072 241.87 185.368 237.491C184.87 237.114 184.815 236.68 184.317 236.302C184.981 237.982 185.589 239.227 186.252 240.906C190.344 251.849 191.395 263.621 189.682 274.863C189.903 276.599 190.124 278.334 191.285 280.391ZM35.3996 249.111C29.6519 267.482 31.0354 288.912 40.8207 305.744C45.354 313.103 51.1586 319.859 57.2949 325.691C56.1892 324.068 55.0835 322.445 54.4201 320.766C53.2038 318.276 51.9322 315.351 51.1582 312.804C51.1029 312.37 51.0475 311.936 50.6053 311.993C43.5837 292.163 42.5871 270.243 50.8774 250.666C59.831 229.241 74.6998 215.44 97.6949 208.981C98.5794 208.869 99.0216 208.812 99.8507 208.266C125.555 201.903 163.09 221.37 163.202 250.459C162.982 259.306 156.515 268.508 147.947 271.805C139.766 274.611 131.032 273.079 123.735 268.718C116.438 264.357 109.694 257.279 106.874 249.261C106.819 248.827 106.763 248.393 106.763 248.393C102.673 258.615 104.498 269.406 111.906 278.163C116.108 282.919 121.083 286.694 126.777 289.055C132.415 290.982 137.722 290.305 143.581 290.44C144.466 290.328 144.632 291.629 143.802 292.176C138.275 294.644 130.425 292.999 124.787 291.072C118.651 288.768 112.736 284.671 108.479 279.481C101.016 270.291 98.0853 257.877 103.502 247.486C103.115 247.976 102.673 248.032 102.728 248.466C94.5476 258.328 90.5683 269.418 93.112 282.322C95.3791 293.057 100.742 303.397 109.31 310.683C116.884 317.214 126.447 321.727 136.618 320.43C147.287 319.512 156.463 313.932 163.648 306.843C178.406 292.175 185.978 270.485 180.725 250.43C175.362 229.507 159.496 210.805 139.485 201.891C128.981 197.056 118.7 193.957 107.533 194.499C96.3674 195.04 85.2015 199.109 75.5282 204.311C57.9505 214.488 41.3682 228.949 35.3996 249.111ZM61.0407 136.487C48.2163 138.122 34.8945 139.379 22.0145 137.052C22.8441 143.561 25.9402 150.222 28.0965 156.561C30.4187 164.202 32.7962 172.277 37.6611 178.712C41.9731 184.336 47.5012 188.922 53.7478 192.095C58.5572 194.568 63.1453 195.306 67.6781 195.61C71.4369 193.368 74.8087 191.615 78.6781 190.24C89.3464 185.793 100.623 182.592 111.9 182.919C119.141 183.318 126.493 184.586 133.127 187.268C132.629 186.89 132.132 186.513 131.579 185.701C125.498 180.303 119.527 175.773 112.341 172.279C103.275 168.144 92.9382 168.138 82.9328 167.209C72.9828 166.714 63.8066 165.238 55.1276 160.611C54.6301 160.234 54.9617 159.31 55.4593 159.687C76.023 165.885 99.0735 159.86 119.085 168.774C126.658 171.777 132.628 176.308 138.709 181.706C140.699 183.216 144.182 185.859 146.393 189.104C148.715 182.635 151.976 176.487 155.789 171.151C158.442 167.285 161.593 163.797 165.241 160.686C164.688 156.347 161.371 151.478 158.275 148.345C154.571 143.967 149.596 140.192 144.234 136.907C132.57 130.016 118.363 127.858 104.986 128.681C90.8351 130.485 76.0762 134.571 61.0407 136.487ZM209.462 144.466C208.965 144.089 208.91 143.655 208.854 143.221C209.131 141.863 208.578 141.052 208.412 139.75C208.08 137.147 207.748 134.543 207.858 131.883C207.25 127.11 206.255 122.828 204.32 118.224C202.551 114.922 202.053 111.017 200.284 107.715C197.906 103.167 191.66 107.05 188.289 108.803C184.032 110.668 179.223 111.722 174.912 113.154C170.213 115.075 165.128 117.487 160.982 120.221C156.394 123.01 150.48 125.969 147.495 130.759C150.37 132.156 152.857 134.044 155.345 135.931C160.32 139.707 166.456 145.539 169.11 152.256C170.16 149.917 171.653 147.522 172.758 145.617C176.406 138.979 181.436 132.606 185.526 125.911C185.913 125.421 186.41 125.798 186.466 126.232C184.144 132.701 180.883 138.849 178.065 144.941C176.241 148.26 174.804 151.089 173.864 154.295C173.919 154.729 173.533 155.22 173.588 155.654C176.904 153.467 180.276 151.714 183.648 149.962C191.387 147.211 200.618 145.594 209.462 144.466C209.518 144.9 209.518 144.9 209.462 144.466ZM230.362 213.236C238.101 206.958 242.799 197.982 245.673 188.796C249.21 177.763 253.133 166.239 257.61 155.526C246.278 154.766 234.78 152.704 223.448 151.944C211.176 150.862 199.126 151.516 187.573 156.076C177.734 159.975 169.498 165.876 162.865 173.776C157.062 181.13 153.58 189.07 151.037 197.331C152.972 198.408 154.52 199.974 156.013 201.107C158.279 201.259 160.103 201.467 161.485 201.732C169.169 202.076 176.852 198.891 183.651 195.82C190.45 192.749 196.807 189.734 203.108 186.285C205.596 184.645 208.028 182.571 211.068 181.742C214.551 180.858 216.983 178.784 220.354 177.031C220.797 176.975 221.294 177.352 220.907 177.843C218.807 182.52 212.008 185.591 207.862 188.324C201.672 192.641 195.425 196.524 188.626 199.595C181.385 202.723 175.084 206.172 167.621 207.564C166.295 207.733 164.526 207.959 163.199 208.128C165.3 210.506 167.843 212.827 169.501 215.262C172.265 215.791 174.698 217.245 177.517 218.208C184.095 220.457 191.06 222.214 197.859 222.671C209.965 222.45 221.408 220.551 230.362 213.236ZM280.501 236.389C282.214 232.202 282.269 229.108 281.219 224.392C280.279 220.543 278.012 216.863 276.188 213.127C274.971 210.637 273.368 208.636 271.71 206.202C270.659 205.013 268.835 201.277 266.9 200.201C273.092 206.467 272.042 219.388 264.58 224.308C263.751 224.854 262.314 224.156 262.645 223.232C264.635 217.687 267.675 209.803 264.744 204.444C263.307 207.273 260.931 209.781 258.996 212.232C254.243 217.247 248.991 221.885 242.137 224.523C236.112 226.614 229.479 227.459 223.288 228.248L222.846 228.305C227.544 229.911 232.685 231.46 237.329 232.632C249.379 235.505 261.651 236.587 273.868 237.234C276.134 237.386 278.4 237.538 280.667 237.69C280.169 237.313 280.556 236.823 280.501 236.389ZM359.153 116.567C339.64 111.558 320.403 119.301 306.917 133.367C295.751 144.491 288.456 161.295 292.216 176.69C295.036 188.236 304.268 197.201 313.334 204.865C312.173 202.808 311.509 201.129 310.957 200.317C309.021 195.714 307.916 190.563 306.865 185.847C305.759 180.696 305.593 175.867 305.869 170.981C307.305 154.042 320.128 138.297 336.49 132.684C337.375 132.571 338.37 133.326 337.596 134.307C332.4 139.379 325.767 143.752 320.571 148.824C315.431 154.329 312.225 160.911 310.899 168.135C309.352 177.152 311.342 185.717 313.775 194.226C314.66 197.641 315.987 200.999 317.756 204.301C318.309 205.113 318.364 205.546 318.917 206.358C318.529 192.738 323.006 178.498 333.01 168.845C346.221 156.137 368.664 159.449 380.549 171.604C387.736 178.625 388.677 189.529 385.803 198.714C382.542 208.39 374.638 216.893 366.899 223.171C348.99 237.8 326.382 243.769 303.276 245.832C285.477 247.219 267.677 245.079 249.767 242.07C241.475 240.481 233.957 237.912 225.941 234.965C218.866 232.34 211.348 229.77 204.659 226.654C203.332 226.823 201.95 226.559 200.624 226.728C194.322 226.649 187.854 225.269 181.774 223.398C190.121 228.948 198.855 234.008 207.147 239.125C227.988 251.02 249.492 261.066 272.432 268.284C294.434 275.18 318.369 279.625 341.752 276.204C361.651 273.667 378.732 263.112 392.218 249.046C405.705 234.981 414.162 216.706 416.648 197.428C418.858 179.508 412.555 161.792 401.719 147.299C392.708 133.014 377.285 121.311 359.153 116.567ZM427.205 185.059L427.26 185.492C428.311 197.264 425.825 209.487 421.403 220.633C422.73 220.464 424.112 220.729 425.438 220.56C425.438 220.56 425.438 220.56 425.881 220.503C427.207 216.807 428.091 213.166 428.644 210.45C429.252 208.168 429.915 206.32 430.523 204.037C431.131 201.755 431.794 199.907 432.844 197.568C433.507 195.72 434.557 193.381 435.663 191.477C436.768 189.572 437.874 187.667 438.979 185.762C446.441 173.788 457.33 164.022 468.827 155.501C479.108 148.017 490.384 141.288 502.49 137.541C505.53 136.712 508.571 135.884 512.053 134.999C515.093 134.17 518.189 133.776 521.284 133.381C524.38 132.987 527.531 133.026 530.682 133.065C532.506 133.274 533.832 133.105 535.657 133.313C537.039 133.578 538.863 133.786 540.245 134.051C543.948 134.902 547.21 135.809 550.471 136.716C553.788 138.057 557.492 138.908 560.808 140.249L565.507 141.855L570.206 143.46C573.523 144.801 576.342 145.765 579.603 146.672C584.744 148.221 589.885 149.771 595.468 151.264C596.85 151.529 598.232 151.794 599.614 152.058C600.996 152.323 602.378 152.588 603.76 152.853C606.524 153.382 609.288 153.912 612.052 154.441C623.053 156.126 633.887 156.509 645.274 154.175C641.57 146.269 639.137 137.761 635.488 130.289C633.111 125.741 630.402 122.118 627.251 118.551C624.1 114.984 620.617 112.341 616.637 109.321C615.144 108.189 619.29 105.455 619.732 105.399C625.426 104.232 631.009 109.253 635.376 111.783C638.804 113.992 643.005 115.22 647.151 116.014C651.297 116.809 655.774 116.679 659.81 116.606C663.403 116.589 667.383 116.081 671.363 115.574C673.131 115.348 675.343 115.067 677.056 114.407C679.267 114.125 680.981 113.466 682.694 112.807C686.564 111.432 690.433 110.056 693.75 107.87C697.121 106.117 700.383 103.497 703.589 100.442C714.367 89.8086 718.678 74.2668 714.586 59.7961C712.817 52.9665 709.61 45.4381 703.695 41.3416C700.765 39.5104 697.891 38.113 695.127 37.5834C695.293 38.8851 696.343 40.0741 696.951 41.3194C699.328 45.8668 700.49 51.4511 699.329 56.4495C696.29 67.8607 686.174 76.6462 673.848 78.6584C665.888 79.673 658.038 78.0279 651.294 74.478C644.55 70.9282 638.579 66.3978 631.504 63.7722C624.483 61.5804 617.076 59.8789 609.447 59.9694C602.704 59.9471 597.176 62.4155 590.653 64.1288C588.94 64.7882 586.95 63.2781 587.171 61.4861C587.392 59.6941 588.11 58.2797 589.326 57.2428C589.713 56.7525 590.1 56.2622 590.487 55.772C593.582 51.8498 597.728 49.1167 599.331 44.0619C600.823 38.1394 598.39 33.1581 593.028 29.873C588.108 26.5316 581.143 24.7737 575.283 24.6387C572.132 24.5994 568.595 25.0504 565.499 25.4449C561.961 25.8959 558.921 26.7244 555.439 27.6092C553.725 28.2686 551.956 28.4941 550.243 29.1535C548.529 29.8128 546.816 30.4722 545.102 31.1316C541.675 32.4503 538.69 33.7127 535.318 35.4653C531.946 37.218 529.017 38.9143 525.645 40.6669C523.987 41.7602 522.715 42.3632 521.057 43.4564C519.399 44.5497 518.183 45.5866 516.524 46.6799C513.65 48.8101 510.776 50.9402 507.902 53.0704C506.685 54.1073 505.027 55.2006 503.811 56.2375C502.595 57.2744 501.379 58.3113 500.218 59.7821C498.173 61.3657 496.626 63.3267 495.023 64.8539C494.636 65.3442 494.249 65.8344 493.807 65.8908L492.59 66.9277L490.656 69.3791C489.495 70.8499 487.892 72.377 486.787 74.2817C485.626 75.7525 484.078 77.7136 482.918 79.1844C481.757 80.6552 480.209 82.6163 479.049 84.0871C477.888 85.5579 476.34 87.519 475.179 88.9898C474.074 90.8945 472.913 92.3653 471.808 94.27L468.436 99.5502C458.985 113.542 450.97 128.233 443.896 143.246C437.208 157.767 431.737 171.252 427.205 185.059Z" fill="#F2E2D3"/>
<path d="M572.634 81.4184C575.287 81.0802 577.94 80.742 580.594 80.4038C583.247 80.0656 585.956 80.1612 588.664 80.2569C594.026 80.0144 599.001 80.2622 604.474 80.8874C605.856 81.1522 606.74 81.0395 608.122 81.3043C609.504 81.5691 610.388 81.4563 611.77 81.7211C614.037 81.8732 616.359 82.4591 619.122 82.9887C623.711 83.7267 628.409 85.3326 632.666 86.9948C633.163 87.3723 633.274 88.2401 632.39 88.3528C627.359 87.6712 622.771 86.9332 617.741 86.2515C615.419 85.6656 612.71 85.5699 610.389 84.9839C608.122 84.8319 605.358 84.3023 602.705 84.6405C600.439 84.4884 597.73 84.3927 595.464 84.2407C593.197 84.0886 590.544 84.4268 588.278 84.2748C586.066 84.5566 583.358 84.4609 581.147 84.7428C578.493 85.081 576.282 85.3628 573.629 85.701L569.649 86.2083C568.322 86.3774 566.996 86.5465 565.724 87.1495C563.071 87.4878 560.473 88.2599 558.317 88.9756C555.664 89.3138 553.121 90.5198 550.965 91.2356C548.367 92.0077 545.769 92.7798 543.614 93.4955C541.016 94.2677 538.915 95.4173 536.372 96.6233L532.503 97.9984C531.232 98.6014 529.96 99.2044 529.131 99.7511C526.589 100.957 524.488 102.107 521.945 103.313L518.574 105.065C517.302 105.668 516.473 106.215 515.202 106.818C497.679 117.43 480.876 130.154 466.062 144.389C462.856 147.443 459.263 150.988 456.058 154.042C454.455 155.57 452.907 157.531 451.304 159.058C449.756 161.019 448.153 162.546 446.606 164.507C445.058 166.468 443.953 168.373 442.35 169.9C441.244 171.805 439.697 173.766 438.591 175.671C437.486 177.575 436.38 179.48 435.33 181.819C434.999 182.743 434.225 183.723 433.949 185.081C433.617 186.005 433.341 187.364 433.009 188.288L430.301 191.72C430.909 189.437 431.903 186.665 432.511 184.383C433.561 182.044 434.612 179.705 435.662 177.367C436.435 176.386 436.712 175.028 437.486 174.048C438.259 173.067 438.978 171.653 439.31 170.729C440.802 168.334 441.907 166.429 443.4 164.034C449.037 155.378 456.112 147.421 463.243 139.898C477.559 125.286 494.362 112.561 511.94 102.383C513.211 101.78 514.04 101.234 515.257 100.197L519.071 98.3878C521.613 97.1818 524.156 95.9757 526.201 94.3922C527.472 93.7892 528.744 93.1862 530.015 92.5832L533.829 90.7742C536.372 89.5682 538.97 88.7961 541.513 87.5901C551.573 85.4258 562.02 82.7712 572.634 81.4184Z" fill="#F2E2D3"/>
</svg>
