<svg width="146" height="72" viewBox="0 0 146 72" fill="none" xmlns="http://www.w3.org/2000/svg">
<path d="M40.727 39.7559H37.5586V44.5745C33.334 47.0168 30.6277 47.8749 27.3273 47.8749C17.4921 47.8749 9.83511 39.3598 9.83511 28.4025C9.83511 17.2471 16.5679 9.4581 26.3372 9.4581C30.5617 9.4581 33.5321 10.5802 37.5586 13.5506V16.785H40.661V5.56362H37.5586V8.53399C33.8621 6.81778 30.4297 6.09168 26.1391 6.09168C13.2675 6.09168 3.30029 15.9929 3.30029 28.7985C3.30029 41.8021 13.2675 51.3073 26.8652 51.3073C31.5518 51.3073 35.1823 50.5812 40.727 48.535V39.7559Z" fill="#A1815C"/>
<path d="M58.5487 48.0069H53.532V19.8874H52.3439L42.8387 22.4617V24.2439H48.5814V48.0069H43.5648V50.4492H58.5487V48.0069ZM47.3273 8.53399C47.3273 10.5142 48.8455 12.0324 50.7597 12.0324C52.7399 12.0324 54.2581 10.5142 54.2581 8.53399C54.2581 6.61975 52.7399 5.10156 50.7597 5.10156C48.8455 5.10156 47.3273 6.61975 47.3273 8.53399Z" fill="#A1815C"/>
<path d="M89.5215 20.6135L84.8349 21.7356H80.6104C77.0459 20.0194 76.1218 19.7554 73.4155 19.7554C65.8905 19.7554 61.0059 24.244 61.0059 31.3068C61.0059 35.4653 62.7881 38.4357 66.6826 40.68C62.9862 43.7824 61.996 44.9705 59.7518 48.931C61.798 51.2413 62.7881 51.8354 64.7024 52.2314C61.534 56.1919 61.0059 57.116 59.5537 60.6805C63.1842 65.4991 66.7486 67.3473 72.4253 67.3473C81.7325 67.3473 89.2574 61.2746 89.2574 53.8156C89.2574 49.9872 87.4092 47.7429 84.2408 47.7429H67.7388C66.4846 47.7429 65.8245 47.1488 65.8245 46.0267C65.8245 44.8385 66.6166 43.5844 68.5969 41.5381C70.5771 42.1982 71.3032 42.3302 73.2834 42.3302C81.0724 42.3302 85.891 37.9077 85.891 30.9108C85.891 28.2044 85.3629 26.6202 83.7788 24.772H89.5215V20.6135ZM66.2866 30.9768C66.2866 25.6301 69.0589 22.2637 73.4815 22.2637C77.838 22.2637 80.6764 25.6301 80.6764 30.9768C80.6764 36.3235 77.838 39.7559 73.4815 39.7559C69.0589 39.7559 66.2866 36.3235 66.2866 30.9768ZM82.1286 52.5615C83.6467 52.5615 84.6369 53.8816 84.6369 55.9939C84.6369 60.6805 79.7522 64.707 73.9435 64.707C68.6629 64.707 64.9664 61.9347 64.9664 58.0402C64.9664 56.2579 65.4285 55.0038 67.1447 52.5615H82.1286Z" fill="#A1815C"/>
<path d="M117.036 47.3468H111.953V27.0163C111.953 22.6598 108.125 19.7554 102.316 19.7554C96.3095 19.7554 91.8869 22.5937 91.8869 26.4222C91.8869 27.1483 91.9529 27.4784 92.415 28.2704L98.2897 26.5542V23.3858C100.204 22.4617 101.062 22.2637 102.382 22.2637C105.023 22.2637 107.003 24.1779 107.003 26.8183V34.2772L95.7154 36.8515C92.547 37.5776 90.3687 40.35 90.3687 43.7164C90.3687 48.1389 93.7352 51.3073 98.2897 51.3073C101.788 51.3073 104.296 49.9212 107.069 46.4887C107.069 46.7528 107.069 46.9508 107.069 47.1488C107.069 49.5911 108.257 51.0433 110.303 51.0433C110.831 51.0433 111.755 50.8453 112.614 50.5812L117.036 49.1951V47.3468ZM107.003 43.9144C104.098 46.4887 102.382 47.4128 100.27 47.4128C97.4976 47.4128 95.7154 45.6306 95.7154 42.8583V39.5579L107.003 36.9175V43.9144Z" fill="#A1815C"/>
<path d="M134.2 48.0069H127.863V30.4487C131.494 26.0262 132.682 24.904 133.87 24.904C134.53 24.904 135.454 25.4981 136.775 26.7523L140.603 22.1317L138.557 20.3495C138.161 19.9534 137.501 19.7554 136.709 19.7554C134.332 19.7554 132.616 21.2076 127.863 27.2803V19.8874H126.675L117.17 22.4617V24.2439H122.913V48.0069H117.896V50.4492H134.2V48.0069Z" fill="#A1815C"/>
<path d="M96.6257 66.6082H95.2553V61.565H98.7088V62.972L99.5494 62.9537V59.354L98.7088 59.3723V60.7427H95.2553V56.0649H99.5859V57.6181H100.408V54.7127H99.5676V55.2244H92.2769V55.9005H93.6473V66.6082H92.2769V67.2843H96.6257V66.6082Z" fill="#A1815C"/>
<path d="M105.689 66.6082H104.301V58.8241H103.972L101.34 59.5367V60.0301H102.93V66.6082H101.541V67.2843H105.689V66.6082ZM102.583 55.6812C102.583 56.2294 103.003 56.6496 103.533 56.6496C104.081 56.6496 104.502 56.2294 104.502 55.6812C104.502 55.1513 104.081 54.731 103.533 54.731C103.003 54.731 102.583 55.1513 102.583 55.6812Z" fill="#A1815C"/>
<path d="M116.346 66.6082H114.976V61.0716C114.976 59.6646 114.135 58.7875 112.783 58.7875C111.614 58.7875 110.828 59.2809 109.458 60.8706V58.8241H109.129L106.497 59.5367V60.0301H108.087V66.6082H106.698V67.2843H110.846V66.6082H109.458V61.8574C111.047 60.0301 111.504 59.6829 112.29 59.6829C113.094 59.6829 113.587 60.2859 113.587 61.2544V66.6082H112.217V67.2843H116.346V66.6082Z" fill="#A1815C"/>
<path d="M126.269 66.2611H124.68V53.8174H124.333L121.701 54.53V55.0234H123.291V59.2444C122.597 58.8789 122.268 58.7875 121.646 58.7875C119.253 58.7875 117.316 60.8158 117.316 63.3374C117.316 65.6763 118.814 67.5219 120.715 67.5219C121.646 67.5219 122.286 67.193 123.291 66.188V67.4671H123.638L126.269 66.7727V66.2611ZM122.761 65.7312C122.122 66.2245 121.847 66.3342 121.281 66.3342C119.783 66.3342 118.887 65.1099 118.887 63.0634C118.887 60.962 120.075 59.555 121.847 59.555C122.926 59.555 123.291 59.9387 123.291 61.0716V65.3109C123.053 65.4936 122.871 65.6398 122.761 65.7312Z" fill="#A1815C"/>
<path d="M133.729 65.8408C132.706 66.4986 132.212 66.6813 131.481 66.6813C129.745 66.6813 128.539 65.0916 128.539 62.8075V62.6065H134.295V62.1132C134.295 60.1397 132.943 58.7875 130.97 58.7875C128.704 58.7875 127.041 60.6514 127.041 63.2095C127.041 65.7312 128.686 67.5219 131.006 67.5219C132.066 67.5219 132.706 67.3026 134.076 66.5169L133.729 65.8408ZM128.558 61.8756C128.722 60.4504 129.654 59.555 130.988 59.555C132.048 59.555 132.797 60.3407 132.797 61.4371V61.8756H128.558Z" fill="#A1815C"/>
<path d="M139.977 66.6082H138.223V61.7477C139.228 60.5235 139.557 60.2128 139.886 60.2128C140.068 60.2128 140.324 60.3773 140.69 60.7244L141.749 59.4454L141.183 58.952C141.073 58.8424 140.891 58.7875 140.671 58.7875C140.013 58.7875 139.538 59.1895 138.223 60.8706V58.8241H137.894L135.263 59.5367V60.0301H136.852V66.6082H135.464V67.2843H139.977V66.6082Z" fill="#A1815C"/>
</svg>
